<svg xmlns="http://www.w3.org/2000/svg" xmlns:xlink="http://www.w3.org/1999/xlink" width="600" height="400" viewBox="0 0 2400 1600">
<defs>
  <clipPath id="clip740">
    <rect x="0" y="0" width="2400" height="1600"></rect>
  </clipPath>
</defs>
<path clip-path="url(#clip740)" d="
M0 1600 L2400 1600 L2400 0 L0 0  Z
  " fill="#ffffff" fill-rule="evenodd" fill-opacity="1"></path>
<defs>
  <clipPath id="clip741">
    <rect x="480" y="0" width="1681" height="1600"></rect>
  </clipPath>
</defs>
<defs>
  <clipPath id="clip742">
    <rect x="205" y="47" width="2149" height="1377"></rect>
  </clipPath>
</defs>
<path clip-path="url(#clip740)" d="
M205.121 1423.18 L2352.76 1423.18 L2352.76 47.2441 L205.121 47.2441  Z
  " fill="#ffffff" fill-rule="evenodd" fill-opacity="1"></path>
<polyline clip-path="url(#clip742)" style="stroke:#000000; stroke-linecap:round; stroke-linejoin:round; stroke-width:2; stroke-opacity:0.1; fill:none" points="
  265.903,1423.18 265.903,47.2441 
  "></polyline>
<polyline clip-path="url(#clip742)" style="stroke:#000000; stroke-linecap:round; stroke-linejoin:round; stroke-width:2; stroke-opacity:0.1; fill:none" points="
  671.117,1423.18 671.117,47.2441 
  "></polyline>
<polyline clip-path="url(#clip742)" style="stroke:#000000; stroke-linecap:round; stroke-linejoin:round; stroke-width:2; stroke-opacity:0.1; fill:none" points="
  1076.33,1423.18 1076.33,47.2441 
  "></polyline>
<polyline clip-path="url(#clip742)" style="stroke:#000000; stroke-linecap:round; stroke-linejoin:round; stroke-width:2; stroke-opacity:0.1; fill:none" points="
  1481.55,1423.18 1481.55,47.2441 
  "></polyline>
<polyline clip-path="url(#clip742)" style="stroke:#000000; stroke-linecap:round; stroke-linejoin:round; stroke-width:2; stroke-opacity:0.1; fill:none" points="
  1886.76,1423.18 1886.76,47.2441 
  "></polyline>
<polyline clip-path="url(#clip742)" style="stroke:#000000; stroke-linecap:round; stroke-linejoin:round; stroke-width:2; stroke-opacity:0.1; fill:none" points="
  2291.97,1423.18 2291.97,47.2441 
  "></polyline>
<polyline clip-path="url(#clip740)" style="stroke:#000000; stroke-linecap:round; stroke-linejoin:round; stroke-width:4; stroke-opacity:1; fill:none" points="
  205.121,1423.18 2352.76,1423.18 
  "></polyline>
<polyline clip-path="url(#clip740)" style="stroke:#000000; stroke-linecap:round; stroke-linejoin:round; stroke-width:4; stroke-opacity:1; fill:none" points="
  265.903,1423.18 265.903,1404.28 
  "></polyline>
<polyline clip-path="url(#clip740)" style="stroke:#000000; stroke-linecap:round; stroke-linejoin:round; stroke-width:4; stroke-opacity:1; fill:none" points="
  671.117,1423.18 671.117,1404.28 
  "></polyline>
<polyline clip-path="url(#clip740)" style="stroke:#000000; stroke-linecap:round; stroke-linejoin:round; stroke-width:4; stroke-opacity:1; fill:none" points="
  1076.33,1423.18 1076.33,1404.28 
  "></polyline>
<polyline clip-path="url(#clip740)" style="stroke:#000000; stroke-linecap:round; stroke-linejoin:round; stroke-width:4; stroke-opacity:1; fill:none" points="
  1481.55,1423.18 1481.55,1404.28 
  "></polyline>
<polyline clip-path="url(#clip740)" style="stroke:#000000; stroke-linecap:round; stroke-linejoin:round; stroke-width:4; stroke-opacity:1; fill:none" points="
  1886.76,1423.18 1886.76,1404.28 
  "></polyline>
<polyline clip-path="url(#clip740)" style="stroke:#000000; stroke-linecap:round; stroke-linejoin:round; stroke-width:4; stroke-opacity:1; fill:none" points="
  2291.97,1423.18 2291.97,1404.28 
  "></polyline>
<path clip-path="url(#clip740)" d="M235.544 1468.75 L265.22 1468.75 L265.22 1472.69 L235.544 1472.69 L235.544 1468.75 Z" fill="#000000" fill-rule="evenodd" fill-opacity="1"></path><path clip-path="url(#clip740)" d="M275.359 1451.02 L293.715 1451.02 L293.715 1454.96 L279.641 1454.96 L279.641 1463.43 Q280.66 1463.08 281.678 1462.92 Q282.697 1462.73 283.715 1462.73 Q289.503 1462.73 292.882 1465.9 Q296.262 1469.08 296.262 1474.49 Q296.262 1480.07 292.79 1483.17 Q289.317 1486.25 282.998 1486.25 Q280.822 1486.25 278.553 1485.88 Q276.308 1485.51 273.901 1484.77 L273.901 1480.07 Q275.984 1481.2 278.206 1481.76 Q280.428 1482.32 282.905 1482.32 Q286.91 1482.32 289.248 1480.21 Q291.586 1478.1 291.586 1474.49 Q291.586 1470.88 289.248 1468.77 Q286.91 1466.67 282.905 1466.67 Q281.03 1466.67 279.155 1467.08 Q277.303 1467.5 275.359 1468.38 L275.359 1451.02 Z" fill="#000000" fill-rule="evenodd" fill-opacity="1"></path><path clip-path="url(#clip740)" d="M671.117 1454.1 Q667.506 1454.1 665.677 1457.66 Q663.872 1461.2 663.872 1468.33 Q663.872 1475.44 665.677 1479.01 Q667.506 1482.55 671.117 1482.55 Q674.751 1482.55 676.557 1479.01 Q678.386 1475.44 678.386 1468.33 Q678.386 1461.2 676.557 1457.66 Q674.751 1454.1 671.117 1454.1 M671.117 1450.39 Q676.927 1450.39 679.983 1455 Q683.062 1459.58 683.062 1468.33 Q683.062 1477.06 679.983 1481.67 Q676.927 1486.25 671.117 1486.25 Q665.307 1486.25 662.228 1481.67 Q659.173 1477.06 659.173 1468.33 Q659.173 1459.58 662.228 1455 Q665.307 1450.39 671.117 1450.39 Z" fill="#000000" fill-rule="evenodd" fill-opacity="1"></path><path clip-path="url(#clip740)" d="M1066.61 1451.02 L1084.97 1451.02 L1084.97 1454.96 L1070.89 1454.96 L1070.89 1463.43 Q1071.91 1463.08 1072.93 1462.92 Q1073.95 1462.73 1074.97 1462.73 Q1080.75 1462.73 1084.13 1465.9 Q1087.51 1469.08 1087.51 1474.49 Q1087.51 1480.07 1084.04 1483.17 Q1080.57 1486.25 1074.25 1486.25 Q1072.07 1486.25 1069.8 1485.88 Q1067.56 1485.51 1065.15 1484.77 L1065.15 1480.07 Q1067.23 1481.2 1069.46 1481.76 Q1071.68 1482.32 1074.16 1482.32 Q1078.16 1482.32 1080.5 1480.21 Q1082.84 1478.1 1082.84 1474.49 Q1082.84 1470.88 1080.5 1468.77 Q1078.16 1466.67 1074.16 1466.67 Q1072.28 1466.67 1070.41 1467.08 Q1068.55 1467.5 1066.61 1468.38 L1066.61 1451.02 Z" fill="#000000" fill-rule="evenodd" fill-opacity="1"></path><path clip-path="url(#clip740)" d="M1456.23 1481.64 L1463.87 1481.64 L1463.87 1455.28 L1455.56 1456.95 L1455.56 1452.69 L1463.83 1451.02 L1468.5 1451.02 L1468.5 1481.64 L1476.14 1481.64 L1476.14 1485.58 L1456.23 1485.58 L1456.23 1481.64 Z" fill="#000000" fill-rule="evenodd" fill-opacity="1"></path><path clip-path="url(#clip740)" d="M1495.58 1454.1 Q1491.97 1454.1 1490.14 1457.66 Q1488.34 1461.2 1488.34 1468.33 Q1488.34 1475.44 1490.14 1479.01 Q1491.97 1482.55 1495.58 1482.55 Q1499.22 1482.55 1501.02 1479.01 Q1502.85 1475.44 1502.85 1468.33 Q1502.85 1461.2 1501.02 1457.66 Q1499.22 1454.1 1495.58 1454.1 M1495.58 1450.39 Q1501.39 1450.39 1504.45 1455 Q1507.53 1459.58 1507.53 1468.33 Q1507.53 1477.06 1504.45 1481.67 Q1501.39 1486.25 1495.58 1486.25 Q1489.77 1486.25 1486.7 1481.67 Q1483.64 1477.06 1483.64 1468.33 Q1483.64 1459.58 1486.7 1455 Q1489.77 1450.39 1495.58 1450.39 Z" fill="#000000" fill-rule="evenodd" fill-opacity="1"></path><path clip-path="url(#clip740)" d="M1861.94 1481.64 L1869.58 1481.64 L1869.58 1455.28 L1861.27 1456.95 L1861.27 1452.69 L1869.54 1451.02 L1874.21 1451.02 L1874.21 1481.64 L1881.85 1481.64 L1881.85 1485.58 L1861.94 1485.58 L1861.94 1481.64 Z" fill="#000000" fill-rule="evenodd" fill-opacity="1"></path><path clip-path="url(#clip740)" d="M1891.34 1451.02 L1909.7 1451.02 L1909.7 1454.96 L1895.63 1454.96 L1895.63 1463.43 Q1896.64 1463.08 1897.66 1462.92 Q1898.68 1462.73 1899.7 1462.73 Q1905.49 1462.73 1908.87 1465.9 Q1912.25 1469.08 1912.25 1474.49 Q1912.25 1480.07 1908.77 1483.17 Q1905.3 1486.25 1898.98 1486.25 Q1896.81 1486.25 1894.54 1485.88 Q1892.29 1485.51 1889.88 1484.77 L1889.88 1480.07 Q1891.97 1481.2 1894.19 1481.76 Q1896.41 1482.32 1898.89 1482.32 Q1902.89 1482.32 1905.23 1480.21 Q1907.57 1478.1 1907.57 1474.49 Q1907.57 1470.88 1905.23 1468.77 Q1902.89 1466.67 1898.89 1466.67 Q1897.01 1466.67 1895.14 1467.08 Q1893.29 1467.5 1891.34 1468.38 L1891.34 1451.02 Z" fill="#000000" fill-rule="evenodd" fill-opacity="1"></path><path clip-path="url(#clip740)" d="M2270.75 1481.64 L2287.07 1481.64 L2287.07 1485.58 L2265.12 1485.58 L2265.12 1481.64 Q2267.78 1478.89 2272.37 1474.26 Q2276.97 1469.61 2278.15 1468.27 Q2280.4 1465.74 2281.28 1464.01 Q2282.18 1462.25 2282.18 1460.56 Q2282.18 1457.8 2280.24 1456.07 Q2278.32 1454.33 2275.21 1454.33 Q2273.02 1454.33 2270.56 1455.09 Q2268.13 1455.86 2265.35 1457.41 L2265.35 1452.69 Q2268.18 1451.55 2270.63 1450.97 Q2273.08 1450.39 2275.12 1450.39 Q2280.49 1450.39 2283.69 1453.08 Q2286.88 1455.77 2286.88 1460.26 Q2286.88 1462.39 2286.07 1464.31 Q2285.28 1466.2 2283.18 1468.8 Q2282.6 1469.47 2279.5 1472.69 Q2276.4 1475.88 2270.75 1481.64 Z" fill="#000000" fill-rule="evenodd" fill-opacity="1"></path><path clip-path="url(#clip740)" d="M2306.88 1454.1 Q2303.27 1454.1 2301.44 1457.66 Q2299.64 1461.2 2299.64 1468.33 Q2299.64 1475.44 2301.44 1479.01 Q2303.27 1482.55 2306.88 1482.55 Q2310.52 1482.55 2312.32 1479.01 Q2314.15 1475.44 2314.15 1468.33 Q2314.15 1461.2 2312.32 1457.66 Q2310.52 1454.1 2306.88 1454.1 M2306.88 1450.39 Q2312.69 1450.39 2315.75 1455 Q2318.83 1459.58 2318.83 1468.33 Q2318.83 1477.06 2315.75 1481.67 Q2312.69 1486.25 2306.88 1486.25 Q2301.07 1486.25 2297.99 1481.67 Q2294.94 1477.06 2294.94 1468.33 Q2294.94 1459.58 2297.99 1455 Q2301.07 1450.39 2306.88 1450.39 Z" fill="#000000" fill-rule="evenodd" fill-opacity="1"></path><path clip-path="url(#clip740)" d="M969.683 1554.55 Q969.683 1555.16 969.426 1555.48 Q969.2 1555.77 968.975 1555.84 Q968.781 1555.87 968.492 1555.87 Q967.654 1555.87 964.756 1555.77 Q961.857 1555.67 961.02 1555.67 Q959.667 1555.67 956.897 1555.77 Q954.128 1555.87 952.775 1555.87 Q951.873 1555.87 951.873 1555.13 Q951.873 1554.64 951.97 1554.39 Q952.067 1554.1 952.324 1554 Q952.614 1553.87 952.775 1553.87 Q952.968 1553.84 953.451 1553.84 Q954.096 1553.84 954.772 1553.77 Q955.448 1553.68 956.286 1553.48 Q957.123 1553.29 957.638 1552.81 Q958.186 1552.33 958.186 1551.65 Q958.186 1551.36 957.96 1548.98 Q957.735 1546.59 957.445 1543.82 Q957.155 1541.02 957.123 1540.63 L940.569 1540.63 Q939.055 1543.24 937.993 1545.05 Q936.93 1546.85 936.543 1547.46 Q936.157 1548.07 935.931 1548.46 Q935.706 1548.85 935.577 1549.07 Q934.643 1550.78 934.643 1551.52 Q934.643 1553.58 937.735 1553.84 Q938.798 1553.84 938.798 1554.61 Q938.798 1555.19 938.54 1555.51 Q938.282 1555.8 938.057 1555.84 Q937.864 1555.87 937.542 1555.87 Q936.479 1555.87 934.257 1555.77 Q932.035 1555.67 930.94 1555.67 Q930.006 1555.67 928.073 1555.77 Q926.141 1555.87 925.271 1555.87 Q924.885 1555.87 924.659 1555.64 Q924.434 1555.42 924.434 1555.13 Q924.434 1554.68 924.498 1554.42 Q924.595 1554.16 924.853 1554.03 Q925.11 1553.9 925.239 1553.9 Q925.368 1553.87 925.819 1553.84 Q928.266 1553.68 930.167 1552.52 Q932.099 1551.33 933.935 1548.27 L956.865 1509.75 Q957.091 1509.36 957.252 1509.17 Q957.413 1508.98 957.735 1508.82 Q958.089 1508.65 958.604 1508.65 Q959.41 1508.65 959.571 1508.91 Q959.732 1509.14 959.828 1510.23 L963.854 1551.46 Q963.951 1552.33 964.015 1552.68 Q964.112 1553 964.53 1553.36 Q964.981 1553.68 965.786 1553.77 Q966.624 1553.84 968.17 1553.84 Q968.749 1553.84 968.975 1553.87 Q969.2 1553.87 969.426 1554.03 Q969.683 1554.19 969.683 1554.55 M956.93 1538.57 L954.836 1516.83 L941.825 1538.57 L956.93 1538.57 Z" fill="#000000" fill-rule="evenodd" fill-opacity="1"></path><path clip-path="url(#clip740)" d="M1008.12 1546.43 Q1008.12 1546.69 1007.83 1547.69 Q1007.54 1548.69 1006.83 1550.23 Q1006.16 1551.78 1005.22 1553.19 Q1004.29 1554.58 1002.74 1555.61 Q1001.23 1556.61 999.491 1556.61 Q997.173 1556.61 995.627 1555.06 Q994.081 1553.52 994.081 1551.2 Q994.081 1549.91 994.757 1548.14 Q999.04 1536.71 999.04 1532.78 Q999.04 1528.17 995.466 1528.17 Q993.694 1528.17 992.02 1528.85 Q990.377 1529.49 989.25 1530.39 Q988.123 1531.29 987.092 1532.55 Q986.094 1533.77 985.578 1534.61 Q985.095 1535.42 984.709 1536.22 L983.872 1539.51 Q983.678 1540.41 982.744 1543.92 L981.295 1549.88 Q980.264 1554.32 980.039 1554.74 Q979.717 1555.64 979.008 1556.13 Q978.3 1556.61 977.591 1556.61 Q976.786 1556.61 976.239 1556.13 Q975.691 1555.64 975.691 1554.8 Q975.691 1554.68 975.788 1554.19 Q975.884 1553.71 976.046 1553.03 Q976.207 1552.36 976.271 1551.97 L980.103 1536.74 Q980.812 1533.97 980.973 1533.1 Q981.166 1532.2 981.166 1531.2 Q981.166 1528.17 979.105 1528.17 Q977.43 1528.17 976.335 1530.17 Q975.24 1532.16 974.306 1536.03 Q974.017 1537.09 973.823 1537.32 Q973.662 1537.54 973.179 1537.54 Q972.374 1537.51 972.374 1536.87 Q972.374 1536.71 972.632 1535.64 Q972.889 1534.58 973.372 1533.07 Q973.888 1531.52 974.371 1530.49 Q974.789 1529.72 975.015 1529.36 Q975.273 1528.98 975.884 1528.24 Q976.529 1527.46 977.366 1527.11 Q978.236 1526.72 979.298 1526.72 Q981.682 1526.72 983.421 1528.27 Q985.16 1529.78 985.385 1532.45 Q989.669 1526.72 995.659 1526.72 Q999.202 1526.72 1001.23 1528.59 Q1003.26 1530.46 1003.26 1533.77 Q1003.26 1534.55 1003.1 1535.55 Q1002.97 1536.51 1002.65 1537.74 Q1002.36 1538.96 1002.1 1539.89 Q1001.84 1540.83 1001.33 1542.34 Q1000.81 1543.82 1000.59 1544.47 Q1000.36 1545.11 999.813 1546.62 Q999.298 1548.11 999.234 1548.27 Q998.042 1551.26 998.042 1552.97 Q998.042 1554.1 998.396 1554.61 Q998.783 1555.13 999.62 1555.13 Q1001.87 1555.13 1003.55 1552.9 Q1005.26 1550.65 1006.35 1546.98 Q1006.61 1546.17 1006.74 1545.98 Q1006.9 1545.79 1007.35 1545.79 Q1008.12 1545.79 1008.12 1546.43 Z" fill="#000000" fill-rule="evenodd" fill-opacity="1"></path><path clip-path="url(#clip740)" d="M1041.03 1529.81 Q1041.03 1529.85 1040.83 1531 L1033.49 1560.28 Q1033.1 1561.83 1032.01 1563.37 Q1030.95 1564.95 1029.24 1566.3 Q1027.56 1567.69 1024.99 1568.52 Q1022.44 1569.39 1019.51 1569.39 Q1014.84 1569.39 1012.78 1568.4 Q1010.75 1567.43 1010.75 1565.37 Q1010.75 1563.56 1011.88 1562.53 Q1013.01 1561.54 1014.3 1561.54 Q1015.52 1561.54 1016.16 1562.24 Q1016.81 1562.95 1016.81 1563.85 Q1016.81 1564.85 1016.13 1565.85 Q1015.46 1566.88 1014.1 1567.27 Q1016.26 1567.94 1019.38 1567.94 Q1025.99 1567.94 1028.82 1560.96 Q1028.89 1560.86 1028.89 1560.83 L1031.08 1552.1 L1030.98 1552.04 Q1030.43 1552.68 1029.56 1553.42 Q1028.72 1554.13 1026.92 1555 Q1025.12 1555.87 1023.35 1555.87 Q1019.64 1555.87 1017.1 1553.03 Q1014.59 1550.17 1014.59 1545.43 Q1014.59 1541.99 1015.97 1538.54 Q1017.39 1535.06 1019.58 1532.52 Q1021.8 1529.94 1024.63 1528.33 Q1027.5 1526.72 1030.27 1526.72 Q1032.2 1526.72 1033.85 1527.88 Q1035.49 1529.01 1036.39 1530.88 Q1036.55 1529.33 1037.42 1528.69 Q1038.32 1528.04 1039.09 1528.04 Q1039.96 1528.04 1040.48 1528.53 Q1041.03 1528.98 1041.03 1529.81 M1035.62 1533.84 Q1035.62 1533.65 1035.49 1533.13 Q1035.36 1532.58 1034.97 1531.71 Q1034.62 1530.84 1034.07 1530.07 Q1033.52 1529.3 1032.52 1528.75 Q1031.56 1528.17 1030.33 1528.17 Q1028.34 1528.17 1026.34 1529.85 Q1024.34 1531.49 1022.96 1534.03 Q1021.67 1536.48 1020.45 1541.21 Q1019.26 1545.95 1019.26 1548.36 Q1019.26 1550.75 1020.29 1552.58 Q1021.32 1554.42 1023.54 1554.42 Q1026.12 1554.42 1028.89 1552.04 Q1031.75 1549.56 1032.23 1547.43 L1035.42 1534.84 Q1035.62 1534.06 1035.62 1533.84 Z" fill="#000000" fill-rule="evenodd" fill-opacity="1"></path><path clip-path="url(#clip740)" d="M1058.34 1510.81 L1048.84 1548.94 Q1048.45 1550.46 1048.45 1552.1 Q1048.45 1555.13 1050.45 1555.13 Q1051.39 1555.13 1052.16 1554.52 Q1052.93 1553.87 1053.51 1552.61 Q1054.12 1551.33 1054.51 1550.1 Q1054.93 1548.88 1055.44 1546.98 Q1055.6 1546.24 1055.77 1546.01 Q1055.93 1545.79 1056.38 1545.79 Q1057.18 1545.79 1057.18 1546.43 Q1056.38 1550.39 1055.19 1552.9 Q1053.45 1556.61 1050.23 1556.61 Q1047.81 1556.61 1046.01 1554.93 Q1044.24 1553.23 1044.24 1550.52 Q1044.24 1549.49 1044.56 1548.27 L1052.87 1515.29 L1053.09 1514 Q1053.09 1513.65 1052.96 1513.45 Q1052.83 1513.26 1052.06 1513.07 Q1051.32 1512.87 1049.84 1512.87 Q1049.23 1512.87 1048.94 1512.84 Q1048.68 1512.81 1048.42 1512.65 Q1048.2 1512.49 1048.2 1512.13 Q1048.2 1511.55 1048.42 1511.23 Q1048.68 1510.91 1048.87 1510.84 Q1049.07 1510.78 1049.45 1510.75 Q1050 1510.72 1051.84 1510.55 Q1053.67 1510.36 1055.25 1510.23 Q1056.83 1510.1 1057.5 1510.1 Q1057.89 1510.1 1058.08 1510.3 Q1058.31 1510.46 1058.34 1510.65 L1058.34 1510.81 Z" fill="#000000" fill-rule="evenodd" fill-opacity="1"></path><path clip-path="url(#clip740)" d="M1089.57 1548.23 Q1089.83 1548.52 1089.83 1548.81 Q1089.83 1549.1 1089.19 1549.94 Q1088.58 1550.78 1087.25 1551.91 Q1085.93 1553.03 1084.23 1554.1 Q1082.52 1555.16 1080.01 1555.87 Q1077.5 1556.61 1074.86 1556.61 Q1070.12 1556.61 1067.29 1553.23 Q1064.49 1549.85 1064.49 1544.66 Q1064.49 1541.34 1065.58 1538.41 Q1066.68 1535.45 1068.45 1533.36 Q1070.25 1531.26 1072.5 1529.75 Q1074.79 1528.2 1077.17 1527.46 Q1079.56 1526.72 1081.78 1526.72 Q1085.03 1526.72 1086.93 1528.36 Q1088.83 1530.01 1088.83 1532.33 Q1088.83 1532.87 1088.67 1533.55 Q1088.54 1534.23 1088.09 1535.29 Q1087.67 1536.35 1086.58 1537.41 Q1085.48 1538.44 1083.87 1539.12 Q1080.3 1540.63 1073.79 1540.63 L1070.28 1540.63 Q1069.25 1544.79 1069.25 1547.49 Q1069.25 1548.56 1069.45 1549.65 Q1069.64 1550.71 1070.15 1552.07 Q1070.7 1553.42 1071.92 1554.29 Q1073.18 1555.13 1074.98 1555.13 Q1075.56 1555.13 1076.18 1555.09 Q1076.82 1555.06 1078.43 1554.71 Q1080.07 1554.35 1081.52 1553.74 Q1082.97 1553.13 1084.81 1551.81 Q1086.68 1550.46 1088.16 1548.62 Q1088.67 1547.95 1089.03 1547.95 Q1089.32 1547.95 1089.57 1548.23 M1086.64 1532.33 Q1086.64 1530.55 1085.32 1529.36 Q1084.03 1528.17 1081.78 1528.17 Q1081.07 1528.17 1080.2 1528.33 Q1079.33 1528.49 1077.88 1529.17 Q1076.47 1529.85 1075.21 1530.97 Q1073.95 1532.07 1072.7 1534.23 Q1071.44 1536.35 1070.7 1539.19 L1073.41 1539.19 Q1074.34 1539.19 1075.02 1539.19 Q1075.69 1539.15 1077.17 1539.02 Q1078.69 1538.9 1079.78 1538.67 Q1080.88 1538.41 1082.26 1537.9 Q1083.65 1537.38 1084.52 1536.71 Q1085.42 1536 1086.03 1534.87 Q1086.64 1533.74 1086.64 1532.33 Z" fill="#000000" fill-rule="evenodd" fill-opacity="1"></path><path clip-path="url(#clip740)" d="M1140.59 1537.86 Q1140.59 1541.38 1139.05 1544.85 Q1137.5 1548.3 1135.02 1550.88 Q1132.57 1553.42 1129.35 1555.03 Q1126.13 1556.61 1122.91 1556.61 Q1118.31 1556.61 1115.31 1553.48 Q1112.35 1550.33 1112.35 1545.43 Q1112.35 1540.86 1114.89 1536.51 Q1117.47 1532.13 1121.59 1529.43 Q1125.71 1526.72 1130.03 1526.72 Q1134.57 1526.72 1137.57 1529.78 Q1140.59 1532.84 1140.59 1537.86 M1135.76 1535.29 Q1135.76 1532.16 1134.25 1530.17 Q1132.73 1528.17 1129.96 1528.17 Q1129.16 1528.17 1128.23 1528.43 Q1127.29 1528.65 1126.07 1529.27 Q1124.88 1529.88 1123.52 1531.17 Q1122.2 1532.42 1121.04 1534.23 Q1119.53 1536.61 1118.37 1540.99 Q1117.24 1545.34 1117.24 1547.95 Q1117.24 1551.55 1118.92 1553.36 Q1120.59 1555.13 1122.98 1555.13 Q1125.29 1555.13 1127.74 1553.52 Q1130.22 1551.87 1131.93 1549.07 Q1133.64 1546.17 1134.7 1541.92 Q1135.76 1537.64 1135.76 1535.29 Z" fill="#000000" fill-rule="evenodd" fill-opacity="1"></path><path clip-path="url(#clip740)" d="M1176.91 1513.9 Q1176.91 1515.67 1175.78 1516.77 Q1174.68 1517.86 1173.3 1517.86 Q1172.3 1517.86 1171.56 1517.25 Q1170.85 1516.64 1170.85 1515.58 Q1170.85 1514.48 1171.69 1513.32 Q1172.53 1512.16 1174.43 1512 Q1173.17 1510.81 1171.17 1510.81 Q1170.17 1510.81 1169.34 1511.46 Q1168.53 1512.07 1168.08 1513.07 Q1167.6 1514.1 1166.5 1519.93 Q1166.15 1521.83 1165.83 1523.66 Q1165.5 1525.5 1165.12 1527.43 L1170.59 1527.43 Q1171.3 1527.43 1171.59 1527.46 Q1171.88 1527.49 1172.11 1527.66 Q1172.36 1527.82 1172.36 1528.17 Q1172.36 1529.07 1171.95 1529.3 Q1171.56 1529.49 1170.4 1529.49 L1164.73 1529.49 L1160.77 1550.39 Q1160.67 1551 1160.25 1552.94 Q1159.87 1554.84 1158.93 1557.96 Q1158 1561.12 1157.07 1562.99 Q1156.55 1564.05 1155.87 1565.05 Q1155.23 1566.08 1154.3 1567.11 Q1153.36 1568.14 1152.14 1568.75 Q1150.92 1569.39 1149.63 1569.39 Q1147.44 1569.39 1145.73 1568.17 Q1144.02 1566.95 1144.02 1564.85 Q1144.02 1563.08 1145.12 1561.99 Q1146.25 1560.89 1147.63 1560.89 Q1148.63 1560.89 1149.34 1561.5 Q1150.08 1562.12 1150.08 1563.18 Q1150.08 1563.63 1149.92 1564.14 Q1149.76 1564.66 1149.4 1565.24 Q1149.05 1565.85 1148.27 1566.27 Q1147.5 1566.69 1146.44 1566.75 Q1147.69 1567.94 1149.63 1567.94 Q1150.24 1567.94 1150.79 1567.69 Q1151.33 1567.46 1151.78 1566.88 Q1152.27 1566.3 1152.62 1565.72 Q1152.98 1565.18 1153.33 1564.11 Q1153.68 1563.08 1153.91 1562.31 Q1154.14 1561.54 1154.43 1560.15 Q1154.75 1558.77 1154.91 1557.93 Q1155.07 1557.12 1155.36 1555.55 L1160.29 1529.49 L1155.94 1529.49 Q1155.17 1529.49 1154.84 1529.46 Q1154.55 1529.43 1154.33 1529.27 Q1154.1 1529.07 1154.1 1528.69 Q1154.1 1528.07 1154.36 1527.82 Q1154.65 1527.53 1154.97 1527.49 Q1155.3 1527.43 1156.07 1527.43 L1160.64 1527.43 Q1162.19 1519.28 1162.8 1517.09 Q1163.51 1514.77 1164.6 1513.16 Q1165.7 1511.52 1166.92 1510.75 Q1168.15 1509.97 1169.14 1509.68 Q1170.17 1509.36 1171.17 1509.36 Q1173.43 1509.36 1175.17 1510.59 Q1176.91 1511.78 1176.91 1513.9 Z" fill="#000000" fill-rule="evenodd" fill-opacity="1"></path><path clip-path="url(#clip740)" d="M1238.7 1554.55 Q1238.7 1555.16 1238.44 1555.48 Q1238.21 1555.77 1237.99 1555.84 Q1237.8 1555.87 1237.51 1555.87 Q1236.67 1555.87 1233.77 1555.77 Q1230.87 1555.67 1230.03 1555.67 Q1228.68 1555.67 1225.91 1555.77 Q1223.14 1555.87 1221.79 1555.87 Q1220.89 1555.87 1220.89 1555.13 Q1220.89 1554.64 1220.98 1554.39 Q1221.08 1554.1 1221.34 1554 Q1221.63 1553.87 1221.79 1553.87 Q1221.98 1553.84 1222.47 1553.84 Q1223.11 1553.84 1223.79 1553.77 Q1224.46 1553.68 1225.3 1553.48 Q1226.14 1553.29 1226.65 1552.81 Q1227.2 1552.33 1227.2 1551.65 Q1227.2 1551.36 1226.98 1548.98 Q1226.75 1546.59 1226.46 1543.82 Q1226.17 1541.02 1226.14 1540.63 L1209.58 1540.63 Q1208.07 1543.24 1207.01 1545.05 Q1205.94 1546.85 1205.56 1547.46 Q1205.17 1548.07 1204.95 1548.46 Q1204.72 1548.85 1204.59 1549.07 Q1203.66 1550.78 1203.66 1551.52 Q1203.66 1553.58 1206.75 1553.84 Q1207.81 1553.84 1207.81 1554.61 Q1207.81 1555.19 1207.55 1555.51 Q1207.3 1555.8 1207.07 1555.84 Q1206.88 1555.87 1206.56 1555.87 Q1205.49 1555.87 1203.27 1555.77 Q1201.05 1555.67 1199.95 1555.67 Q1199.02 1555.67 1197.09 1555.77 Q1195.16 1555.87 1194.29 1555.87 Q1193.9 1555.87 1193.67 1555.64 Q1193.45 1555.42 1193.45 1555.13 Q1193.45 1554.68 1193.51 1554.42 Q1193.61 1554.16 1193.87 1554.03 Q1194.13 1553.9 1194.25 1553.9 Q1194.38 1553.87 1194.83 1553.84 Q1197.28 1553.68 1199.18 1552.52 Q1201.11 1551.33 1202.95 1548.27 L1225.88 1509.75 Q1226.11 1509.36 1226.27 1509.17 Q1226.43 1508.98 1226.75 1508.82 Q1227.1 1508.65 1227.62 1508.65 Q1228.42 1508.65 1228.59 1508.91 Q1228.75 1509.14 1228.84 1510.23 L1232.87 1551.46 Q1232.97 1552.33 1233.03 1552.68 Q1233.13 1553 1233.55 1553.36 Q1234 1553.68 1234.8 1553.77 Q1235.64 1553.84 1237.18 1553.84 Q1237.76 1553.84 1237.99 1553.87 Q1238.21 1553.87 1238.44 1554.03 Q1238.7 1554.19 1238.7 1554.55 M1225.94 1538.57 L1223.85 1516.83 L1210.84 1538.57 L1225.94 1538.57 Z" fill="#000000" fill-rule="evenodd" fill-opacity="1"></path><path clip-path="url(#clip740)" d="M1260.15 1528.17 Q1260.15 1529.07 1259.73 1529.3 Q1259.31 1529.49 1258.15 1529.49 L1251.97 1529.49 L1247.07 1548.94 Q1246.68 1550.65 1246.68 1552.1 Q1246.68 1553.71 1247.17 1554.42 Q1247.68 1555.13 1248.75 1555.13 Q1250.84 1555.13 1253.09 1553.23 Q1255.38 1551.33 1257.31 1546.69 Q1257.57 1546.08 1257.7 1545.95 Q1257.86 1545.79 1258.28 1545.79 Q1259.08 1545.79 1259.08 1546.43 Q1259.08 1546.66 1258.63 1547.69 Q1258.21 1548.72 1257.28 1550.23 Q1256.38 1551.75 1255.19 1553.16 Q1254.03 1554.58 1252.26 1555.61 Q1250.48 1556.61 1248.58 1556.61 Q1245.91 1556.61 1244.2 1554.9 Q1242.53 1553.19 1242.53 1550.52 Q1242.53 1549.65 1243.21 1546.88 Q1243.88 1544.08 1247.55 1529.49 L1241.72 1529.49 Q1240.92 1529.49 1240.6 1529.46 Q1240.31 1529.43 1240.08 1529.27 Q1239.89 1529.07 1239.89 1528.69 Q1239.89 1528.07 1240.15 1527.82 Q1240.4 1527.53 1240.73 1527.49 Q1241.08 1527.43 1241.89 1527.43 L1248.07 1527.43 L1250.65 1516.96 Q1250.9 1515.93 1251.55 1515.35 Q1252.22 1514.74 1252.61 1514.68 Q1253 1514.58 1253.29 1514.58 Q1254.16 1514.58 1254.67 1515.06 Q1255.19 1515.51 1255.19 1516.35 Q1255.19 1516.8 1252.48 1527.43 L1258.28 1527.43 Q1259.02 1527.43 1259.31 1527.46 Q1259.63 1527.49 1259.89 1527.66 Q1260.15 1527.82 1260.15 1528.17 Z" fill="#000000" fill-rule="evenodd" fill-opacity="1"></path><path clip-path="url(#clip740)" d="M1282.93 1528.17 Q1282.93 1529.07 1282.51 1529.3 Q1282.09 1529.49 1280.93 1529.49 L1274.75 1529.49 L1269.85 1548.94 Q1269.47 1550.65 1269.47 1552.1 Q1269.47 1553.71 1269.95 1554.42 Q1270.46 1555.13 1271.53 1555.13 Q1273.62 1555.13 1275.87 1553.23 Q1278.16 1551.33 1280.09 1546.69 Q1280.35 1546.08 1280.48 1545.95 Q1280.64 1545.79 1281.06 1545.79 Q1281.86 1545.79 1281.86 1546.43 Q1281.86 1546.66 1281.41 1547.69 Q1281 1548.72 1280.06 1550.23 Q1279.16 1551.75 1277.97 1553.16 Q1276.81 1554.58 1275.04 1555.61 Q1273.27 1556.61 1271.37 1556.61 Q1268.69 1556.61 1266.99 1554.9 Q1265.31 1553.19 1265.31 1550.52 Q1265.31 1549.65 1265.99 1546.88 Q1266.66 1544.08 1270.33 1529.49 L1264.51 1529.49 Q1263.7 1529.49 1263.38 1529.46 Q1263.09 1529.43 1262.86 1529.27 Q1262.67 1529.07 1262.67 1528.69 Q1262.67 1528.07 1262.93 1527.82 Q1263.19 1527.53 1263.51 1527.49 Q1263.86 1527.43 1264.67 1527.43 L1270.85 1527.43 L1273.43 1516.96 Q1273.68 1515.93 1274.33 1515.35 Q1275 1514.74 1275.39 1514.68 Q1275.78 1514.58 1276.07 1514.58 Q1276.94 1514.58 1277.45 1515.06 Q1277.97 1515.51 1277.97 1516.35 Q1277.97 1516.8 1275.26 1527.43 L1281.06 1527.43 Q1281.8 1527.43 1282.09 1527.46 Q1282.41 1527.49 1282.67 1527.66 Q1282.93 1527.82 1282.93 1528.17 Z" fill="#000000" fill-rule="evenodd" fill-opacity="1"></path><path clip-path="url(#clip740)" d="M1315.85 1546.43 Q1314.99 1550.59 1313.86 1552.97 Q1312.05 1556.61 1309 1556.61 Q1306.68 1556.61 1305.03 1555.19 Q1303.39 1553.77 1303 1551.65 Q1298.79 1556.61 1294.41 1556.61 Q1290.54 1556.61 1288.09 1553.68 Q1285.65 1550.71 1285.65 1546.04 Q1285.65 1541.34 1287.96 1536.83 Q1290.32 1532.33 1294.02 1529.52 Q1297.72 1526.72 1301.52 1526.72 Q1305.55 1526.72 1307.61 1530.94 Q1307.77 1529.78 1308.51 1528.91 Q1309.25 1528.04 1310.38 1528.04 Q1311.25 1528.04 1311.76 1528.53 Q1312.28 1528.98 1312.28 1529.81 Q1312.28 1530.23 1311.83 1532.07 L1309.45 1541.28 L1308 1547.24 Q1307.45 1549.43 1307.29 1550.23 Q1307.16 1551.04 1307.16 1552.1 Q1307.16 1555.13 1309.12 1555.13 Q1310.09 1555.13 1310.86 1554.52 Q1311.64 1553.9 1312.25 1552.61 Q1312.86 1551.33 1313.25 1550.14 Q1313.63 1548.91 1314.15 1546.98 Q1314.31 1546.21 1314.44 1546.01 Q1314.6 1545.79 1315.05 1545.79 Q1315.85 1545.79 1315.85 1546.43 M1306.81 1533.97 Q1306.81 1533.68 1306.58 1532.87 Q1306.35 1532.07 1305.84 1530.94 Q1305.32 1529.81 1304.2 1529.01 Q1303.1 1528.17 1301.62 1528.17 Q1299.62 1528.17 1297.53 1529.88 Q1295.47 1531.58 1293.95 1534.48 Q1292.8 1536.8 1291.54 1541.66 Q1290.32 1546.53 1290.32 1548.94 Q1290.32 1550.42 1290.64 1551.75 Q1290.99 1553.03 1291.99 1554.1 Q1292.99 1555.13 1294.53 1555.13 Q1298.3 1555.13 1302.01 1550.46 Q1302.71 1549.65 1302.88 1549.33 Q1303.07 1548.98 1303.33 1548.01 L1306.61 1535.09 Q1306.81 1534.13 1306.81 1533.97 Z" fill="#000000" fill-rule="evenodd" fill-opacity="1"></path><path clip-path="url(#clip740)" d="M1345.6 1548.23 Q1345.86 1548.52 1345.86 1548.81 Q1345.86 1549.1 1345.22 1549.94 Q1344.6 1550.78 1343.28 1551.91 Q1341.96 1553.03 1340.26 1554.1 Q1338.55 1555.16 1336.04 1555.87 Q1333.53 1556.61 1330.88 1556.61 Q1325.96 1556.61 1323.06 1553.36 Q1320.19 1550.1 1320.19 1545.43 Q1320.19 1540.89 1322.74 1536.54 Q1325.28 1532.16 1329.4 1529.46 Q1333.53 1526.72 1337.87 1526.72 Q1341.32 1526.72 1343.48 1528.33 Q1345.63 1529.94 1345.63 1532.39 Q1345.63 1534.29 1344.54 1535.45 Q1343.44 1536.61 1341.96 1536.61 Q1340.93 1536.61 1340.22 1536.03 Q1339.52 1535.42 1339.52 1534.29 Q1339.52 1532.84 1340.71 1531.71 Q1341.16 1531.26 1341.67 1531.07 Q1342.22 1530.84 1342.54 1530.84 Q1342.86 1530.81 1343.61 1530.81 Q1342.93 1529.56 1341.32 1528.88 Q1339.74 1528.17 1337.94 1528.17 Q1335.26 1528.17 1332.72 1530.04 Q1330.18 1531.87 1328.63 1534.77 Q1327.08 1537.61 1326.09 1541.63 Q1325.09 1545.63 1325.09 1547.95 Q1325.09 1551.13 1326.57 1553.13 Q1328.05 1555.13 1331.01 1555.13 Q1331.59 1555.13 1332.2 1555.09 Q1332.85 1555.06 1334.46 1554.71 Q1336.1 1554.35 1337.55 1553.74 Q1339 1553.13 1340.84 1551.81 Q1342.7 1550.46 1344.19 1548.62 Q1344.7 1547.95 1345.05 1547.95 Q1345.34 1547.95 1345.6 1548.23 Z" fill="#000000" fill-rule="evenodd" fill-opacity="1"></path><path clip-path="url(#clip740)" d="M1377.28 1530.88 Q1377.28 1532.71 1376.15 1533.81 Q1375.06 1534.9 1373.67 1534.9 Q1372.45 1534.9 1371.81 1534.19 Q1371.16 1533.48 1371.16 1532.58 Q1371.16 1532.2 1371.32 1531.71 Q1371.48 1531.2 1371.84 1530.59 Q1372.22 1529.97 1373.03 1529.52 Q1373.83 1529.07 1374.93 1529.01 Q1374.7 1528.78 1374.64 1528.75 Q1374.16 1528.36 1373.26 1528.24 Q1373.13 1528.17 1372.68 1528.17 Q1370.45 1528.17 1368.2 1529.81 Q1365.98 1531.42 1363.24 1534.48 Q1359.79 1538.06 1357.57 1539.38 Q1367.33 1540.67 1367.33 1546.3 Q1367.33 1547.24 1367.07 1548.36 Q1366.56 1550.49 1366.56 1552.04 Q1366.56 1555.13 1368.65 1555.13 Q1370.68 1555.13 1371.97 1553.07 Q1373.29 1551 1374.38 1546.98 Q1374.54 1546.24 1374.7 1546.01 Q1374.87 1545.79 1375.32 1545.79 Q1376.12 1545.79 1376.12 1546.43 Q1375.38 1550.2 1373.74 1553.1 Q1371.64 1556.61 1368.52 1556.61 Q1365.91 1556.61 1364.17 1554.8 Q1362.47 1552.97 1362.47 1550.07 Q1362.47 1549.36 1362.72 1547.75 Q1362.92 1547.11 1362.92 1546.37 Q1362.92 1544.85 1362.08 1543.73 Q1361.24 1542.57 1359.89 1541.99 Q1358.54 1541.41 1357.41 1541.15 Q1356.31 1540.86 1355.25 1540.76 Q1352.03 1554.39 1351.58 1555.22 Q1351.29 1555.8 1350.65 1556.19 Q1350 1556.61 1349.33 1556.61 Q1348.68 1556.61 1348.04 1556.16 Q1347.43 1555.74 1347.43 1554.74 Q1347.43 1554.23 1347.68 1553.29 L1357.25 1515.29 L1357.44 1514 Q1357.44 1513.61 1357.28 1513.42 Q1357.15 1513.2 1356.38 1513.03 Q1355.64 1512.87 1354.16 1512.87 Q1353.55 1512.87 1353.26 1512.84 Q1353 1512.81 1352.77 1512.65 Q1352.55 1512.45 1352.55 1512.07 Q1352.55 1511.52 1352.77 1511.23 Q1353.03 1510.91 1353.22 1510.84 Q1353.42 1510.78 1353.8 1510.75 Q1354.35 1510.72 1356.19 1510.55 Q1358.02 1510.36 1359.6 1510.23 Q1361.18 1510.1 1361.85 1510.1 Q1362.24 1510.1 1362.43 1510.3 Q1362.66 1510.46 1362.69 1510.65 L1362.72 1510.81 L1355.86 1538.64 Q1358.7 1537.51 1363.17 1532.52 Q1368.36 1526.72 1372.8 1526.72 Q1374.9 1526.72 1376.09 1528.01 Q1377.28 1529.27 1377.28 1530.88 Z" fill="#000000" fill-rule="evenodd" fill-opacity="1"></path><path clip-path="url(#clip740)" d="M1398.89 1539.38 Q1398.89 1528.24 1403.05 1519.25 Q1404.82 1515.48 1407.3 1512.33 Q1409.78 1509.17 1411.42 1507.78 Q1413.06 1506.4 1413.51 1506.4 Q1414.16 1506.4 1414.19 1507.04 Q1414.19 1507.37 1413.32 1508.17 Q1402.69 1518.99 1402.73 1539.38 Q1402.73 1559.83 1413.06 1570.23 Q1414.19 1571.36 1414.19 1571.71 Q1414.19 1572.36 1413.51 1572.36 Q1413.06 1572.36 1411.49 1571.04 Q1409.91 1569.72 1407.46 1566.69 Q1405.01 1563.66 1403.24 1559.96 Q1398.89 1550.97 1398.89 1539.38 Z" fill="#000000" fill-rule="evenodd" fill-opacity="1"></path><path clip-path="url(#clip740)" d="M1457.27 1530.62 Q1457.2 1530.94 1457.07 1531.52 Q1456.94 1532.07 1456.36 1533.81 Q1455.78 1535.55 1455.01 1537.32 Q1454.27 1539.06 1452.82 1541.5 Q1451.4 1543.92 1449.66 1546.11 Q1449.18 1546.69 1449.08 1547.04 Q1449.02 1547.37 1449.02 1548.43 Q1449.02 1555.13 1451.05 1555.13 Q1451.15 1555.13 1451.31 1555.13 Q1451.5 1555.09 1451.98 1554.93 Q1452.5 1554.74 1452.95 1554.45 Q1453.4 1554.13 1453.92 1553.48 Q1454.43 1552.81 1454.75 1551.91 Q1455.04 1551.26 1455.62 1551.26 Q1456.4 1551.26 1456.4 1551.91 Q1456.4 1553.07 1454.79 1554.84 Q1453.17 1556.61 1450.86 1556.61 Q1448.63 1556.61 1447.06 1555.16 Q1445.51 1553.68 1444.87 1551.04 Q1437.91 1556.61 1430.95 1556.61 Q1426.06 1556.61 1423.16 1553.42 Q1420.26 1550.2 1420.26 1545.43 Q1420.26 1540.86 1422.77 1536.51 Q1425.32 1532.16 1429.44 1529.46 Q1433.59 1526.72 1438.01 1526.72 Q1439.55 1526.72 1441.03 1527.14 Q1442.51 1527.53 1444 1528.53 Q1445.48 1529.52 1446.57 1531.04 Q1447.67 1532.55 1448.34 1534.93 Q1449.02 1537.32 1449.02 1540.31 L1449.02 1544.4 Q1453.27 1539.02 1455.49 1531.33 Q1455.82 1530.17 1456.01 1530.04 Q1456.14 1529.94 1456.46 1529.94 Q1456.78 1529.94 1456.98 1530.14 Q1457.2 1530.3 1457.23 1530.46 L1457.27 1530.62 M1444.61 1549.33 Q1444.48 1548.2 1444.48 1541.95 Q1444.48 1540.76 1444.48 1540.12 Q1444.48 1539.44 1444.41 1538.15 Q1444.35 1536.87 1444.22 1536.06 Q1444.13 1535.26 1443.9 1534.1 Q1443.67 1532.94 1443.35 1532.2 Q1443.03 1531.46 1442.51 1530.62 Q1442.03 1529.78 1441.39 1529.3 Q1440.78 1528.81 1439.87 1528.49 Q1439 1528.17 1437.94 1528.17 Q1436.62 1528.17 1435.24 1528.65 Q1433.88 1529.1 1432.14 1530.55 Q1430.41 1531.97 1428.96 1534.23 Q1427.44 1536.61 1426.28 1540.99 Q1425.16 1545.34 1425.16 1547.95 Q1425.16 1551.23 1426.67 1553.19 Q1428.18 1555.13 1431.08 1555.13 Q1438.01 1555.13 1444.61 1549.33 Z" fill="#000000" fill-rule="evenodd" fill-opacity="1"></path><path clip-path="url(#clip740)" d="M1463.63 1571.71 Q1463.63 1571.39 1464.47 1570.59 Q1475.1 1559.76 1475.1 1539.38 Q1475.1 1518.93 1464.89 1508.59 Q1463.63 1507.4 1463.63 1507.04 Q1463.63 1506.4 1464.28 1506.4 Q1464.73 1506.4 1466.3 1507.72 Q1467.91 1509.04 1470.33 1512.07 Q1472.78 1515.1 1474.58 1518.8 Q1478.93 1527.78 1478.93 1539.38 Q1478.93 1550.52 1474.77 1559.51 Q1473 1563.28 1470.52 1566.43 Q1468.04 1569.59 1466.4 1570.97 Q1464.76 1572.36 1464.28 1572.36 Q1463.63 1572.36 1463.63 1571.71 Z" fill="#000000" fill-rule="evenodd" fill-opacity="1"></path><path clip-path="url(#clip740)" d="M1506.39 1572.36 L1506.39 1506.4 L1516.34 1506.4 L1516.34 1507.91 L1510.8 1507.91 L1510.8 1570.84 L1516.34 1570.84 L1516.34 1572.36 L1506.39 1572.36 Z" fill="#000000" fill-rule="evenodd" fill-opacity="1"></path><path clip-path="url(#clip740)" d="M1550.4 1510.81 L1540.9 1548.94 Q1540.51 1550.65 1540.51 1552.1 Q1540.51 1555.13 1542.47 1555.13 Q1543.44 1555.13 1544.21 1554.52 Q1544.99 1553.9 1545.6 1552.61 Q1546.21 1551.33 1546.6 1550.14 Q1546.98 1548.91 1547.5 1546.98 Q1547.66 1546.21 1547.79 1546.01 Q1547.95 1545.79 1548.4 1545.79 Q1549.21 1545.79 1549.21 1546.43 Q1548.34 1550.59 1547.21 1552.97 Q1545.41 1556.61 1542.35 1556.61 Q1540.03 1556.61 1538.38 1555.19 Q1536.74 1553.77 1536.36 1551.65 Q1532.14 1556.61 1527.76 1556.61 Q1523.89 1556.61 1521.44 1553.68 Q1519 1550.71 1519 1546.04 Q1519 1541.34 1521.32 1536.83 Q1523.67 1532.33 1527.37 1529.52 Q1531.07 1526.72 1534.87 1526.72 Q1538.9 1526.72 1540.96 1530.94 L1544.92 1515.29 L1545.12 1514 Q1545.12 1513.61 1544.95 1513.42 Q1544.83 1513.2 1544.05 1513.03 Q1543.31 1512.87 1541.83 1512.87 Q1541.22 1512.87 1540.93 1512.84 Q1540.67 1512.81 1540.45 1512.65 Q1540.22 1512.45 1540.22 1512.07 Q1540.22 1510.94 1541.15 1510.81 Q1547.34 1510.1 1549.53 1510.1 Q1549.91 1510.1 1550.14 1510.3 Q1550.37 1510.46 1550.37 1510.65 L1550.4 1510.81 M1540.16 1533.97 Q1540.16 1533.68 1539.93 1532.87 Q1539.7 1532.07 1539.19 1530.94 Q1538.67 1529.81 1537.55 1529.01 Q1536.45 1528.17 1534.97 1528.17 Q1532.97 1528.17 1530.88 1529.88 Q1528.82 1531.58 1527.31 1534.48 Q1526.15 1536.8 1524.89 1541.66 Q1523.67 1546.53 1523.67 1548.94 Q1523.67 1550.42 1523.99 1551.75 Q1524.34 1553.03 1525.34 1554.1 Q1526.34 1555.13 1527.89 1555.13 Q1531.65 1555.13 1535.36 1550.46 Q1536.07 1549.65 1536.23 1549.33 Q1536.42 1548.98 1536.68 1548.01 L1539.96 1535.09 Q1540.16 1534.13 1540.16 1533.97 Z" fill="#000000" fill-rule="evenodd" fill-opacity="1"></path><path clip-path="url(#clip740)" d="M1578.29 1548.23 Q1578.55 1548.52 1578.55 1548.81 Q1578.55 1549.1 1577.9 1549.94 Q1577.29 1550.78 1575.97 1551.91 Q1574.65 1553.03 1572.94 1554.1 Q1571.24 1555.16 1568.72 1555.87 Q1566.21 1556.61 1563.57 1556.61 Q1558.84 1556.61 1556 1553.23 Q1553.2 1549.85 1553.2 1544.66 Q1553.2 1541.34 1554.3 1538.41 Q1555.39 1535.45 1557.16 1533.36 Q1558.97 1531.26 1561.22 1529.75 Q1563.51 1528.2 1565.89 1527.46 Q1568.27 1526.72 1570.5 1526.72 Q1573.75 1526.72 1575.65 1528.36 Q1577.55 1530.01 1577.55 1532.33 Q1577.55 1532.87 1577.39 1533.55 Q1577.26 1534.23 1576.81 1535.29 Q1576.39 1536.35 1575.29 1537.41 Q1574.2 1538.44 1572.59 1539.12 Q1569.01 1540.63 1562.51 1540.63 L1559 1540.63 Q1557.97 1544.79 1557.97 1547.49 Q1557.97 1548.56 1558.16 1549.65 Q1558.35 1550.71 1558.87 1552.07 Q1559.42 1553.42 1560.64 1554.29 Q1561.9 1555.13 1563.7 1555.13 Q1564.28 1555.13 1564.89 1555.09 Q1565.54 1555.06 1567.15 1554.71 Q1568.79 1554.35 1570.24 1553.74 Q1571.69 1553.13 1573.52 1551.81 Q1575.39 1550.46 1576.87 1548.62 Q1577.39 1547.95 1577.74 1547.95 Q1578.03 1547.95 1578.29 1548.23 M1575.36 1532.33 Q1575.36 1530.55 1574.04 1529.36 Q1572.75 1528.17 1570.5 1528.17 Q1569.79 1528.17 1568.92 1528.33 Q1568.05 1528.49 1566.6 1529.17 Q1565.18 1529.85 1563.93 1530.97 Q1562.67 1532.07 1561.41 1534.23 Q1560.16 1536.35 1559.42 1539.19 L1562.12 1539.19 Q1563.06 1539.19 1563.73 1539.19 Q1564.41 1539.15 1565.89 1539.02 Q1567.4 1538.9 1568.5 1538.67 Q1569.59 1538.41 1570.98 1537.9 Q1572.36 1537.38 1573.23 1536.71 Q1574.13 1536 1574.75 1534.87 Q1575.36 1533.74 1575.36 1532.33 Z" fill="#000000" fill-rule="evenodd" fill-opacity="1"></path><path clip-path="url(#clip740)" d="M1611.53 1529.81 Q1611.53 1529.85 1611.34 1531 L1603.99 1560.28 Q1603.61 1561.83 1602.51 1563.37 Q1601.45 1564.95 1599.74 1566.3 Q1598.07 1567.69 1595.49 1568.52 Q1592.95 1569.39 1590.02 1569.39 Q1585.35 1569.39 1583.28 1568.4 Q1581.26 1567.43 1581.26 1565.37 Q1581.26 1563.56 1582.38 1562.53 Q1583.51 1561.54 1584.8 1561.54 Q1586.02 1561.54 1586.67 1562.24 Q1587.31 1562.95 1587.31 1563.85 Q1587.31 1564.85 1586.63 1565.85 Q1585.96 1566.88 1584.61 1567.27 Q1586.76 1567.94 1589.89 1567.94 Q1596.49 1567.94 1599.32 1560.96 Q1599.39 1560.86 1599.39 1560.83 L1601.58 1552.1 L1601.48 1552.04 Q1600.93 1552.68 1600.06 1553.42 Q1599.23 1554.13 1597.42 1555 Q1595.62 1555.87 1593.85 1555.87 Q1590.14 1555.87 1587.6 1553.03 Q1585.09 1550.17 1585.09 1545.43 Q1585.09 1541.99 1586.47 1538.54 Q1587.89 1535.06 1590.08 1532.52 Q1592.3 1529.94 1595.14 1528.33 Q1598 1526.72 1600.77 1526.72 Q1602.7 1526.72 1604.35 1527.88 Q1605.99 1529.01 1606.89 1530.88 Q1607.05 1529.33 1607.92 1528.69 Q1608.82 1528.04 1609.6 1528.04 Q1610.47 1528.04 1610.98 1528.53 Q1611.53 1528.98 1611.53 1529.81 M1606.12 1533.84 Q1606.12 1533.65 1605.99 1533.13 Q1605.86 1532.58 1605.47 1531.71 Q1605.12 1530.84 1604.57 1530.07 Q1604.03 1529.3 1603.03 1528.75 Q1602.06 1528.17 1600.84 1528.17 Q1598.84 1528.17 1596.84 1529.85 Q1594.85 1531.49 1593.46 1534.03 Q1592.17 1536.48 1590.95 1541.21 Q1589.76 1545.95 1589.76 1548.36 Q1589.76 1550.75 1590.79 1552.58 Q1591.82 1554.42 1594.04 1554.42 Q1596.62 1554.42 1599.39 1552.04 Q1602.25 1549.56 1602.74 1547.43 L1605.93 1534.84 Q1606.12 1534.06 1606.12 1533.84 Z" fill="#000000" fill-rule="evenodd" fill-opacity="1"></path><path clip-path="url(#clip740)" d="M1615.29 1570.84 L1620.83 1570.84 L1620.83 1507.91 L1615.29 1507.91 L1615.29 1506.4 L1625.24 1506.4 L1625.24 1572.36 L1615.29 1572.36 L1615.29 1570.84 Z" fill="#000000" fill-rule="evenodd" fill-opacity="1"></path><polyline clip-path="url(#clip742)" style="stroke:#000000; stroke-linecap:round; stroke-linejoin:round; stroke-width:2; stroke-opacity:0.1; fill:none" points="
  205.121,1198.75 2352.76,1198.75 
  "></polyline>
<polyline clip-path="url(#clip742)" style="stroke:#000000; stroke-linecap:round; stroke-linejoin:round; stroke-width:2; stroke-opacity:0.1; fill:none" points="
  205.121,965.752 2352.76,965.752 
  "></polyline>
<polyline clip-path="url(#clip742)" style="stroke:#000000; stroke-linecap:round; stroke-linejoin:round; stroke-width:2; stroke-opacity:0.1; fill:none" points="
  205.121,732.755 2352.76,732.755 
  "></polyline>
<polyline clip-path="url(#clip742)" style="stroke:#000000; stroke-linecap:round; stroke-linejoin:round; stroke-width:2; stroke-opacity:0.1; fill:none" points="
  205.121,499.757 2352.76,499.757 
  "></polyline>
<polyline clip-path="url(#clip742)" style="stroke:#000000; stroke-linecap:round; stroke-linejoin:round; stroke-width:2; stroke-opacity:0.1; fill:none" points="
  205.121,266.759 2352.76,266.759 
  "></polyline>
<polyline clip-path="url(#clip740)" style="stroke:#000000; stroke-linecap:round; stroke-linejoin:round; stroke-width:4; stroke-opacity:1; fill:none" points="
  205.121,1423.18 205.121,47.2441 
  "></polyline>
<polyline clip-path="url(#clip740)" style="stroke:#000000; stroke-linecap:round; stroke-linejoin:round; stroke-width:4; stroke-opacity:1; fill:none" points="
  205.121,1198.75 224.019,1198.75 
  "></polyline>
<polyline clip-path="url(#clip740)" style="stroke:#000000; stroke-linecap:round; stroke-linejoin:round; stroke-width:4; stroke-opacity:1; fill:none" points="
  205.121,965.752 224.019,965.752 
  "></polyline>
<polyline clip-path="url(#clip740)" style="stroke:#000000; stroke-linecap:round; stroke-linejoin:round; stroke-width:4; stroke-opacity:1; fill:none" points="
  205.121,732.755 224.019,732.755 
  "></polyline>
<polyline clip-path="url(#clip740)" style="stroke:#000000; stroke-linecap:round; stroke-linejoin:round; stroke-width:4; stroke-opacity:1; fill:none" points="
  205.121,499.757 224.019,499.757 
  "></polyline>
<polyline clip-path="url(#clip740)" style="stroke:#000000; stroke-linecap:round; stroke-linejoin:round; stroke-width:4; stroke-opacity:1; fill:none" points="
  205.121,266.759 224.019,266.759 
  "></polyline>
<path clip-path="url(#clip740)" d="M157.177 1184.55 Q153.566 1184.55 151.737 1188.11 Q149.931 1191.66 149.931 1198.78 Q149.931 1205.89 151.737 1209.46 Q153.566 1213 157.177 1213 Q160.811 1213 162.616 1209.46 Q164.445 1205.89 164.445 1198.78 Q164.445 1191.66 162.616 1188.11 Q160.811 1184.55 157.177 1184.55 M157.177 1180.85 Q162.987 1180.85 166.042 1185.45 Q169.121 1190.03 169.121 1198.78 Q169.121 1207.51 166.042 1212.12 Q162.987 1216.7 157.177 1216.7 Q151.366 1216.7 148.288 1212.12 Q145.232 1207.51 145.232 1198.78 Q145.232 1190.03 148.288 1185.45 Q151.366 1180.85 157.177 1180.85 Z" fill="#000000" fill-rule="evenodd" fill-opacity="1"></path><path clip-path="url(#clip740)" d="M117.825 979.097 L125.464 979.097 L125.464 952.732 L117.154 954.398 L117.154 950.139 L125.418 948.472 L130.093 948.472 L130.093 979.097 L137.732 979.097 L137.732 983.032 L117.825 983.032 L117.825 979.097 Z" fill="#000000" fill-rule="evenodd" fill-opacity="1"></path><path clip-path="url(#clip740)" d="M157.177 951.551 Q153.566 951.551 151.737 955.116 Q149.931 958.658 149.931 965.787 Q149.931 972.894 151.737 976.458 Q153.566 980 157.177 980 Q160.811 980 162.616 976.458 Q164.445 972.894 164.445 965.787 Q164.445 958.658 162.616 955.116 Q160.811 951.551 157.177 951.551 M157.177 947.847 Q162.987 947.847 166.042 952.454 Q169.121 957.037 169.121 965.787 Q169.121 974.514 166.042 979.12 Q162.987 983.704 157.177 983.704 Q151.366 983.704 148.288 979.12 Q145.232 974.514 145.232 965.787 Q145.232 957.037 148.288 952.454 Q151.366 947.847 157.177 947.847 Z" fill="#000000" fill-rule="evenodd" fill-opacity="1"></path><path clip-path="url(#clip740)" d="M121.043 746.099 L137.362 746.099 L137.362 750.035 L115.418 750.035 L115.418 746.099 Q118.08 743.345 122.663 738.715 Q127.269 734.062 128.45 732.72 Q130.695 730.197 131.575 728.461 Q132.478 726.701 132.478 725.012 Q132.478 722.257 130.533 720.521 Q128.612 718.785 125.51 718.785 Q123.311 718.785 120.857 719.549 Q118.427 720.313 115.649 721.863 L115.649 717.141 Q118.473 716.007 120.927 715.428 Q123.38 714.85 125.418 714.85 Q130.788 714.85 133.982 717.535 Q137.177 720.22 137.177 724.711 Q137.177 726.84 136.367 728.762 Q135.579 730.66 133.473 733.252 Q132.894 733.924 129.792 737.141 Q126.691 740.336 121.043 746.099 Z" fill="#000000" fill-rule="evenodd" fill-opacity="1"></path><path clip-path="url(#clip740)" d="M157.177 718.553 Q153.566 718.553 151.737 722.118 Q149.931 725.66 149.931 732.789 Q149.931 739.896 151.737 743.461 Q153.566 747.002 157.177 747.002 Q160.811 747.002 162.616 743.461 Q164.445 739.896 164.445 732.789 Q164.445 725.66 162.616 722.118 Q160.811 718.553 157.177 718.553 M157.177 714.85 Q162.987 714.85 166.042 719.456 Q169.121 724.039 169.121 732.789 Q169.121 741.516 166.042 746.123 Q162.987 750.706 157.177 750.706 Q151.366 750.706 148.288 746.123 Q145.232 741.516 145.232 732.789 Q145.232 724.039 148.288 719.456 Q151.366 714.85 157.177 714.85 Z" fill="#000000" fill-rule="evenodd" fill-opacity="1"></path><path clip-path="url(#clip740)" d="M131.181 498.403 Q134.538 499.12 136.413 501.389 Q138.311 503.657 138.311 506.991 Q138.311 512.106 134.792 514.907 Q131.274 517.708 124.793 517.708 Q122.617 517.708 120.302 517.268 Q118.01 516.852 115.556 515.995 L115.556 511.481 Q117.501 512.615 119.816 513.194 Q122.13 513.773 124.654 513.773 Q129.052 513.773 131.343 512.037 Q133.658 510.301 133.658 506.991 Q133.658 503.935 131.505 502.222 Q129.376 500.486 125.556 500.486 L121.529 500.486 L121.529 496.643 L125.742 496.643 Q129.191 496.643 131.019 495.278 Q132.848 493.889 132.848 491.296 Q132.848 488.634 130.95 487.222 Q129.075 485.787 125.556 485.787 Q123.635 485.787 121.436 486.204 Q119.237 486.62 116.598 487.5 L116.598 483.333 Q119.26 482.593 121.575 482.222 Q123.913 481.852 125.973 481.852 Q131.297 481.852 134.399 484.282 Q137.501 486.69 137.501 490.81 Q137.501 493.68 135.857 495.671 Q134.214 497.639 131.181 498.403 Z" fill="#000000" fill-rule="evenodd" fill-opacity="1"></path><path clip-path="url(#clip740)" d="M157.177 485.555 Q153.566 485.555 151.737 489.12 Q149.931 492.662 149.931 499.791 Q149.931 506.898 151.737 510.463 Q153.566 514.004 157.177 514.004 Q160.811 514.004 162.616 510.463 Q164.445 506.898 164.445 499.791 Q164.445 492.662 162.616 489.12 Q160.811 485.555 157.177 485.555 M157.177 481.852 Q162.987 481.852 166.042 486.458 Q169.121 491.042 169.121 499.791 Q169.121 508.518 166.042 513.125 Q162.987 517.708 157.177 517.708 Q151.366 517.708 148.288 513.125 Q145.232 508.518 145.232 499.791 Q145.232 491.042 148.288 486.458 Q151.366 481.852 157.177 481.852 Z" fill="#000000" fill-rule="evenodd" fill-opacity="1"></path><path clip-path="url(#clip740)" d="M129.862 253.553 L118.056 272.002 L129.862 272.002 L129.862 253.553 M128.635 249.479 L134.515 249.479 L134.515 272.002 L139.445 272.002 L139.445 275.891 L134.515 275.891 L134.515 284.039 L129.862 284.039 L129.862 275.891 L114.26 275.891 L114.26 271.377 L128.635 249.479 Z" fill="#000000" fill-rule="evenodd" fill-opacity="1"></path><path clip-path="url(#clip740)" d="M157.177 252.558 Q153.566 252.558 151.737 256.122 Q149.931 259.664 149.931 266.794 Q149.931 273.9 151.737 277.465 Q153.566 281.007 157.177 281.007 Q160.811 281.007 162.616 277.465 Q164.445 273.9 164.445 266.794 Q164.445 259.664 162.616 256.122 Q160.811 252.558 157.177 252.558 M157.177 248.854 Q162.987 248.854 166.042 253.46 Q169.121 258.044 169.121 266.794 Q169.121 275.52 166.042 280.127 Q162.987 284.71 157.177 284.71 Q151.366 284.71 148.288 280.127 Q145.232 275.52 145.232 266.794 Q145.232 258.044 148.288 253.46 Q151.366 248.854 157.177 248.854 Z" fill="#000000" fill-rule="evenodd" fill-opacity="1"></path><path clip-path="url(#clip740)" d="M47.6688 871.813 Q36.5255 871.813 27.5401 867.659 Q23.772 865.888 20.6158 863.408 Q17.4597 860.928 16.0748 859.285 Q14.69 857.643 14.69 857.192 Q14.69 856.548 15.3341 856.516 Q15.6561 856.516 16.4613 857.385 Q27.2824 868.013 47.6688 867.981 Q68.1195 867.981 78.522 857.643 Q79.6492 856.516 80.0034 856.516 Q80.6476 856.516 80.6476 857.192 Q80.6476 857.643 79.3271 859.221 Q78.0067 860.799 74.9793 863.247 Q71.952 865.694 68.2483 867.466 Q59.2629 871.813 47.6688 871.813 Z" fill="#000000" fill-rule="evenodd" fill-opacity="1"></path><path clip-path="url(#clip740)" d="M18.3292 799.659 L35.1407 803.813 Q36.2035 804.103 36.3323 804.296 Q36.4611 804.457 36.4611 804.973 Q36.4611 805.971 35.7848 805.971 Q35.7204 805.971 34.883 805.874 Q34.0135 805.778 32.4354 805.778 Q26.6061 805.778 23.1601 808.612 Q19.7141 811.414 19.7141 816.406 Q19.7141 820.721 21.9041 825.069 Q24.0941 829.385 27.6689 832.477 Q30.3742 834.795 33.788 836.502 Q37.2019 838.177 40.3258 838.982 Q43.4498 839.755 45.8008 840.109 Q48.1518 840.464 49.8588 840.464 Q52.3386 840.464 54.432 839.948 Q56.5254 839.401 58.0068 838.435 Q59.4561 837.468 60.5833 836.245 Q61.6783 834.989 62.3224 833.539 Q62.9665 832.058 63.2886 830.576 Q63.5785 829.095 63.5785 827.549 Q63.5785 821.333 58.7476 815.407 Q54.7863 810.705 48.3129 808.741 Q47.6688 808.58 47.6688 807.903 Q47.6688 807.098 48.3129 807.098 Q48.4417 807.098 49.0858 807.259 Q49.6977 807.42 50.9538 807.903 Q52.1776 808.387 53.5624 809.127 Q54.9473 809.868 56.6864 811.253 Q58.4255 812.638 59.9392 814.345 Q62.4512 817.243 64.0293 820.915 Q65.6074 824.586 65.6074 828.612 Q65.6074 833.636 63.3852 837.694 Q61.163 841.752 57.0085 844.135 Q52.8539 846.486 47.5399 846.486 Q41.9361 846.486 36.4289 843.91 Q30.9217 841.333 26.8316 837.243 Q22.7414 833.153 20.1972 827.742 Q17.6529 822.332 17.6529 816.921 Q17.6529 814.86 18.2004 813.024 Q18.7479 811.188 19.4242 810.093 Q20.1005 808.966 21.0989 807.968 Q22.0651 806.969 22.516 806.647 Q22.9669 806.293 23.5144 805.971 L18.458 801.366 Q17.6529 800.561 17.6529 800.367 Q17.6529 799.981 17.8783 799.82 Q18.1038 799.659 18.3292 799.659 Z" fill="#000000" fill-rule="evenodd" fill-opacity="1"></path><path clip-path="url(#clip740)" d="M72.9308 765.184 Q73.0661 765.184 73.5846 765.364 L83.5491 769.017 Q84.1353 769.219 84.248 769.422 Q84.3382 769.625 84.3382 770.459 L84.3382 791.831 Q84.3382 792.35 84.3156 792.553 Q84.2931 792.755 84.1803 792.913 Q84.0676 793.071 83.8196 793.071 Q83.3688 793.071 83.1659 792.913 Q82.963 792.733 82.9404 792.53 Q82.9179 792.327 82.9179 791.831 Q82.9179 790.704 82.8502 790.028 Q82.7826 789.351 82.6924 788.923 Q82.5797 788.472 82.2641 788.247 Q81.9485 787.999 81.678 787.886 Q81.3849 787.773 80.7311 787.615 L55.9326 781.438 Q55.1886 781.258 55.0759 781.258 Q54.6476 781.258 54.5349 781.528 Q54.3996 781.776 54.332 782.498 L54.2418 784.256 Q54.2418 784.797 54.2192 785.023 Q54.1967 785.226 54.084 785.384 Q53.9713 785.541 53.7233 785.541 Q53.2949 785.541 53.092 785.384 Q52.8666 785.203 52.844 785.068 Q52.799 784.91 52.799 784.662 L52.9342 778.53 L52.799 771.699 Q52.799 770.955 53.3626 770.955 Q53.9938 770.955 54.1291 771.271 Q54.2418 771.587 54.2418 772.714 Q54.2418 774.878 54.4672 775.87 Q54.6927 776.839 55.0759 777.11 Q55.4366 777.358 56.406 777.606 L81.3398 783.851 Q82.1739 784.076 82.3994 784.076 Q82.6473 784.076 82.7375 783.963 Q82.8052 783.828 82.8502 783.467 Q82.9179 783.061 82.9179 782.453 L82.9179 778.124 Q82.9179 776.817 82.715 775.667 Q82.5121 774.517 82.219 773.638 Q81.9259 772.736 81.3849 771.925 Q80.8438 771.113 80.3704 770.549 Q79.8744 769.963 79.1079 769.4 Q78.3189 768.814 77.7778 768.475 Q77.2142 768.115 76.3125 767.709 Q75.3881 767.303 74.8696 767.1 Q74.3286 766.875 73.4043 766.537 Q72.9308 766.334 72.7956 766.266 Q72.6603 766.198 72.5476 766.086 Q72.4349 765.951 72.4349 765.748 Q72.4349 765.477 72.5927 765.342 Q72.7505 765.184 72.9308 765.184 Z" fill="#000000" fill-rule="evenodd" fill-opacity="1"></path><path clip-path="url(#clip740)" d="M79.7136 754.905 Q79.3915 754.905 78.683 754.647 L16.4613 731.362 Q16.3969 731.362 16.0426 731.201 Q15.6883 731.04 15.4629 730.943 Q15.2052 730.847 15.012 730.653 Q14.8188 730.428 14.8188 730.17 Q14.8188 729.526 15.6239 729.526 Q15.6883 729.526 16.4613 729.72 L78.7474 753.069 Q79.8746 753.455 80.1967 753.713 Q80.5187 753.938 80.5187 754.325 Q80.5187 754.905 79.7136 754.905 Z" fill="#000000" fill-rule="evenodd" fill-opacity="1"></path><path clip-path="url(#clip740)" d="M18.3292 675.413 L35.1407 679.568 Q36.2035 679.858 36.3323 680.051 Q36.4611 680.212 36.4611 680.727 Q36.4611 681.725 35.7848 681.725 Q35.7204 681.725 34.883 681.629 Q34.0135 681.532 32.4354 681.532 Q26.6061 681.532 23.1601 684.366 Q19.7141 687.168 19.7141 692.16 Q19.7141 696.476 21.9041 700.824 Q24.0941 705.139 27.6689 708.231 Q30.3742 710.55 33.788 712.257 Q37.2019 713.931 40.3258 714.736 Q43.4498 715.509 45.8008 715.864 Q48.1518 716.218 49.8588 716.218 Q52.3386 716.218 54.432 715.703 Q56.5254 715.155 58.0068 714.189 Q59.4561 713.223 60.5833 711.999 Q61.6783 710.743 62.3224 709.294 Q62.9665 707.812 63.2886 706.331 Q63.5785 704.849 63.5785 703.303 Q63.5785 697.088 58.7476 691.162 Q54.7863 686.46 48.3129 684.495 Q47.6688 684.334 47.6688 683.658 Q47.6688 682.853 48.3129 682.853 Q48.4417 682.853 49.0858 683.014 Q49.6977 683.175 50.9538 683.658 Q52.1776 684.141 53.5624 684.882 Q54.9473 685.622 56.6864 687.007 Q58.4255 688.392 59.9392 690.099 Q62.4512 692.998 64.0293 696.669 Q65.6074 700.34 65.6074 704.366 Q65.6074 709.39 63.3852 713.448 Q61.163 717.506 57.0085 719.889 Q52.8539 722.24 47.5399 722.24 Q41.9361 722.24 36.4289 719.664 Q30.9217 717.088 26.8316 712.997 Q22.7414 708.907 20.1972 703.497 Q17.6529 698.086 17.6529 692.675 Q17.6529 690.614 18.2004 688.779 Q18.7479 686.943 19.4242 685.848 Q20.1005 684.721 21.0989 683.722 Q22.0651 682.724 22.516 682.402 Q22.9669 682.048 23.5144 681.725 L18.458 677.12 Q17.6529 676.315 17.6529 676.122 Q17.6529 675.735 17.8783 675.574 Q18.1038 675.413 18.3292 675.413 Z" fill="#000000" fill-rule="evenodd" fill-opacity="1"></path><path clip-path="url(#clip740)" d="M64.4768 633.544 Q68.1966 633.544 71.8487 635.145 Q75.4783 636.723 78.2287 639.293 Q80.9565 641.84 82.6473 645.289 Q84.3382 648.739 84.3382 652.256 L84.3382 667.54 Q84.3382 668.081 84.3156 668.307 Q84.2931 668.51 84.1803 668.668 Q84.0451 668.825 83.7746 668.825 Q83.3462 668.825 83.1659 668.645 Q82.963 668.465 82.9404 668.262 Q82.9179 668.059 82.9179 667.54 Q82.9179 666.413 82.8502 665.737 Q82.7826 665.061 82.6924 664.632 Q82.5797 664.181 82.2641 663.956 Q81.9485 663.708 81.678 663.595 Q81.3849 663.482 80.7311 663.325 L55.9326 657.148 Q55.1886 656.967 55.0759 656.967 Q54.6927 656.967 54.5574 657.193 Q54.3996 657.396 54.332 657.982 Q54.2418 659.109 54.2418 659.966 Q54.2418 660.529 54.2192 660.755 Q54.1967 660.958 54.084 661.138 Q53.9487 661.296 53.6782 661.296 Q53.2498 661.296 53.0695 661.115 Q52.8666 660.912 52.844 660.687 Q52.799 660.462 52.799 659.921 L52.799 644.41 Q52.799 641.051 54.377 638.549 Q55.9326 636.046 58.5702 634.806 Q61.1854 633.544 64.4768 633.544 M62.786 637.579 Q58.4801 637.579 56.3609 639.924 Q54.2418 642.246 54.2418 645.921 L54.2418 650.858 Q54.2418 652.323 54.5123 652.684 Q54.7603 653.045 56.0002 653.36 L81.3398 659.695 Q82.1739 659.921 82.3994 659.921 Q82.6473 659.921 82.7375 659.808 Q82.8052 659.673 82.8502 659.312 Q82.9179 658.906 82.9179 658.297 L82.9179 653.09 Q82.9179 651.083 82.3768 649.257 Q81.8132 647.409 80.934 646.078 Q80.0322 644.748 79.2657 643.892 Q78.4767 643.035 77.6876 642.426 Q75.9067 641.051 73.5846 640.037 Q71.2626 639 69.1434 638.526 Q67.0017 638.03 65.4237 637.805 Q63.823 637.579 62.786 637.579 Z" fill="#000000" fill-rule="evenodd" fill-opacity="1"></path><path clip-path="url(#clip740)" d="M80.0034 623.938 Q79.6814 623.938 78.8762 623.101 Q68.0551 612.473 47.6688 612.473 Q27.218 612.473 16.88 622.682 Q15.6883 623.938 15.3341 623.938 Q14.69 623.938 14.69 623.294 Q14.69 622.843 16.0104 621.265 Q17.3308 619.654 20.3582 617.239 Q23.3855 614.791 27.0892 612.988 Q36.0746 608.64 47.6688 608.64 Q58.812 608.64 67.7974 612.795 Q71.5655 614.566 74.7217 617.046 Q77.8779 619.526 79.2627 621.168 Q80.6476 622.811 80.6476 623.294 Q80.6476 623.938 80.0034 623.938 Z" fill="#000000" fill-rule="evenodd" fill-opacity="1"></path><polyline clip-path="url(#clip742)" style="stroke:#009af9; stroke-linecap:round; stroke-linejoin:round; stroke-width:4; stroke-opacity:1; fill:none" points="
  265.903,1341.37 671.117,780.81 1076.33,470.996 1481.55,684.699 1643.63,794.281 1886.76,952.464 2048.85,1045.03 2291.97,1095.63 
  "></polyline>
<polyline clip-path="url(#clip742)" style="stroke:#e26f46; stroke-linecap:round; stroke-linejoin:round; stroke-width:4; stroke-opacity:1; fill:none" points="
  265.903,1353.11 671.117,712.367 1076.33,363.599 1481.55,627.542 1643.63,754.598 1886.76,935.9 2048.85,1038.29 2291.97,1092.9 
  "></polyline>
<polyline clip-path="url(#clip742)" style="stroke:#3da44d; stroke-linecap:round; stroke-linejoin:round; stroke-width:4; stroke-opacity:1; fill:none" points="
  265.903,1360.94 671.117,658.851 1076.33,285.69 1481.55,596.232 1643.63,731.662 1886.76,927.162 2048.85,1034.29 2291.97,1091.35 
  "></polyline>
<polyline clip-path="url(#clip742)" style="stroke:#c271d2; stroke-linecap:round; stroke-linejoin:round; stroke-width:4; stroke-opacity:1; fill:none" points="
  265.903,1384.24 671.117,537.619 1076.33,86.1857 1481.55,514.319 1643.63,685.427 1886.76,910.233 2048.85,1029.83 2291.97,1091.81 
  "></polyline>
<path clip-path="url(#clip740)" d="
M1748.63 352.309 L2281.17 352.309 L2281.17 93.1086 L1748.63 93.1086  Z
  " fill="#ffffff" fill-rule="evenodd" fill-opacity="1"></path>
<polyline clip-path="url(#clip740)" style="stroke:#000000; stroke-linecap:round; stroke-linejoin:round; stroke-width:4; stroke-opacity:1; fill:none" points="
  1748.63,352.309 2281.17,352.309 2281.17,93.1086 1748.63,93.1086 1748.63,352.309 
  "></polyline>
<polyline clip-path="url(#clip740)" style="stroke:#009af9; stroke-linecap:round; stroke-linejoin:round; stroke-width:4; stroke-opacity:1; fill:none" points="
  1772.49,144.949 1915.67,144.949 
  "></polyline>
<path clip-path="url(#clip740)" d="M1955.92 146.025 Q1957.42 146.534 1958.83 148.201 Q1960.27 149.868 1961.71 152.784 L1966.45 162.229 L1961.43 162.229 L1957.01 153.363 Q1955.29 149.891 1953.67 148.756 Q1952.08 147.622 1949.3 147.622 L1944.21 147.622 L1944.21 162.229 L1939.53 162.229 L1939.53 127.669 L1950.08 127.669 Q1956.01 127.669 1958.93 130.145 Q1961.84 132.622 1961.84 137.622 Q1961.84 140.886 1960.32 143.039 Q1958.81 145.192 1955.92 146.025 M1944.21 131.511 L1944.21 143.78 L1950.08 143.78 Q1953.46 143.78 1955.18 142.229 Q1956.91 140.655 1956.91 137.622 Q1956.91 134.59 1955.18 133.062 Q1953.46 131.511 1950.08 131.511 L1944.21 131.511 Z" fill="#000000" fill-rule="evenodd" fill-opacity="1"></path><path clip-path="url(#clip740)" d="M1992.33 148.201 L1992.33 150.284 L1972.75 150.284 Q1973.02 154.682 1975.39 156.997 Q1977.77 159.289 1982.01 159.289 Q1984.46 159.289 1986.75 158.687 Q1989.07 158.085 1991.33 156.881 L1991.33 160.909 Q1989.04 161.881 1986.64 162.391 Q1984.23 162.9 1981.75 162.9 Q1975.55 162.9 1971.91 159.289 Q1968.3 155.678 1968.3 149.52 Q1968.3 143.155 1971.73 139.428 Q1975.18 135.678 1981.01 135.678 Q1986.24 135.678 1989.27 139.057 Q1992.33 142.414 1992.33 148.201 M1988.07 146.951 Q1988.02 143.456 1986.1 141.372 Q1984.21 139.289 1981.06 139.289 Q1977.49 139.289 1975.34 141.303 Q1973.21 143.317 1972.89 146.974 L1988.07 146.951 Z" fill="#000000" fill-rule="evenodd" fill-opacity="1"></path><path clip-path="url(#clip740)" d="M2000.41 156.349 L2005.29 156.349 L2005.29 162.229 L2000.41 162.229 L2000.41 156.349 M2000.41 137.715 L2005.29 137.715 L2005.29 143.594 L2000.41 143.594 L2000.41 137.715 Z" fill="#000000" fill-rule="evenodd" fill-opacity="1"></path><path clip-path="url(#clip740)" d="M2031.77 158.293 L2039.41 158.293 L2039.41 131.928 L2031.1 133.595 L2031.1 129.335 L2039.37 127.669 L2044.04 127.669 L2044.04 158.293 L2051.68 158.293 L2051.68 162.229 L2031.77 162.229 L2031.77 158.293 Z" fill="#000000" fill-rule="evenodd" fill-opacity="1"></path><path clip-path="url(#clip740)" d="M2061.13 156.349 L2066.01 156.349 L2066.01 162.229 L2061.13 162.229 L2061.13 156.349 Z" fill="#000000" fill-rule="evenodd" fill-opacity="1"></path><path clip-path="url(#clip740)" d="M2086.2 130.747 Q2082.58 130.747 2080.76 134.312 Q2078.95 137.854 2078.95 144.983 Q2078.95 152.09 2080.76 155.655 Q2082.58 159.196 2086.2 159.196 Q2089.83 159.196 2091.64 155.655 Q2093.46 152.09 2093.46 144.983 Q2093.46 137.854 2091.64 134.312 Q2089.83 130.747 2086.2 130.747 M2086.2 127.044 Q2092.01 127.044 2095.06 131.65 Q2098.14 136.233 2098.14 144.983 Q2098.14 153.71 2095.06 158.317 Q2092.01 162.9 2086.2 162.9 Q2080.39 162.9 2077.31 158.317 Q2074.25 153.71 2074.25 144.983 Q2074.25 136.233 2077.31 131.65 Q2080.39 127.044 2086.2 127.044 Z" fill="#000000" fill-rule="evenodd" fill-opacity="1"></path><path clip-path="url(#clip740)" d="M2106.5 161.511 L2106.5 157.252 Q2108.26 158.085 2110.06 158.525 Q2111.87 158.965 2113.6 158.965 Q2118.23 158.965 2120.66 155.863 Q2123.12 152.738 2123.46 146.395 Q2122.12 148.386 2120.06 149.451 Q2118 150.516 2115.5 150.516 Q2110.32 150.516 2107.28 147.391 Q2104.27 144.243 2104.27 138.803 Q2104.27 133.479 2107.42 130.261 Q2110.57 127.044 2115.8 127.044 Q2121.8 127.044 2124.95 131.65 Q2128.12 136.233 2128.12 144.983 Q2128.12 153.155 2124.23 158.039 Q2120.36 162.9 2113.81 162.9 Q2112.05 162.9 2110.25 162.553 Q2108.44 162.205 2106.5 161.511 M2115.8 146.858 Q2118.95 146.858 2120.78 144.706 Q2122.63 142.553 2122.63 138.803 Q2122.63 135.076 2120.78 132.923 Q2118.95 130.747 2115.8 130.747 Q2112.65 130.747 2110.8 132.923 Q2108.97 135.076 2108.97 138.803 Q2108.97 142.553 2110.8 144.706 Q2112.65 146.858 2115.8 146.858 Z" fill="#000000" fill-rule="evenodd" fill-opacity="1"></path><path clip-path="url(#clip740)" d="M2136.1 127.669 L2157.95 127.669 L2157.95 131.604 L2140.78 131.604 L2140.78 141.835 L2157.24 141.835 L2157.24 145.77 L2140.78 145.77 L2140.78 158.293 L2158.37 158.293 L2158.37 162.229 L2136.1 162.229 L2136.1 127.669 Z" fill="#000000" fill-rule="evenodd" fill-opacity="1"></path><path clip-path="url(#clip740)" d="M2183.21 132.507 L2183.21 145.4 L2196.1 145.4 L2196.1 149.335 L2183.21 149.335 L2183.21 162.229 L2179.32 162.229 L2179.32 149.335 L2166.43 149.335 L2166.43 145.4 L2179.32 145.4 L2179.32 132.507 L2183.21 132.507 Z" fill="#000000" fill-rule="evenodd" fill-opacity="1"></path><path clip-path="url(#clip740)" d="M2216.19 130.747 Q2212.58 130.747 2210.75 134.312 Q2208.95 137.854 2208.95 144.983 Q2208.95 152.09 2210.75 155.655 Q2212.58 159.196 2216.19 159.196 Q2219.83 159.196 2221.63 155.655 Q2223.46 152.09 2223.46 144.983 Q2223.46 137.854 2221.63 134.312 Q2219.83 130.747 2216.19 130.747 M2216.19 127.044 Q2222 127.044 2225.06 131.65 Q2228.14 136.233 2228.14 144.983 Q2228.14 153.71 2225.06 158.317 Q2222 162.9 2216.19 162.9 Q2210.38 162.9 2207.31 158.317 Q2204.25 153.71 2204.25 144.983 Q2204.25 136.233 2207.31 131.65 Q2210.38 127.044 2216.19 127.044 Z" fill="#000000" fill-rule="evenodd" fill-opacity="1"></path><path clip-path="url(#clip740)" d="M2236.4 127.669 L2254.76 127.669 L2254.76 131.604 L2240.69 131.604 L2240.69 140.076 Q2241.7 139.729 2242.72 139.567 Q2243.74 139.382 2244.76 139.382 Q2250.55 139.382 2253.93 142.553 Q2257.31 145.724 2257.31 151.141 Q2257.31 156.719 2253.83 159.821 Q2250.36 162.9 2244.04 162.9 Q2241.87 162.9 2239.6 162.53 Q2237.35 162.159 2234.94 161.418 L2234.94 156.719 Q2237.03 157.854 2239.25 158.409 Q2241.47 158.965 2243.95 158.965 Q2247.95 158.965 2250.29 156.858 Q2252.63 154.752 2252.63 151.141 Q2252.63 147.53 2250.29 145.423 Q2247.95 143.317 2243.95 143.317 Q2242.07 143.317 2240.2 143.733 Q2238.35 144.15 2236.4 145.03 L2236.4 127.669 Z" fill="#000000" fill-rule="evenodd" fill-opacity="1"></path><polyline clip-path="url(#clip740)" style="stroke:#e26f46; stroke-linecap:round; stroke-linejoin:round; stroke-width:4; stroke-opacity:1; fill:none" points="
  1772.49,196.789 1915.67,196.789 
  "></polyline>
<path clip-path="url(#clip740)" d="M1955.92 197.865 Q1957.42 198.374 1958.83 200.041 Q1960.27 201.708 1961.71 204.624 L1966.45 214.069 L1961.43 214.069 L1957.01 205.203 Q1955.29 201.731 1953.67 200.596 Q1952.08 199.462 1949.3 199.462 L1944.21 199.462 L1944.21 214.069 L1939.53 214.069 L1939.53 179.509 L1950.08 179.509 Q1956.01 179.509 1958.93 181.985 Q1961.84 184.462 1961.84 189.462 Q1961.84 192.726 1960.32 194.879 Q1958.81 197.032 1955.92 197.865 M1944.21 183.351 L1944.21 195.62 L1950.08 195.62 Q1953.46 195.62 1955.18 194.069 Q1956.91 192.495 1956.91 189.462 Q1956.91 186.43 1955.18 184.902 Q1953.46 183.351 1950.08 183.351 L1944.21 183.351 Z" fill="#000000" fill-rule="evenodd" fill-opacity="1"></path><path clip-path="url(#clip740)" d="M1992.33 200.041 L1992.33 202.124 L1972.75 202.124 Q1973.02 206.522 1975.39 208.837 Q1977.77 211.129 1982.01 211.129 Q1984.46 211.129 1986.75 210.527 Q1989.07 209.925 1991.33 208.721 L1991.33 212.749 Q1989.04 213.721 1986.64 214.231 Q1984.23 214.74 1981.75 214.74 Q1975.55 214.74 1971.91 211.129 Q1968.3 207.518 1968.3 201.36 Q1968.3 194.995 1971.73 191.268 Q1975.18 187.518 1981.01 187.518 Q1986.24 187.518 1989.27 190.897 Q1992.33 194.254 1992.33 200.041 M1988.07 198.791 Q1988.02 195.296 1986.1 193.212 Q1984.21 191.129 1981.06 191.129 Q1977.49 191.129 1975.34 193.143 Q1973.21 195.157 1972.89 198.814 L1988.07 198.791 Z" fill="#000000" fill-rule="evenodd" fill-opacity="1"></path><path clip-path="url(#clip740)" d="M2000.41 208.189 L2005.29 208.189 L2005.29 214.069 L2000.41 214.069 L2000.41 208.189 M2000.41 189.555 L2005.29 189.555 L2005.29 195.434 L2000.41 195.434 L2000.41 189.555 Z" fill="#000000" fill-rule="evenodd" fill-opacity="1"></path><path clip-path="url(#clip740)" d="M2031.77 210.133 L2039.41 210.133 L2039.41 183.768 L2031.1 185.435 L2031.1 181.175 L2039.37 179.509 L2044.04 179.509 L2044.04 210.133 L2051.68 210.133 L2051.68 214.069 L2031.77 214.069 L2031.77 210.133 Z" fill="#000000" fill-rule="evenodd" fill-opacity="1"></path><path clip-path="url(#clip740)" d="M2061.13 208.189 L2066.01 208.189 L2066.01 214.069 L2061.13 214.069 L2061.13 208.189 Z" fill="#000000" fill-rule="evenodd" fill-opacity="1"></path><path clip-path="url(#clip740)" d="M2075.01 179.509 L2097.24 179.509 L2097.24 181.499 L2084.69 214.069 L2079.81 214.069 L2091.61 183.444 L2075.01 183.444 L2075.01 179.509 Z" fill="#000000" fill-rule="evenodd" fill-opacity="1"></path><path clip-path="url(#clip740)" d="M2105.18 179.509 L2127.4 179.509 L2127.4 181.499 L2114.85 214.069 L2109.97 214.069 L2121.77 183.444 L2105.18 183.444 L2105.18 179.509 Z" fill="#000000" fill-rule="evenodd" fill-opacity="1"></path><path clip-path="url(#clip740)" d="M2136.1 179.509 L2157.95 179.509 L2157.95 183.444 L2140.78 183.444 L2140.78 193.675 L2157.24 193.675 L2157.24 197.61 L2140.78 197.61 L2140.78 210.133 L2158.37 210.133 L2158.37 214.069 L2136.1 214.069 L2136.1 179.509 Z" fill="#000000" fill-rule="evenodd" fill-opacity="1"></path><path clip-path="url(#clip740)" d="M2183.21 184.347 L2183.21 197.24 L2196.1 197.24 L2196.1 201.175 L2183.21 201.175 L2183.21 214.069 L2179.32 214.069 L2179.32 201.175 L2166.43 201.175 L2166.43 197.24 L2179.32 197.24 L2179.32 184.347 L2183.21 184.347 Z" fill="#000000" fill-rule="evenodd" fill-opacity="1"></path><path clip-path="url(#clip740)" d="M2216.19 182.587 Q2212.58 182.587 2210.75 186.152 Q2208.95 189.694 2208.95 196.823 Q2208.95 203.93 2210.75 207.495 Q2212.58 211.036 2216.19 211.036 Q2219.83 211.036 2221.63 207.495 Q2223.46 203.93 2223.46 196.823 Q2223.46 189.694 2221.63 186.152 Q2219.83 182.587 2216.19 182.587 M2216.19 178.884 Q2222 178.884 2225.06 183.49 Q2228.14 188.073 2228.14 196.823 Q2228.14 205.55 2225.06 210.157 Q2222 214.74 2216.19 214.74 Q2210.38 214.74 2207.31 210.157 Q2204.25 205.55 2204.25 196.823 Q2204.25 188.073 2207.31 183.49 Q2210.38 178.884 2216.19 178.884 Z" fill="#000000" fill-rule="evenodd" fill-opacity="1"></path><path clip-path="url(#clip740)" d="M2236.4 179.509 L2254.76 179.509 L2254.76 183.444 L2240.69 183.444 L2240.69 191.916 Q2241.7 191.569 2242.72 191.407 Q2243.74 191.222 2244.76 191.222 Q2250.55 191.222 2253.93 194.393 Q2257.31 197.564 2257.31 202.981 Q2257.31 208.559 2253.83 211.661 Q2250.36 214.74 2244.04 214.74 Q2241.87 214.74 2239.6 214.37 Q2237.35 213.999 2234.94 213.258 L2234.94 208.559 Q2237.03 209.694 2239.25 210.249 Q2241.47 210.805 2243.95 210.805 Q2247.95 210.805 2250.29 208.698 Q2252.63 206.592 2252.63 202.981 Q2252.63 199.37 2250.29 197.263 Q2247.95 195.157 2243.95 195.157 Q2242.07 195.157 2240.2 195.573 Q2238.35 195.99 2236.4 196.87 L2236.4 179.509 Z" fill="#000000" fill-rule="evenodd" fill-opacity="1"></path><polyline clip-path="url(#clip740)" style="stroke:#3da44d; stroke-linecap:round; stroke-linejoin:round; stroke-width:4; stroke-opacity:1; fill:none" points="
  1772.49,248.629 1915.67,248.629 
  "></polyline>
<path clip-path="url(#clip740)" d="M1955.92 249.705 Q1957.42 250.214 1958.83 251.881 Q1960.27 253.548 1961.71 256.464 L1966.45 265.909 L1961.43 265.909 L1957.01 257.043 Q1955.29 253.571 1953.67 252.436 Q1952.08 251.302 1949.3 251.302 L1944.21 251.302 L1944.21 265.909 L1939.53 265.909 L1939.53 231.349 L1950.08 231.349 Q1956.01 231.349 1958.93 233.825 Q1961.84 236.302 1961.84 241.302 Q1961.84 244.566 1960.32 246.719 Q1958.81 248.872 1955.92 249.705 M1944.21 235.191 L1944.21 247.46 L1950.08 247.46 Q1953.46 247.46 1955.18 245.909 Q1956.91 244.335 1956.91 241.302 Q1956.91 238.27 1955.18 236.742 Q1953.46 235.191 1950.08 235.191 L1944.21 235.191 Z" fill="#000000" fill-rule="evenodd" fill-opacity="1"></path><path clip-path="url(#clip740)" d="M1992.33 251.881 L1992.33 253.964 L1972.75 253.964 Q1973.02 258.362 1975.39 260.677 Q1977.77 262.969 1982.01 262.969 Q1984.46 262.969 1986.75 262.367 Q1989.07 261.765 1991.33 260.561 L1991.33 264.589 Q1989.04 265.561 1986.64 266.071 Q1984.23 266.58 1981.75 266.58 Q1975.55 266.58 1971.91 262.969 Q1968.3 259.358 1968.3 253.2 Q1968.3 246.835 1971.73 243.108 Q1975.18 239.358 1981.01 239.358 Q1986.24 239.358 1989.27 242.737 Q1992.33 246.094 1992.33 251.881 M1988.07 250.631 Q1988.02 247.136 1986.1 245.052 Q1984.21 242.969 1981.06 242.969 Q1977.49 242.969 1975.34 244.983 Q1973.21 246.997 1972.89 250.654 L1988.07 250.631 Z" fill="#000000" fill-rule="evenodd" fill-opacity="1"></path><path clip-path="url(#clip740)" d="M2000.41 260.029 L2005.29 260.029 L2005.29 265.909 L2000.41 265.909 L2000.41 260.029 M2000.41 241.395 L2005.29 241.395 L2005.29 247.274 L2000.41 247.274 L2000.41 241.395 Z" fill="#000000" fill-rule="evenodd" fill-opacity="1"></path><path clip-path="url(#clip740)" d="M2034.99 261.973 L2051.31 261.973 L2051.31 265.909 L2029.37 265.909 L2029.37 261.973 Q2032.03 259.219 2036.61 254.589 Q2041.22 249.936 2042.4 248.594 Q2044.64 246.071 2045.52 244.335 Q2046.43 242.575 2046.43 240.886 Q2046.43 238.131 2044.48 236.395 Q2042.56 234.659 2039.46 234.659 Q2037.26 234.659 2034.81 235.423 Q2032.38 236.187 2029.6 237.737 L2029.6 233.015 Q2032.42 231.881 2034.88 231.302 Q2037.33 230.724 2039.37 230.724 Q2044.74 230.724 2047.93 233.409 Q2051.13 236.094 2051.13 240.585 Q2051.13 242.714 2050.32 244.636 Q2049.53 246.534 2047.42 249.126 Q2046.84 249.798 2043.74 253.015 Q2040.64 256.21 2034.99 261.973 Z" fill="#000000" fill-rule="evenodd" fill-opacity="1"></path><path clip-path="url(#clip740)" d="M2061.13 260.029 L2066.01 260.029 L2066.01 265.909 L2061.13 265.909 L2061.13 260.029 Z" fill="#000000" fill-rule="evenodd" fill-opacity="1"></path><path clip-path="url(#clip740)" d="M2089.04 235.423 L2077.24 253.872 L2089.04 253.872 L2089.04 235.423 M2087.82 231.349 L2093.7 231.349 L2093.7 253.872 L2098.63 253.872 L2098.63 257.761 L2093.7 257.761 L2093.7 265.909 L2089.04 265.909 L2089.04 257.761 L2073.44 257.761 L2073.44 253.247 L2087.82 231.349 Z" fill="#000000" fill-rule="evenodd" fill-opacity="1"></path><path clip-path="url(#clip740)" d="M2106.4 231.349 L2124.76 231.349 L2124.76 235.284 L2110.69 235.284 L2110.69 243.756 Q2111.7 243.409 2112.72 243.247 Q2113.74 243.062 2114.76 243.062 Q2120.55 243.062 2123.93 246.233 Q2127.31 249.404 2127.31 254.821 Q2127.31 260.399 2123.83 263.501 Q2120.36 266.58 2114.04 266.58 Q2111.87 266.58 2109.6 266.21 Q2107.35 265.839 2104.95 265.098 L2104.95 260.399 Q2107.03 261.534 2109.25 262.089 Q2111.47 262.645 2113.95 262.645 Q2117.95 262.645 2120.29 260.538 Q2122.63 258.432 2122.63 254.821 Q2122.63 251.21 2120.29 249.103 Q2117.95 246.997 2113.95 246.997 Q2112.07 246.997 2110.2 247.413 Q2108.35 247.83 2106.4 248.71 L2106.4 231.349 Z" fill="#000000" fill-rule="evenodd" fill-opacity="1"></path><path clip-path="url(#clip740)" d="M2136.1 231.349 L2157.95 231.349 L2157.95 235.284 L2140.78 235.284 L2140.78 245.515 L2157.24 245.515 L2157.24 249.45 L2140.78 249.45 L2140.78 261.973 L2158.37 261.973 L2158.37 265.909 L2136.1 265.909 L2136.1 231.349 Z" fill="#000000" fill-rule="evenodd" fill-opacity="1"></path><path clip-path="url(#clip740)" d="M2183.21 236.187 L2183.21 249.08 L2196.1 249.08 L2196.1 253.015 L2183.21 253.015 L2183.21 265.909 L2179.32 265.909 L2179.32 253.015 L2166.43 253.015 L2166.43 249.08 L2179.32 249.08 L2179.32 236.187 L2183.21 236.187 Z" fill="#000000" fill-rule="evenodd" fill-opacity="1"></path><path clip-path="url(#clip740)" d="M2216.19 234.427 Q2212.58 234.427 2210.75 237.992 Q2208.95 241.534 2208.95 248.663 Q2208.95 255.77 2210.75 259.335 Q2212.58 262.876 2216.19 262.876 Q2219.83 262.876 2221.63 259.335 Q2223.46 255.77 2223.46 248.663 Q2223.46 241.534 2221.63 237.992 Q2219.83 234.427 2216.19 234.427 M2216.19 230.724 Q2222 230.724 2225.06 235.33 Q2228.14 239.913 2228.14 248.663 Q2228.14 257.39 2225.06 261.997 Q2222 266.58 2216.19 266.58 Q2210.38 266.58 2207.31 261.997 Q2204.25 257.39 2204.25 248.663 Q2204.25 239.913 2207.31 235.33 Q2210.38 230.724 2216.19 230.724 Z" fill="#000000" fill-rule="evenodd" fill-opacity="1"></path><path clip-path="url(#clip740)" d="M2236.4 231.349 L2254.76 231.349 L2254.76 235.284 L2240.69 235.284 L2240.69 243.756 Q2241.7 243.409 2242.72 243.247 Q2243.74 243.062 2244.76 243.062 Q2250.55 243.062 2253.93 246.233 Q2257.31 249.404 2257.31 254.821 Q2257.31 260.399 2253.83 263.501 Q2250.36 266.58 2244.04 266.58 Q2241.87 266.58 2239.6 266.21 Q2237.35 265.839 2234.94 265.098 L2234.94 260.399 Q2237.03 261.534 2239.25 262.089 Q2241.47 262.645 2243.95 262.645 Q2247.95 262.645 2250.29 260.538 Q2252.63 258.432 2252.63 254.821 Q2252.63 251.21 2250.29 249.103 Q2247.95 246.997 2243.95 246.997 Q2242.07 246.997 2240.2 247.413 Q2238.35 247.83 2236.4 248.71 L2236.4 231.349 Z" fill="#000000" fill-rule="evenodd" fill-opacity="1"></path><polyline clip-path="url(#clip740)" style="stroke:#c271d2; stroke-linecap:round; stroke-linejoin:round; stroke-width:4; stroke-opacity:1; fill:none" points="
  1772.49,300.469 1915.67,300.469 
  "></polyline>
<path clip-path="url(#clip740)" d="M1955.92 301.545 Q1957.42 302.054 1958.83 303.721 Q1960.27 305.388 1961.71 308.304 L1966.45 317.749 L1961.43 317.749 L1957.01 308.883 Q1955.29 305.411 1953.67 304.276 Q1952.08 303.142 1949.3 303.142 L1944.21 303.142 L1944.21 317.749 L1939.53 317.749 L1939.53 283.189 L1950.08 283.189 Q1956.01 283.189 1958.93 285.665 Q1961.84 288.142 1961.84 293.142 Q1961.84 296.406 1960.32 298.559 Q1958.81 300.712 1955.92 301.545 M1944.21 287.031 L1944.21 299.3 L1950.08 299.3 Q1953.46 299.3 1955.18 297.749 Q1956.91 296.175 1956.91 293.142 Q1956.91 290.11 1955.18 288.582 Q1953.46 287.031 1950.08 287.031 L1944.21 287.031 Z" fill="#000000" fill-rule="evenodd" fill-opacity="1"></path><path clip-path="url(#clip740)" d="M1992.33 303.721 L1992.33 305.804 L1972.75 305.804 Q1973.02 310.202 1975.39 312.517 Q1977.77 314.809 1982.01 314.809 Q1984.46 314.809 1986.75 314.207 Q1989.07 313.605 1991.33 312.401 L1991.33 316.429 Q1989.04 317.401 1986.64 317.911 Q1984.23 318.42 1981.75 318.42 Q1975.55 318.42 1971.91 314.809 Q1968.3 311.198 1968.3 305.04 Q1968.3 298.675 1971.73 294.948 Q1975.18 291.198 1981.01 291.198 Q1986.24 291.198 1989.27 294.577 Q1992.33 297.934 1992.33 303.721 M1988.07 302.471 Q1988.02 298.976 1986.1 296.892 Q1984.21 294.809 1981.06 294.809 Q1977.49 294.809 1975.34 296.823 Q1973.21 298.837 1972.89 302.494 L1988.07 302.471 Z" fill="#000000" fill-rule="evenodd" fill-opacity="1"></path><path clip-path="url(#clip740)" d="M2000.41 311.869 L2005.29 311.869 L2005.29 317.749 L2000.41 317.749 L2000.41 311.869 M2000.41 293.235 L2005.29 293.235 L2005.29 299.114 L2000.41 299.114 L2000.41 293.235 Z" fill="#000000" fill-rule="evenodd" fill-opacity="1"></path><path clip-path="url(#clip740)" d="M2031.01 283.189 L2049.37 283.189 L2049.37 287.124 L2035.29 287.124 L2035.29 295.596 Q2036.31 295.249 2037.33 295.087 Q2038.35 294.902 2039.37 294.902 Q2045.15 294.902 2048.53 298.073 Q2051.91 301.244 2051.91 306.661 Q2051.91 312.239 2048.44 315.341 Q2044.97 318.42 2038.65 318.42 Q2036.47 318.42 2034.2 318.05 Q2031.96 317.679 2029.55 316.938 L2029.55 312.239 Q2031.64 313.374 2033.86 313.929 Q2036.08 314.485 2038.56 314.485 Q2042.56 314.485 2044.9 312.378 Q2047.24 310.272 2047.24 306.661 Q2047.24 303.05 2044.9 300.943 Q2042.56 298.837 2038.56 298.837 Q2036.68 298.837 2034.81 299.253 Q2032.95 299.67 2031.01 300.55 L2031.01 283.189 Z" fill="#000000" fill-rule="evenodd" fill-opacity="1"></path><path clip-path="url(#clip740)" d="M2061.13 311.869 L2066.01 311.869 L2066.01 317.749 L2061.13 317.749 L2061.13 311.869 Z" fill="#000000" fill-rule="evenodd" fill-opacity="1"></path><path clip-path="url(#clip740)" d="M2089.04 287.263 L2077.24 305.712 L2089.04 305.712 L2089.04 287.263 M2087.82 283.189 L2093.7 283.189 L2093.7 305.712 L2098.63 305.712 L2098.63 309.601 L2093.7 309.601 L2093.7 317.749 L2089.04 317.749 L2089.04 309.601 L2073.44 309.601 L2073.44 305.087 L2087.82 283.189 Z" fill="#000000" fill-rule="evenodd" fill-opacity="1"></path><path clip-path="url(#clip740)" d="M2119.2 287.263 L2107.4 305.712 L2119.2 305.712 L2119.2 287.263 M2117.98 283.189 L2123.86 283.189 L2123.86 305.712 L2128.79 305.712 L2128.79 309.601 L2123.86 309.601 L2123.86 317.749 L2119.2 317.749 L2119.2 309.601 L2103.6 309.601 L2103.6 305.087 L2117.98 283.189 Z" fill="#000000" fill-rule="evenodd" fill-opacity="1"></path><path clip-path="url(#clip740)" d="M2136.1 283.189 L2157.95 283.189 L2157.95 287.124 L2140.78 287.124 L2140.78 297.355 L2157.24 297.355 L2157.24 301.29 L2140.78 301.29 L2140.78 313.813 L2158.37 313.813 L2158.37 317.749 L2136.1 317.749 L2136.1 283.189 Z" fill="#000000" fill-rule="evenodd" fill-opacity="1"></path><path clip-path="url(#clip740)" d="M2183.21 288.027 L2183.21 300.92 L2196.1 300.92 L2196.1 304.855 L2183.21 304.855 L2183.21 317.749 L2179.32 317.749 L2179.32 304.855 L2166.43 304.855 L2166.43 300.92 L2179.32 300.92 L2179.32 288.027 L2183.21 288.027 Z" fill="#000000" fill-rule="evenodd" fill-opacity="1"></path><path clip-path="url(#clip740)" d="M2216.19 286.267 Q2212.58 286.267 2210.75 289.832 Q2208.95 293.374 2208.95 300.503 Q2208.95 307.61 2210.75 311.175 Q2212.58 314.716 2216.19 314.716 Q2219.83 314.716 2221.63 311.175 Q2223.46 307.61 2223.46 300.503 Q2223.46 293.374 2221.63 289.832 Q2219.83 286.267 2216.19 286.267 M2216.19 282.564 Q2222 282.564 2225.06 287.17 Q2228.14 291.753 2228.14 300.503 Q2228.14 309.23 2225.06 313.837 Q2222 318.42 2216.19 318.42 Q2210.38 318.42 2207.31 313.837 Q2204.25 309.23 2204.25 300.503 Q2204.25 291.753 2207.31 287.17 Q2210.38 282.564 2216.19 282.564 Z" fill="#000000" fill-rule="evenodd" fill-opacity="1"></path><path clip-path="url(#clip740)" d="M2236.4 283.189 L2254.76 283.189 L2254.76 287.124 L2240.69 287.124 L2240.69 295.596 Q2241.7 295.249 2242.72 295.087 Q2243.74 294.902 2244.76 294.902 Q2250.55 294.902 2253.93 298.073 Q2257.31 301.244 2257.31 306.661 Q2257.31 312.239 2253.83 315.341 Q2250.36 318.42 2244.04 318.42 Q2241.87 318.42 2239.6 318.05 Q2237.35 317.679 2234.94 316.938 L2234.94 312.239 Q2237.03 313.374 2239.25 313.929 Q2241.47 314.485 2243.95 314.485 Q2247.95 314.485 2250.29 312.378 Q2252.63 310.272 2252.63 306.661 Q2252.63 303.05 2250.29 300.943 Q2247.95 298.837 2243.95 298.837 Q2242.07 298.837 2240.2 299.253 Q2238.35 299.67 2236.4 300.55 L2236.4 283.189 Z" fill="#000000" fill-rule="evenodd" fill-opacity="1"></path></svg>