<svg xmlns="http://www.w3.org/2000/svg" xmlns:xlink="http://www.w3.org/1999/xlink" width="600" height="400" viewBox="0 0 2400 1600">
<defs>
  <clipPath id="clip460">
    <rect x="0" y="0" width="2400" height="1600"></rect>
  </clipPath>
</defs>
<path clip-path="url(#clip460)" d="
M0 1600 L2400 1600 L2400 0 L0 0  Z
  " fill="#ffffff" fill-rule="evenodd" fill-opacity="1"></path>
<defs>
  <clipPath id="clip461">
    <rect x="480" y="0" width="1681" height="1600"></rect>
  </clipPath>
</defs>
<defs>
  <clipPath id="clip462">
    <rect x="205" y="47" width="2149" height="1377"></rect>
  </clipPath>
</defs>
<path clip-path="url(#clip460)" d="
M219.38 1423.18 L2352.76 1423.18 L2352.76 47.2441 L219.38 47.2441  Z
  " fill="#ffffff" fill-rule="evenodd" fill-opacity="1"></path>
<defs>
  <clipPath id="clip463">
    <rect x="219" y="47" width="2134" height="1377"></rect>
  </clipPath>
</defs>
<polyline clip-path="url(#clip463)" style="stroke:#000000; stroke-linecap:round; stroke-linejoin:round; stroke-width:2; stroke-opacity:0.1; fill:none" points="
  660.982,1423.18 660.982,47.2441 
  "></polyline>
<polyline clip-path="url(#clip463)" style="stroke:#000000; stroke-linecap:round; stroke-linejoin:round; stroke-width:2; stroke-opacity:0.1; fill:none" points="
  1121.38,1423.18 1121.38,47.2441 
  "></polyline>
<polyline clip-path="url(#clip463)" style="stroke:#000000; stroke-linecap:round; stroke-linejoin:round; stroke-width:2; stroke-opacity:0.1; fill:none" points="
  1581.78,1423.18 1581.78,47.2441 
  "></polyline>
<polyline clip-path="url(#clip463)" style="stroke:#000000; stroke-linecap:round; stroke-linejoin:round; stroke-width:2; stroke-opacity:0.1; fill:none" points="
  2042.17,1423.18 2042.17,47.2441 
  "></polyline>
<polyline clip-path="url(#clip460)" style="stroke:#000000; stroke-linecap:round; stroke-linejoin:round; stroke-width:4; stroke-opacity:1; fill:none" points="
  219.38,1423.18 2352.76,1423.18 
  "></polyline>
<polyline clip-path="url(#clip460)" style="stroke:#000000; stroke-linecap:round; stroke-linejoin:round; stroke-width:4; stroke-opacity:1; fill:none" points="
  660.982,1423.18 660.982,1404.28 
  "></polyline>
<polyline clip-path="url(#clip460)" style="stroke:#000000; stroke-linecap:round; stroke-linejoin:round; stroke-width:4; stroke-opacity:1; fill:none" points="
  1121.38,1423.18 1121.38,1404.28 
  "></polyline>
<polyline clip-path="url(#clip460)" style="stroke:#000000; stroke-linecap:round; stroke-linejoin:round; stroke-width:4; stroke-opacity:1; fill:none" points="
  1581.78,1423.18 1581.78,1404.28 
  "></polyline>
<polyline clip-path="url(#clip460)" style="stroke:#000000; stroke-linecap:round; stroke-linejoin:round; stroke-width:4; stroke-opacity:1; fill:none" points="
  2042.17,1423.18 2042.17,1404.28 
  "></polyline>
<path clip-path="url(#clip460)" d="M638.98 1454.1 Q635.369 1454.1 633.54 1457.66 Q631.735 1461.2 631.735 1468.33 Q631.735 1475.44 633.54 1479.01 Q635.369 1482.55 638.98 1482.55 Q642.614 1482.55 644.42 1479.01 Q646.249 1475.44 646.249 1468.33 Q646.249 1461.2 644.42 1457.66 Q642.614 1454.1 638.98 1454.1 M638.98 1450.39 Q644.79 1450.39 647.846 1455 Q650.925 1459.58 650.925 1468.33 Q650.925 1477.06 647.846 1481.67 Q644.79 1486.25 638.98 1486.25 Q633.17 1486.25 630.091 1481.67 Q627.036 1477.06 627.036 1468.33 Q627.036 1459.58 630.091 1455 Q633.17 1450.39 638.98 1450.39 Z" fill="#000000" fill-rule="evenodd" fill-opacity="1"></path><path clip-path="url(#clip460)" d="M659.142 1479.7 L664.026 1479.7 L664.026 1485.58 L659.142 1485.58 L659.142 1479.7 Z" fill="#000000" fill-rule="evenodd" fill-opacity="1"></path><path clip-path="url(#clip460)" d="M675.022 1481.64 L682.66 1481.64 L682.66 1455.28 L674.35 1456.95 L674.35 1452.69 L682.614 1451.02 L687.29 1451.02 L687.29 1481.64 L694.929 1481.64 L694.929 1485.58 L675.022 1485.58 L675.022 1481.64 Z" fill="#000000" fill-rule="evenodd" fill-opacity="1"></path><path clip-path="url(#clip460)" d="M1099.56 1454.1 Q1095.95 1454.1 1094.12 1457.66 Q1092.32 1461.2 1092.32 1468.33 Q1092.32 1475.44 1094.12 1479.01 Q1095.95 1482.55 1099.56 1482.55 Q1103.2 1482.55 1105 1479.01 Q1106.83 1475.44 1106.83 1468.33 Q1106.83 1461.2 1105 1457.66 Q1103.2 1454.1 1099.56 1454.1 M1099.56 1450.39 Q1105.37 1450.39 1108.43 1455 Q1111.51 1459.58 1111.51 1468.33 Q1111.51 1477.06 1108.43 1481.67 Q1105.37 1486.25 1099.56 1486.25 Q1093.75 1486.25 1090.67 1481.67 Q1087.62 1477.06 1087.62 1468.33 Q1087.62 1459.58 1090.67 1455 Q1093.75 1450.39 1099.56 1450.39 Z" fill="#000000" fill-rule="evenodd" fill-opacity="1"></path><path clip-path="url(#clip460)" d="M1119.72 1479.7 L1124.61 1479.7 L1124.61 1485.58 L1119.72 1485.58 L1119.72 1479.7 Z" fill="#000000" fill-rule="evenodd" fill-opacity="1"></path><path clip-path="url(#clip460)" d="M1138.82 1481.64 L1155.14 1481.64 L1155.14 1485.58 L1133.2 1485.58 L1133.2 1481.64 Q1135.86 1478.89 1140.44 1474.26 Q1145.05 1469.61 1146.23 1468.27 Q1148.47 1465.74 1149.35 1464.01 Q1150.26 1462.25 1150.26 1460.56 Q1150.26 1457.8 1148.31 1456.07 Q1146.39 1454.33 1143.29 1454.33 Q1141.09 1454.33 1138.64 1455.09 Q1136.21 1455.86 1133.43 1457.41 L1133.43 1452.69 Q1136.25 1451.55 1138.71 1450.97 Q1141.16 1450.39 1143.2 1450.39 Q1148.57 1450.39 1151.76 1453.08 Q1154.96 1455.77 1154.96 1460.26 Q1154.96 1462.39 1154.14 1464.31 Q1153.36 1466.2 1151.25 1468.8 Q1150.67 1469.47 1147.57 1472.69 Q1144.47 1475.88 1138.82 1481.64 Z" fill="#000000" fill-rule="evenodd" fill-opacity="1"></path><path clip-path="url(#clip460)" d="M1559.48 1454.1 Q1555.87 1454.1 1554.04 1457.66 Q1552.24 1461.2 1552.24 1468.33 Q1552.24 1475.44 1554.04 1479.01 Q1555.87 1482.55 1559.48 1482.55 Q1563.12 1482.55 1564.92 1479.01 Q1566.75 1475.44 1566.75 1468.33 Q1566.75 1461.2 1564.92 1457.66 Q1563.12 1454.1 1559.48 1454.1 M1559.48 1450.39 Q1565.29 1450.39 1568.35 1455 Q1571.43 1459.58 1571.43 1468.33 Q1571.43 1477.06 1568.35 1481.67 Q1565.29 1486.25 1559.48 1486.25 Q1553.67 1486.25 1550.59 1481.67 Q1547.54 1477.06 1547.54 1468.33 Q1547.54 1459.58 1550.59 1455 Q1553.67 1450.39 1559.48 1450.39 Z" fill="#000000" fill-rule="evenodd" fill-opacity="1"></path><path clip-path="url(#clip460)" d="M1579.65 1479.7 L1584.53 1479.7 L1584.53 1485.58 L1579.65 1485.58 L1579.65 1479.7 Z" fill="#000000" fill-rule="evenodd" fill-opacity="1"></path><path clip-path="url(#clip460)" d="M1608.88 1466.95 Q1612.24 1467.66 1614.11 1469.93 Q1616.01 1472.2 1616.01 1475.53 Q1616.01 1480.65 1612.49 1483.45 Q1608.97 1486.25 1602.49 1486.25 Q1600.32 1486.25 1598 1485.81 Q1595.71 1485.39 1593.26 1484.54 L1593.26 1480.02 Q1595.2 1481.16 1597.52 1481.74 Q1599.83 1482.32 1602.35 1482.32 Q1606.75 1482.32 1609.04 1480.58 Q1611.36 1478.84 1611.36 1475.53 Q1611.36 1472.48 1609.21 1470.77 Q1607.08 1469.03 1603.26 1469.03 L1599.23 1469.03 L1599.23 1465.19 L1603.44 1465.19 Q1606.89 1465.19 1608.72 1463.82 Q1610.55 1462.43 1610.55 1459.84 Q1610.55 1457.18 1608.65 1455.77 Q1606.78 1454.33 1603.26 1454.33 Q1601.34 1454.33 1599.14 1454.75 Q1596.94 1455.16 1594.3 1456.04 L1594.3 1451.88 Q1596.96 1451.14 1599.28 1450.77 Q1601.61 1450.39 1603.67 1450.39 Q1609 1450.39 1612.1 1452.83 Q1615.2 1455.23 1615.2 1459.35 Q1615.2 1462.22 1613.56 1464.21 Q1611.91 1466.18 1608.88 1466.95 Z" fill="#000000" fill-rule="evenodd" fill-opacity="1"></path><path clip-path="url(#clip460)" d="M2019.31 1454.1 Q2015.7 1454.1 2013.87 1457.66 Q2012.07 1461.2 2012.07 1468.33 Q2012.07 1475.44 2013.87 1479.01 Q2015.7 1482.55 2019.31 1482.55 Q2022.95 1482.55 2024.75 1479.01 Q2026.58 1475.44 2026.58 1468.33 Q2026.58 1461.2 2024.75 1457.66 Q2022.95 1454.1 2019.31 1454.1 M2019.31 1450.39 Q2025.12 1450.39 2028.18 1455 Q2031.26 1459.58 2031.26 1468.33 Q2031.26 1477.06 2028.18 1481.67 Q2025.12 1486.25 2019.31 1486.25 Q2013.5 1486.25 2010.42 1481.67 Q2007.37 1477.06 2007.37 1468.33 Q2007.37 1459.58 2010.42 1455 Q2013.5 1450.39 2019.31 1450.39 Z" fill="#000000" fill-rule="evenodd" fill-opacity="1"></path><path clip-path="url(#clip460)" d="M2039.47 1479.7 L2044.36 1479.7 L2044.36 1485.58 L2039.47 1485.58 L2039.47 1479.7 Z" fill="#000000" fill-rule="evenodd" fill-opacity="1"></path><path clip-path="url(#clip460)" d="M2067.39 1455.09 L2055.59 1473.54 L2067.39 1473.54 L2067.39 1455.09 M2066.16 1451.02 L2072.04 1451.02 L2072.04 1473.54 L2076.97 1473.54 L2076.97 1477.43 L2072.04 1477.43 L2072.04 1485.58 L2067.39 1485.58 L2067.39 1477.43 L2051.79 1477.43 L2051.79 1472.92 L2066.16 1451.02 Z" fill="#000000" fill-rule="evenodd" fill-opacity="1"></path><path clip-path="url(#clip460)" d="M1283.74 1506.64 L1279.59 1523.46 Q1279.3 1524.52 1279.11 1524.65 Q1278.95 1524.78 1278.43 1524.78 Q1277.43 1524.78 1277.43 1524.1 Q1277.43 1524.04 1277.53 1523.2 Q1277.62 1522.33 1277.62 1520.75 Q1277.62 1514.92 1274.79 1511.48 Q1271.99 1508.03 1267 1508.03 Q1262.68 1508.03 1258.33 1510.22 Q1254.02 1512.41 1250.93 1515.98 Q1248.61 1518.69 1246.9 1522.1 Q1245.23 1525.52 1244.42 1528.64 Q1243.65 1531.76 1243.29 1534.12 Q1242.94 1536.47 1242.94 1538.17 Q1242.94 1540.65 1243.45 1542.75 Q1244 1544.84 1244.97 1546.32 Q1245.93 1547.77 1247.16 1548.9 Q1248.41 1549.99 1249.86 1550.64 Q1251.34 1551.28 1252.83 1551.6 Q1254.31 1551.89 1255.85 1551.89 Q1262.07 1551.89 1268 1547.06 Q1272.7 1543.1 1274.66 1536.63 Q1274.82 1535.98 1275.5 1535.98 Q1276.3 1535.98 1276.3 1536.63 Q1276.3 1536.76 1276.14 1537.4 Q1275.98 1538.01 1275.5 1539.27 Q1275.02 1540.49 1274.28 1541.88 Q1273.53 1543.26 1272.15 1545 Q1270.77 1546.74 1269.06 1548.25 Q1266.16 1550.77 1262.49 1552.34 Q1258.82 1553.92 1254.79 1553.92 Q1249.77 1553.92 1245.71 1551.7 Q1241.65 1549.48 1239.27 1545.32 Q1236.92 1541.17 1236.92 1535.85 Q1236.92 1530.25 1239.49 1524.74 Q1242.07 1519.24 1246.16 1515.15 Q1250.25 1511.06 1255.66 1508.51 Q1261.07 1505.97 1266.48 1505.97 Q1268.54 1505.97 1270.38 1506.52 Q1272.21 1507.06 1273.31 1507.74 Q1274.44 1508.42 1275.43 1509.41 Q1276.43 1510.38 1276.76 1510.83 Q1277.11 1511.28 1277.43 1511.83 L1282.04 1506.77 Q1282.84 1505.97 1283.04 1505.97 Q1283.42 1505.97 1283.58 1506.19 Q1283.74 1506.42 1283.74 1506.64 Z" fill="#000000" fill-rule="evenodd" fill-opacity="1"></path><path clip-path="url(#clip460)" d="M1325.61 1552.79 Q1325.61 1556.51 1324.01 1560.16 Q1322.43 1563.79 1319.86 1566.54 Q1317.32 1569.27 1313.87 1570.96 Q1310.42 1572.65 1306.9 1572.65 L1291.62 1572.65 Q1291.08 1572.65 1290.85 1572.63 Q1290.65 1572.61 1290.49 1572.5 Q1290.33 1572.36 1290.33 1572.09 Q1290.33 1571.66 1290.51 1571.48 Q1290.69 1571.28 1290.9 1571.26 Q1291.1 1571.23 1291.62 1571.23 Q1292.74 1571.23 1293.42 1571.17 Q1294.1 1571.1 1294.52 1571.01 Q1294.98 1570.89 1295.2 1570.58 Q1295.45 1570.26 1295.56 1569.99 Q1295.67 1569.7 1295.83 1569.05 L1302.01 1544.25 Q1302.19 1543.5 1302.19 1543.39 Q1302.19 1543.01 1301.96 1542.87 Q1301.76 1542.71 1301.18 1542.65 Q1300.05 1542.56 1299.19 1542.56 Q1298.63 1542.56 1298.4 1542.53 Q1298.2 1542.51 1298.02 1542.4 Q1297.86 1542.26 1297.86 1541.99 Q1297.86 1541.56 1298.04 1541.38 Q1298.24 1541.18 1298.47 1541.16 Q1298.7 1541.11 1299.24 1541.11 L1314.75 1541.11 Q1318.11 1541.11 1320.61 1542.69 Q1323.11 1544.25 1324.35 1546.89 Q1325.61 1549.5 1325.61 1552.79 M1321.58 1551.1 Q1321.58 1546.8 1319.23 1544.68 Q1316.91 1542.56 1313.24 1542.56 L1308.3 1542.56 Q1306.83 1542.56 1306.47 1542.83 Q1306.11 1543.08 1305.8 1544.32 L1299.46 1569.65 Q1299.24 1570.49 1299.24 1570.71 Q1299.24 1570.96 1299.35 1571.05 Q1299.48 1571.12 1299.85 1571.17 Q1300.25 1571.23 1300.86 1571.23 L1306.07 1571.23 Q1308.07 1571.23 1309.9 1570.69 Q1311.75 1570.13 1313.08 1569.25 Q1314.41 1568.35 1315.27 1567.58 Q1316.12 1566.79 1316.73 1566 Q1318.11 1564.22 1319.12 1561.9 Q1320.16 1559.58 1320.63 1557.46 Q1321.13 1555.32 1321.35 1553.74 Q1321.58 1552.14 1321.58 1551.1 Z" fill="#000000" fill-rule="evenodd" fill-opacity="1"></path><polyline clip-path="url(#clip463)" style="stroke:#000000; stroke-linecap:round; stroke-linejoin:round; stroke-width:2; stroke-opacity:0.1; fill:none" points="
  219.38,1261.67 2352.76,1261.67 
  "></polyline>
<polyline clip-path="url(#clip463)" style="stroke:#000000; stroke-linecap:round; stroke-linejoin:round; stroke-width:2; stroke-opacity:0.1; fill:none" points="
  219.38,969.796 2352.76,969.796 
  "></polyline>
<polyline clip-path="url(#clip463)" style="stroke:#000000; stroke-linecap:round; stroke-linejoin:round; stroke-width:2; stroke-opacity:0.1; fill:none" points="
  219.38,677.92 2352.76,677.92 
  "></polyline>
<polyline clip-path="url(#clip463)" style="stroke:#000000; stroke-linecap:round; stroke-linejoin:round; stroke-width:2; stroke-opacity:0.1; fill:none" points="
  219.38,386.043 2352.76,386.043 
  "></polyline>
<polyline clip-path="url(#clip463)" style="stroke:#000000; stroke-linecap:round; stroke-linejoin:round; stroke-width:2; stroke-opacity:0.1; fill:none" points="
  219.38,94.1667 2352.76,94.1667 
  "></polyline>
<polyline clip-path="url(#clip460)" style="stroke:#000000; stroke-linecap:round; stroke-linejoin:round; stroke-width:4; stroke-opacity:1; fill:none" points="
  219.38,1423.18 219.38,47.2441 
  "></polyline>
<polyline clip-path="url(#clip460)" style="stroke:#000000; stroke-linecap:round; stroke-linejoin:round; stroke-width:4; stroke-opacity:1; fill:none" points="
  219.38,1261.67 238.278,1261.67 
  "></polyline>
<polyline clip-path="url(#clip460)" style="stroke:#000000; stroke-linecap:round; stroke-linejoin:round; stroke-width:4; stroke-opacity:1; fill:none" points="
  219.38,969.796 238.278,969.796 
  "></polyline>
<polyline clip-path="url(#clip460)" style="stroke:#000000; stroke-linecap:round; stroke-linejoin:round; stroke-width:4; stroke-opacity:1; fill:none" points="
  219.38,677.92 238.278,677.92 
  "></polyline>
<polyline clip-path="url(#clip460)" style="stroke:#000000; stroke-linecap:round; stroke-linejoin:round; stroke-width:4; stroke-opacity:1; fill:none" points="
  219.38,386.043 238.278,386.043 
  "></polyline>
<polyline clip-path="url(#clip460)" style="stroke:#000000; stroke-linecap:round; stroke-linejoin:round; stroke-width:4; stroke-opacity:1; fill:none" points="
  219.38,94.1667 238.278,94.1667 
  "></polyline>
<path clip-path="url(#clip460)" d="M126.205 1247.47 Q122.593 1247.47 120.765 1251.04 Q118.959 1254.58 118.959 1261.71 Q118.959 1268.81 120.765 1272.38 Q122.593 1275.92 126.205 1275.92 Q129.839 1275.92 131.644 1272.38 Q133.473 1268.81 133.473 1261.71 Q133.473 1254.58 131.644 1251.04 Q129.839 1247.47 126.205 1247.47 M126.205 1243.77 Q132.015 1243.77 135.07 1248.37 Q138.149 1252.96 138.149 1261.71 Q138.149 1270.43 135.07 1275.04 Q132.015 1279.62 126.205 1279.62 Q120.394 1279.62 117.316 1275.04 Q114.26 1270.43 114.26 1261.71 Q114.26 1252.96 117.316 1248.37 Q120.394 1243.77 126.205 1243.77 Z" fill="#000000" fill-rule="evenodd" fill-opacity="1"></path><path clip-path="url(#clip460)" d="M146.366 1273.07 L151.251 1273.07 L151.251 1278.95 L146.366 1278.95 L146.366 1273.07 Z" fill="#000000" fill-rule="evenodd" fill-opacity="1"></path><path clip-path="url(#clip460)" d="M171.436 1247.47 Q167.825 1247.47 165.996 1251.04 Q164.19 1254.58 164.19 1261.71 Q164.19 1268.81 165.996 1272.38 Q167.825 1275.92 171.436 1275.92 Q175.07 1275.92 176.876 1272.38 Q178.704 1268.81 178.704 1261.71 Q178.704 1254.58 176.876 1251.04 Q175.07 1247.47 171.436 1247.47 M171.436 1243.77 Q177.246 1243.77 180.301 1248.37 Q183.38 1252.96 183.38 1261.71 Q183.38 1270.43 180.301 1275.04 Q177.246 1279.62 171.436 1279.62 Q165.626 1279.62 162.547 1275.04 Q159.491 1270.43 159.491 1261.71 Q159.491 1252.96 162.547 1248.37 Q165.626 1243.77 171.436 1243.77 Z" fill="#000000" fill-rule="evenodd" fill-opacity="1"></path><path clip-path="url(#clip460)" d="M127.2 955.595 Q123.589 955.595 121.76 959.16 Q119.955 962.701 119.955 969.831 Q119.955 976.938 121.76 980.502 Q123.589 984.044 127.2 984.044 Q130.834 984.044 132.64 980.502 Q134.468 976.938 134.468 969.831 Q134.468 962.701 132.64 959.16 Q130.834 955.595 127.2 955.595 M127.2 951.891 Q133.01 951.891 136.066 956.498 Q139.144 961.081 139.144 969.831 Q139.144 978.558 136.066 983.164 Q133.01 987.748 127.2 987.748 Q121.39 987.748 118.311 983.164 Q115.256 978.558 115.256 969.831 Q115.256 961.081 118.311 956.498 Q121.39 951.891 127.2 951.891 Z" fill="#000000" fill-rule="evenodd" fill-opacity="1"></path><path clip-path="url(#clip460)" d="M147.362 981.197 L152.246 981.197 L152.246 987.076 L147.362 987.076 L147.362 981.197 Z" fill="#000000" fill-rule="evenodd" fill-opacity="1"></path><path clip-path="url(#clip460)" d="M162.477 952.516 L180.834 952.516 L180.834 956.452 L166.76 956.452 L166.76 964.924 Q167.778 964.576 168.797 964.414 Q169.815 964.229 170.834 964.229 Q176.621 964.229 180.001 967.401 Q183.38 970.572 183.38 975.988 Q183.38 981.567 179.908 984.669 Q176.436 987.748 170.116 987.748 Q167.94 987.748 165.672 987.377 Q163.427 987.007 161.019 986.266 L161.019 981.567 Q163.102 982.701 165.325 983.257 Q167.547 983.812 170.024 983.812 Q174.028 983.812 176.366 981.706 Q178.704 979.6 178.704 975.988 Q178.704 972.377 176.366 970.271 Q174.028 968.164 170.024 968.164 Q168.149 968.164 166.274 968.581 Q164.422 968.998 162.477 969.877 L162.477 952.516 Z" fill="#000000" fill-rule="evenodd" fill-opacity="1"></path><path clip-path="url(#clip460)" d="M117.015 691.265 L124.654 691.265 L124.654 664.899 L116.343 666.566 L116.343 662.306 L124.607 660.64 L129.283 660.64 L129.283 691.265 L136.922 691.265 L136.922 695.2 L117.015 695.2 L117.015 691.265 Z" fill="#000000" fill-rule="evenodd" fill-opacity="1"></path><path clip-path="url(#clip460)" d="M146.366 689.32 L151.251 689.32 L151.251 695.2 L146.366 695.2 L146.366 689.32 Z" fill="#000000" fill-rule="evenodd" fill-opacity="1"></path><path clip-path="url(#clip460)" d="M171.436 663.718 Q167.825 663.718 165.996 667.283 Q164.19 670.825 164.19 677.955 Q164.19 685.061 165.996 688.626 Q167.825 692.167 171.436 692.167 Q175.07 692.167 176.876 688.626 Q178.704 685.061 178.704 677.955 Q178.704 670.825 176.876 667.283 Q175.07 663.718 171.436 663.718 M171.436 660.015 Q177.246 660.015 180.301 664.621 Q183.38 669.205 183.38 677.955 Q183.38 686.681 180.301 691.288 Q177.246 695.871 171.436 695.871 Q165.626 695.871 162.547 691.288 Q159.491 686.681 159.491 677.955 Q159.491 669.205 162.547 664.621 Q165.626 660.015 171.436 660.015 Z" fill="#000000" fill-rule="evenodd" fill-opacity="1"></path><path clip-path="url(#clip460)" d="M118.01 399.388 L125.649 399.388 L125.649 373.022 L117.339 374.689 L117.339 370.43 L125.603 368.763 L130.279 368.763 L130.279 399.388 L137.917 399.388 L137.917 403.323 L118.01 403.323 L118.01 399.388 Z" fill="#000000" fill-rule="evenodd" fill-opacity="1"></path><path clip-path="url(#clip460)" d="M147.362 397.444 L152.246 397.444 L152.246 403.323 L147.362 403.323 L147.362 397.444 Z" fill="#000000" fill-rule="evenodd" fill-opacity="1"></path><path clip-path="url(#clip460)" d="M162.477 368.763 L180.834 368.763 L180.834 372.698 L166.76 372.698 L166.76 381.171 Q167.778 380.823 168.797 380.661 Q169.815 380.476 170.834 380.476 Q176.621 380.476 180.001 383.647 Q183.38 386.819 183.38 392.235 Q183.38 397.814 179.908 400.916 Q176.436 403.995 170.116 403.995 Q167.94 403.995 165.672 403.624 Q163.427 403.254 161.019 402.513 L161.019 397.814 Q163.102 398.948 165.325 399.504 Q167.547 400.059 170.024 400.059 Q174.028 400.059 176.366 397.953 Q178.704 395.846 178.704 392.235 Q178.704 388.624 176.366 386.518 Q174.028 384.411 170.024 384.411 Q168.149 384.411 166.274 384.828 Q164.422 385.245 162.477 386.124 L162.477 368.763 Z" fill="#000000" fill-rule="evenodd" fill-opacity="1"></path><path clip-path="url(#clip460)" d="M120.232 107.512 L136.552 107.512 L136.552 111.447 L114.607 111.447 L114.607 107.512 Q117.269 104.757 121.853 100.127 Q126.459 95.4745 127.64 94.1319 Q129.885 91.6088 130.765 89.8727 Q131.667 88.1135 131.667 86.4237 Q131.667 83.669 129.723 81.9329 Q127.802 80.1968 124.7 80.1968 Q122.501 80.1968 120.047 80.9607 Q117.617 81.7246 114.839 83.2755 L114.839 78.5533 Q117.663 77.4191 120.117 76.8404 Q122.57 76.2617 124.607 76.2617 Q129.978 76.2617 133.172 78.9468 Q136.367 81.632 136.367 86.1227 Q136.367 88.2524 135.556 90.1736 Q134.769 92.0718 132.663 94.6644 Q132.084 95.3356 128.982 98.5532 Q125.88 101.748 120.232 107.512 Z" fill="#000000" fill-rule="evenodd" fill-opacity="1"></path><path clip-path="url(#clip460)" d="M146.366 105.567 L151.251 105.567 L151.251 111.447 L146.366 111.447 L146.366 105.567 Z" fill="#000000" fill-rule="evenodd" fill-opacity="1"></path><path clip-path="url(#clip460)" d="M171.436 79.9654 Q167.825 79.9654 165.996 83.5302 Q164.19 87.0718 164.19 94.2014 Q164.19 101.308 165.996 104.873 Q167.825 108.414 171.436 108.414 Q175.07 108.414 176.876 104.873 Q178.704 101.308 178.704 94.2014 Q178.704 87.0718 176.876 83.5302 Q175.07 79.9654 171.436 79.9654 M171.436 76.2617 Q177.246 76.2617 180.301 80.8681 Q183.38 85.4514 183.38 94.2014 Q183.38 102.928 180.301 107.535 Q177.246 112.118 171.436 112.118 Q165.626 112.118 162.547 107.535 Q159.491 102.928 159.491 94.2014 Q159.491 85.4514 162.547 80.8681 Q165.626 76.2617 171.436 76.2617 Z" fill="#000000" fill-rule="evenodd" fill-opacity="1"></path><path clip-path="url(#clip460)" d="M16.8605 734.175 L33.6719 738.33 Q34.7347 738.62 34.8635 738.813 Q34.9924 738.974 34.9924 739.489 Q34.9924 740.488 34.316 740.488 Q34.2516 740.488 33.4143 740.391 Q32.5447 740.295 30.9666 740.295 Q25.1374 740.295 21.6913 743.129 Q18.2453 745.931 18.2453 750.922 Q18.2453 755.238 20.4353 759.586 Q22.6253 763.901 26.2002 766.993 Q28.9055 769.312 32.3193 771.019 Q35.7331 772.694 38.8571 773.499 Q41.981 774.272 44.3321 774.626 Q46.6831 774.98 48.39 774.98 Q50.8699 774.98 52.9632 774.465 Q55.0566 773.917 56.5381 772.951 Q57.9874 771.985 59.1146 770.761 Q60.2096 769.505 60.8537 768.056 Q61.4978 766.575 61.8198 765.093 Q62.1097 763.612 62.1097 762.066 Q62.1097 755.85 57.2788 749.924 Q53.3175 745.222 46.8441 743.257 Q46.2 743.096 46.2 742.42 Q46.2 741.615 46.8441 741.615 Q46.9729 741.615 47.6171 741.776 Q48.229 741.937 49.485 742.42 Q50.7088 742.903 52.0937 743.644 Q53.4785 744.385 55.2176 745.77 Q56.9568 747.154 58.4704 748.861 Q60.9825 751.76 62.5606 755.431 Q64.1387 759.103 64.1387 763.128 Q64.1387 768.153 61.9165 772.211 Q59.6943 776.268 55.5397 778.652 Q51.3852 781.003 46.0712 781.003 Q40.4674 781.003 34.9602 778.426 Q29.453 775.85 25.3628 771.76 Q21.2727 767.67 18.7284 762.259 Q16.1841 756.848 16.1841 751.438 Q16.1841 749.377 16.7316 747.541 Q17.2791 745.705 17.9555 744.61 Q18.6318 743.483 19.6302 742.485 Q20.5963 741.486 21.0472 741.164 Q21.4981 740.81 22.0456 740.488 L16.9893 735.882 Q16.1841 735.077 16.1841 734.884 Q16.1841 734.497 16.4096 734.336 Q16.635 734.175 16.8605 734.175 Z" fill="#000000" fill-rule="evenodd" fill-opacity="1"></path><path clip-path="url(#clip460)" d="M71.4621 699.701 Q71.5974 699.701 72.1159 699.881 L82.0804 703.533 Q82.6665 703.736 82.7792 703.939 Q82.8694 704.142 82.8694 704.976 L82.8694 726.348 Q82.8694 726.866 82.8469 727.069 Q82.8243 727.272 82.7116 727.43 Q82.5989 727.588 82.3509 727.588 Q81.9 727.588 81.6971 727.43 Q81.4942 727.25 81.4717 727.047 Q81.4491 726.844 81.4491 726.348 Q81.4491 725.221 81.3815 724.544 Q81.3139 723.868 81.2237 723.44 Q81.111 722.989 80.7954 722.763 Q80.4797 722.515 80.2092 722.403 Q79.9161 722.29 79.2624 722.132 L54.4638 715.955 Q53.7199 715.775 53.6072 715.775 Q53.1788 715.775 53.0661 716.045 Q52.9308 716.293 52.8632 717.015 L52.773 718.773 Q52.773 719.314 52.7505 719.54 Q52.7279 719.742 52.6152 719.9 Q52.5025 720.058 52.2545 720.058 Q51.8262 720.058 51.6233 719.9 Q51.3978 719.72 51.3753 719.585 Q51.3302 719.427 51.3302 719.179 L51.4655 713.047 L51.3302 706.216 Q51.3302 705.472 51.8938 705.472 Q52.525 705.472 52.6603 705.788 Q52.773 706.103 52.773 707.23 Q52.773 709.395 52.9985 710.387 Q53.2239 711.356 53.6072 711.627 Q53.9679 711.875 54.9373 712.122 L79.871 718.367 Q80.7052 718.593 80.9306 718.593 Q81.1786 718.593 81.2688 718.48 Q81.3364 718.345 81.3815 717.984 Q81.4491 717.578 81.4491 716.969 L81.4491 712.641 Q81.4491 711.333 81.2462 710.184 Q81.0433 709.034 80.7503 708.155 Q80.4572 707.253 79.9161 706.441 Q79.3751 705.63 78.9016 705.066 Q78.4057 704.48 77.6392 703.916 Q76.8501 703.33 76.3091 702.992 Q75.7455 702.631 74.8437 702.226 Q73.9194 701.82 73.4009 701.617 Q72.8598 701.391 71.9355 701.053 Q71.4621 700.85 71.3268 700.783 Q71.1916 700.715 71.0788 700.602 Q70.9661 700.467 70.9661 700.264 Q70.9661 699.994 71.1239 699.858 Q71.2817 699.701 71.4621 699.701 Z" fill="#000000" fill-rule="evenodd" fill-opacity="1"></path><polyline clip-path="url(#clip463)" style="stroke:#009af9; stroke-linecap:round; stroke-linejoin:round; stroke-width:4; stroke-opacity:1; fill:none" points="
  358.51,1384.24 312.777,1006.42 365.535,608.371 540.6,310.794 668.457,231.554 1011,175.687 1475.22,195.639 2292.38,87.3258 
  "></polyline>
<circle clip-path="url(#clip463)" cx="358.51" cy="1384.24" r="14.4" fill="#009af9" fill-rule="evenodd" fill-opacity="1" stroke="#000000" stroke-opacity="1" stroke-width="3.2"></circle>
<circle clip-path="url(#clip463)" cx="312.777" cy="1006.42" r="14.4" fill="#009af9" fill-rule="evenodd" fill-opacity="1" stroke="#000000" stroke-opacity="1" stroke-width="3.2"></circle>
<circle clip-path="url(#clip463)" cx="365.535" cy="608.371" r="14.4" fill="#009af9" fill-rule="evenodd" fill-opacity="1" stroke="#000000" stroke-opacity="1" stroke-width="3.2"></circle>
<circle clip-path="url(#clip463)" cx="540.6" cy="310.794" r="14.4" fill="#009af9" fill-rule="evenodd" fill-opacity="1" stroke="#000000" stroke-opacity="1" stroke-width="3.2"></circle>
<circle clip-path="url(#clip463)" cx="668.457" cy="231.554" r="14.4" fill="#009af9" fill-rule="evenodd" fill-opacity="1" stroke="#000000" stroke-opacity="1" stroke-width="3.2"></circle>
<circle clip-path="url(#clip463)" cx="1011" cy="175.687" r="14.4" fill="#009af9" fill-rule="evenodd" fill-opacity="1" stroke="#000000" stroke-opacity="1" stroke-width="3.2"></circle>
<circle clip-path="url(#clip463)" cx="1475.22" cy="195.639" r="14.4" fill="#009af9" fill-rule="evenodd" fill-opacity="1" stroke="#000000" stroke-opacity="1" stroke-width="3.2"></circle>
<circle clip-path="url(#clip463)" cx="2292.38" cy="87.3258" r="14.4" fill="#009af9" fill-rule="evenodd" fill-opacity="1" stroke="#000000" stroke-opacity="1" stroke-width="3.2"></circle>
<polyline clip-path="url(#clip463)" style="stroke:#e26f46; stroke-linecap:round; stroke-linejoin:round; stroke-width:4; stroke-opacity:1; fill:none" points="
  341.931,1380.39 301.537,994.452 347.129,595.83 513.062,290.271 633.894,214.452 964.354,168.846 1428.01,189.939 2240.67,86.1857 
  "></polyline>
<circle clip-path="url(#clip463)" cx="341.931" cy="1380.39" r="14.4" fill="#e26f46" fill-rule="evenodd" fill-opacity="1" stroke="#000000" stroke-opacity="1" stroke-width="3.2"></circle>
<circle clip-path="url(#clip463)" cx="301.537" cy="994.452" r="14.4" fill="#e26f46" fill-rule="evenodd" fill-opacity="1" stroke="#000000" stroke-opacity="1" stroke-width="3.2"></circle>
<circle clip-path="url(#clip463)" cx="347.129" cy="595.83" r="14.4" fill="#e26f46" fill-rule="evenodd" fill-opacity="1" stroke="#000000" stroke-opacity="1" stroke-width="3.2"></circle>
<circle clip-path="url(#clip463)" cx="513.062" cy="290.271" r="14.4" fill="#e26f46" fill-rule="evenodd" fill-opacity="1" stroke="#000000" stroke-opacity="1" stroke-width="3.2"></circle>
<circle clip-path="url(#clip463)" cx="633.894" cy="214.452" r="14.4" fill="#e26f46" fill-rule="evenodd" fill-opacity="1" stroke="#000000" stroke-opacity="1" stroke-width="3.2"></circle>
<circle clip-path="url(#clip463)" cx="964.354" cy="168.846" r="14.4" fill="#e26f46" fill-rule="evenodd" fill-opacity="1" stroke="#000000" stroke-opacity="1" stroke-width="3.2"></circle>
<circle clip-path="url(#clip463)" cx="1428.01" cy="189.939" r="14.4" fill="#e26f46" fill-rule="evenodd" fill-opacity="1" stroke="#000000" stroke-opacity="1" stroke-width="3.2"></circle>
<circle clip-path="url(#clip463)" cx="2240.67" cy="86.1857" r="14.4" fill="#e26f46" fill-rule="evenodd" fill-opacity="1" stroke="#000000" stroke-opacity="1" stroke-width="3.2"></circle>
<polyline clip-path="url(#clip463)" style="stroke:#3da44d; stroke-linecap:round; stroke-linejoin:round; stroke-width:4; stroke-opacity:1; fill:none" points="
  333.009,1378.54 294.09,987.041 336.662,585.568 498.731,284 615.628,207.041 940.188,168.276 1399.91,188.228 2210.32,87.3258 
  "></polyline>
<circle clip-path="url(#clip463)" cx="333.009" cy="1378.54" r="14.4" fill="#3da44d" fill-rule="evenodd" fill-opacity="1" stroke="#000000" stroke-opacity="1" stroke-width="3.2"></circle>
<circle clip-path="url(#clip463)" cx="294.09" cy="987.041" r="14.4" fill="#3da44d" fill-rule="evenodd" fill-opacity="1" stroke="#000000" stroke-opacity="1" stroke-width="3.2"></circle>
<circle clip-path="url(#clip463)" cx="336.662" cy="585.568" r="14.4" fill="#3da44d" fill-rule="evenodd" fill-opacity="1" stroke="#000000" stroke-opacity="1" stroke-width="3.2"></circle>
<circle clip-path="url(#clip463)" cx="498.731" cy="284" r="14.4" fill="#3da44d" fill-rule="evenodd" fill-opacity="1" stroke="#000000" stroke-opacity="1" stroke-width="3.2"></circle>
<circle clip-path="url(#clip463)" cx="615.628" cy="207.041" r="14.4" fill="#3da44d" fill-rule="evenodd" fill-opacity="1" stroke="#000000" stroke-opacity="1" stroke-width="3.2"></circle>
<circle clip-path="url(#clip463)" cx="940.188" cy="168.276" r="14.4" fill="#3da44d" fill-rule="evenodd" fill-opacity="1" stroke="#000000" stroke-opacity="1" stroke-width="3.2"></circle>
<circle clip-path="url(#clip463)" cx="1399.91" cy="188.228" r="14.4" fill="#3da44d" fill-rule="evenodd" fill-opacity="1" stroke="#000000" stroke-opacity="1" stroke-width="3.2"></circle>
<circle clip-path="url(#clip463)" cx="2210.32" cy="87.3258" r="14.4" fill="#3da44d" fill-rule="evenodd" fill-opacity="1" stroke="#000000" stroke-opacity="1" stroke-width="3.2"></circle>
<polyline clip-path="url(#clip463)" style="stroke:#c271d2; stroke-linecap:round; stroke-linejoin:round; stroke-width:4; stroke-opacity:1; fill:none" points="
  315.657,1377.82 279.759,976.78 315.938,563.335 468.382,264.048 581.627,197.35 896.351,169.416 1363.94,192.219 2195.71,100.437 
  "></polyline>
<circle clip-path="url(#clip463)" cx="315.657" cy="1377.82" r="14.4" fill="#c271d2" fill-rule="evenodd" fill-opacity="1" stroke="#000000" stroke-opacity="1" stroke-width="3.2"></circle>
<circle clip-path="url(#clip463)" cx="279.759" cy="976.78" r="14.4" fill="#c271d2" fill-rule="evenodd" fill-opacity="1" stroke="#000000" stroke-opacity="1" stroke-width="3.2"></circle>
<circle clip-path="url(#clip463)" cx="315.938" cy="563.335" r="14.4" fill="#c271d2" fill-rule="evenodd" fill-opacity="1" stroke="#000000" stroke-opacity="1" stroke-width="3.2"></circle>
<circle clip-path="url(#clip463)" cx="468.382" cy="264.048" r="14.4" fill="#c271d2" fill-rule="evenodd" fill-opacity="1" stroke="#000000" stroke-opacity="1" stroke-width="3.2"></circle>
<circle clip-path="url(#clip463)" cx="581.627" cy="197.35" r="14.4" fill="#c271d2" fill-rule="evenodd" fill-opacity="1" stroke="#000000" stroke-opacity="1" stroke-width="3.2"></circle>
<circle clip-path="url(#clip463)" cx="896.351" cy="169.416" r="14.4" fill="#c271d2" fill-rule="evenodd" fill-opacity="1" stroke="#000000" stroke-opacity="1" stroke-width="3.2"></circle>
<circle clip-path="url(#clip463)" cx="1363.94" cy="192.219" r="14.4" fill="#c271d2" fill-rule="evenodd" fill-opacity="1" stroke="#000000" stroke-opacity="1" stroke-width="3.2"></circle>
<circle clip-path="url(#clip463)" cx="2195.71" cy="100.437" r="14.4" fill="#c271d2" fill-rule="evenodd" fill-opacity="1" stroke="#000000" stroke-opacity="1" stroke-width="3.2"></circle>
<path clip-path="url(#clip460)" d="
M1750.53 1377.32 L2281.64 1377.32 L2281.64 1118.12 L1750.53 1118.12  Z
  " fill="#ffffff" fill-rule="evenodd" fill-opacity="1"></path>
<polyline clip-path="url(#clip460)" style="stroke:#000000; stroke-linecap:round; stroke-linejoin:round; stroke-width:4; stroke-opacity:1; fill:none" points="
  1750.53,1377.32 2281.64,1377.32 2281.64,1118.12 1750.53,1118.12 1750.53,1377.32 
  "></polyline>
<polyline clip-path="url(#clip460)" style="stroke:#009af9; stroke-linecap:round; stroke-linejoin:round; stroke-width:4; stroke-opacity:1; fill:none" points="
  1774.23,1169.96 1916.46,1169.96 
  "></polyline>
<path clip-path="url(#clip460)" d="M1956.55 1171.03 Q1958.06 1171.54 1959.47 1173.21 Q1960.9 1174.87 1962.34 1177.79 L1967.08 1187.24 L1962.06 1187.24 L1957.64 1178.37 Q1955.93 1174.9 1954.31 1173.76 Q1952.71 1172.63 1949.93 1172.63 L1944.84 1172.63 L1944.84 1187.24 L1940.16 1187.24 L1940.16 1152.68 L1950.72 1152.68 Q1956.64 1152.68 1959.56 1155.15 Q1962.48 1157.63 1962.48 1162.63 Q1962.48 1165.89 1960.95 1168.05 Q1959.45 1170.2 1956.55 1171.03 M1944.84 1156.52 L1944.84 1168.79 L1950.72 1168.79 Q1954.1 1168.79 1955.81 1167.24 Q1957.55 1165.66 1957.55 1162.63 Q1957.55 1159.6 1955.81 1158.07 Q1954.1 1156.52 1950.72 1156.52 L1944.84 1156.52 Z" fill="#000000" fill-rule="evenodd" fill-opacity="1"></path><path clip-path="url(#clip460)" d="M1992.96 1173.21 L1992.96 1175.29 L1973.38 1175.29 Q1973.66 1179.69 1976.02 1182 Q1978.4 1184.3 1982.64 1184.3 Q1985.09 1184.3 1987.39 1183.69 Q1989.7 1183.09 1991.97 1181.89 L1991.97 1185.92 Q1989.68 1186.89 1987.27 1187.4 Q1984.86 1187.91 1982.39 1187.91 Q1976.18 1187.91 1972.55 1184.3 Q1968.94 1180.68 1968.94 1174.53 Q1968.94 1168.16 1972.36 1164.43 Q1975.81 1160.68 1981.64 1160.68 Q1986.88 1160.68 1989.91 1164.06 Q1992.96 1167.42 1992.96 1173.21 M1988.7 1171.96 Q1988.66 1168.46 1986.74 1166.38 Q1984.84 1164.3 1981.69 1164.3 Q1978.13 1164.3 1975.97 1166.31 Q1973.84 1168.32 1973.52 1171.98 L1988.7 1171.96 Z" fill="#000000" fill-rule="evenodd" fill-opacity="1"></path><path clip-path="url(#clip460)" d="M2001.04 1181.36 L2005.93 1181.36 L2005.93 1187.24 L2001.04 1187.24 L2001.04 1181.36 M2001.04 1162.72 L2005.93 1162.72 L2005.93 1168.6 L2001.04 1168.6 L2001.04 1162.72 Z" fill="#000000" fill-rule="evenodd" fill-opacity="1"></path><path clip-path="url(#clip460)" d="M2032.41 1183.3 L2040.05 1183.3 L2040.05 1156.93 L2031.74 1158.6 L2031.74 1154.34 L2040 1152.68 L2044.68 1152.68 L2044.68 1183.3 L2052.32 1183.3 L2052.32 1187.24 L2032.41 1187.24 L2032.41 1183.3 Z" fill="#000000" fill-rule="evenodd" fill-opacity="1"></path><path clip-path="url(#clip460)" d="M2061.76 1181.36 L2066.64 1181.36 L2066.64 1187.24 L2061.76 1187.24 L2061.76 1181.36 Z" fill="#000000" fill-rule="evenodd" fill-opacity="1"></path><path clip-path="url(#clip460)" d="M2086.83 1155.75 Q2083.22 1155.75 2081.39 1159.32 Q2079.58 1162.86 2079.58 1169.99 Q2079.58 1177.1 2081.39 1180.66 Q2083.22 1184.2 2086.83 1184.2 Q2090.46 1184.2 2092.27 1180.66 Q2094.1 1177.1 2094.1 1169.99 Q2094.1 1162.86 2092.27 1159.32 Q2090.46 1155.75 2086.83 1155.75 M2086.83 1152.05 Q2092.64 1152.05 2095.69 1156.66 Q2098.77 1161.24 2098.77 1169.99 Q2098.77 1178.72 2095.69 1183.32 Q2092.64 1187.91 2086.83 1187.91 Q2081.02 1187.91 2077.94 1183.32 Q2074.88 1178.72 2074.88 1169.99 Q2074.88 1161.24 2077.94 1156.66 Q2081.02 1152.05 2086.83 1152.05 Z" fill="#000000" fill-rule="evenodd" fill-opacity="1"></path><path clip-path="url(#clip460)" d="M2107.13 1186.52 L2107.13 1182.26 Q2108.89 1183.09 2110.69 1183.53 Q2112.5 1183.97 2114.24 1183.97 Q2118.87 1183.97 2121.3 1180.87 Q2123.75 1177.74 2124.1 1171.4 Q2122.75 1173.39 2120.69 1174.46 Q2118.63 1175.52 2116.13 1175.52 Q2110.95 1175.52 2107.92 1172.4 Q2104.91 1169.25 2104.91 1163.81 Q2104.91 1158.49 2108.06 1155.27 Q2111.2 1152.05 2116.44 1152.05 Q2122.43 1152.05 2125.58 1156.66 Q2128.75 1161.24 2128.75 1169.99 Q2128.75 1178.16 2124.86 1183.05 Q2121 1187.91 2114.44 1187.91 Q2112.69 1187.91 2110.88 1187.56 Q2109.07 1187.21 2107.13 1186.52 M2116.44 1171.87 Q2119.58 1171.87 2121.41 1169.71 Q2123.26 1167.56 2123.26 1163.81 Q2123.26 1160.08 2121.41 1157.93 Q2119.58 1155.75 2116.44 1155.75 Q2113.29 1155.75 2111.44 1157.93 Q2109.61 1160.08 2109.61 1163.81 Q2109.61 1167.56 2111.44 1169.71 Q2113.29 1171.87 2116.44 1171.87 Z" fill="#000000" fill-rule="evenodd" fill-opacity="1"></path><path clip-path="url(#clip460)" d="M2136.74 1152.68 L2158.59 1152.68 L2158.59 1156.61 L2141.41 1156.61 L2141.41 1166.84 L2157.87 1166.84 L2157.87 1170.78 L2141.41 1170.78 L2141.41 1183.3 L2159 1183.3 L2159 1187.24 L2136.74 1187.24 L2136.74 1152.68 Z" fill="#000000" fill-rule="evenodd" fill-opacity="1"></path><path clip-path="url(#clip460)" d="M2183.84 1157.51 L2183.84 1170.41 L2196.74 1170.41 L2196.74 1174.34 L2183.84 1174.34 L2183.84 1187.24 L2179.95 1187.24 L2179.95 1174.34 L2167.06 1174.34 L2167.06 1170.41 L2179.95 1170.41 L2179.95 1157.51 L2183.84 1157.51 Z" fill="#000000" fill-rule="evenodd" fill-opacity="1"></path><path clip-path="url(#clip460)" d="M2216.83 1155.75 Q2213.22 1155.75 2211.39 1159.32 Q2209.58 1162.86 2209.58 1169.99 Q2209.58 1177.1 2211.39 1180.66 Q2213.22 1184.2 2216.83 1184.2 Q2220.46 1184.2 2222.27 1180.66 Q2224.1 1177.1 2224.1 1169.99 Q2224.1 1162.86 2222.27 1159.32 Q2220.46 1155.75 2216.83 1155.75 M2216.83 1152.05 Q2222.64 1152.05 2225.69 1156.66 Q2228.77 1161.24 2228.77 1169.99 Q2228.77 1178.72 2225.69 1183.32 Q2222.64 1187.91 2216.83 1187.91 Q2211.02 1187.91 2207.94 1183.32 Q2204.88 1178.72 2204.88 1169.99 Q2204.88 1161.24 2207.94 1156.66 Q2211.02 1152.05 2216.83 1152.05 Z" fill="#000000" fill-rule="evenodd" fill-opacity="1"></path><path clip-path="url(#clip460)" d="M2237.04 1152.68 L2255.39 1152.68 L2255.39 1156.61 L2241.32 1156.61 L2241.32 1165.08 Q2242.34 1164.74 2243.36 1164.57 Q2244.37 1164.39 2245.39 1164.39 Q2251.18 1164.39 2254.56 1167.56 Q2257.94 1170.73 2257.94 1176.15 Q2257.94 1181.73 2254.47 1184.83 Q2250.99 1187.91 2244.68 1187.91 Q2242.5 1187.91 2240.23 1187.54 Q2237.99 1187.17 2235.58 1186.43 L2235.58 1181.73 Q2237.66 1182.86 2239.88 1183.42 Q2242.11 1183.97 2244.58 1183.97 Q2248.59 1183.97 2250.93 1181.86 Q2253.26 1179.76 2253.26 1176.15 Q2253.26 1172.54 2250.93 1170.43 Q2248.59 1168.32 2244.58 1168.32 Q2242.71 1168.32 2240.83 1168.74 Q2238.98 1169.16 2237.04 1170.04 L2237.04 1152.68 Z" fill="#000000" fill-rule="evenodd" fill-opacity="1"></path><polyline clip-path="url(#clip460)" style="stroke:#e26f46; stroke-linecap:round; stroke-linejoin:round; stroke-width:4; stroke-opacity:1; fill:none" points="
  1774.23,1221.8 1916.46,1221.8 
  "></polyline>
<path clip-path="url(#clip460)" d="M1956.55 1222.87 Q1958.06 1223.38 1959.47 1225.05 Q1960.9 1226.71 1962.34 1229.63 L1967.08 1239.08 L1962.06 1239.08 L1957.64 1230.21 Q1955.93 1226.74 1954.31 1225.6 Q1952.71 1224.47 1949.93 1224.47 L1944.84 1224.47 L1944.84 1239.08 L1940.16 1239.08 L1940.16 1204.52 L1950.72 1204.52 Q1956.64 1204.52 1959.56 1206.99 Q1962.48 1209.47 1962.48 1214.47 Q1962.48 1217.73 1960.95 1219.89 Q1959.45 1222.04 1956.55 1222.87 M1944.84 1208.36 L1944.84 1220.63 L1950.72 1220.63 Q1954.1 1220.63 1955.81 1219.08 Q1957.55 1217.5 1957.55 1214.47 Q1957.55 1211.44 1955.81 1209.91 Q1954.1 1208.36 1950.72 1208.36 L1944.84 1208.36 Z" fill="#000000" fill-rule="evenodd" fill-opacity="1"></path><path clip-path="url(#clip460)" d="M1992.96 1225.05 L1992.96 1227.13 L1973.38 1227.13 Q1973.66 1231.53 1976.02 1233.84 Q1978.4 1236.14 1982.64 1236.14 Q1985.09 1236.14 1987.39 1235.53 Q1989.7 1234.93 1991.97 1233.73 L1991.97 1237.76 Q1989.68 1238.73 1987.27 1239.24 Q1984.86 1239.75 1982.39 1239.75 Q1976.18 1239.75 1972.55 1236.14 Q1968.94 1232.52 1968.94 1226.37 Q1968.94 1220 1972.36 1216.27 Q1975.81 1212.52 1981.64 1212.52 Q1986.88 1212.52 1989.91 1215.9 Q1992.96 1219.26 1992.96 1225.05 M1988.7 1223.8 Q1988.66 1220.3 1986.74 1218.22 Q1984.84 1216.14 1981.69 1216.14 Q1978.13 1216.14 1975.97 1218.15 Q1973.84 1220.16 1973.52 1223.82 L1988.7 1223.8 Z" fill="#000000" fill-rule="evenodd" fill-opacity="1"></path><path clip-path="url(#clip460)" d="M2001.04 1233.2 L2005.93 1233.2 L2005.93 1239.08 L2001.04 1239.08 L2001.04 1233.2 M2001.04 1214.56 L2005.93 1214.56 L2005.93 1220.44 L2001.04 1220.44 L2001.04 1214.56 Z" fill="#000000" fill-rule="evenodd" fill-opacity="1"></path><path clip-path="url(#clip460)" d="M2032.41 1235.14 L2040.05 1235.14 L2040.05 1208.77 L2031.74 1210.44 L2031.74 1206.18 L2040 1204.52 L2044.68 1204.52 L2044.68 1235.14 L2052.32 1235.14 L2052.32 1239.08 L2032.41 1239.08 L2032.41 1235.14 Z" fill="#000000" fill-rule="evenodd" fill-opacity="1"></path><path clip-path="url(#clip460)" d="M2061.76 1233.2 L2066.64 1233.2 L2066.64 1239.08 L2061.76 1239.08 L2061.76 1233.2 Z" fill="#000000" fill-rule="evenodd" fill-opacity="1"></path><path clip-path="url(#clip460)" d="M2075.65 1204.52 L2097.87 1204.52 L2097.87 1206.51 L2085.32 1239.08 L2080.44 1239.08 L2092.25 1208.45 L2075.65 1208.45 L2075.65 1204.52 Z" fill="#000000" fill-rule="evenodd" fill-opacity="1"></path><path clip-path="url(#clip460)" d="M2105.81 1204.52 L2128.03 1204.52 L2128.03 1206.51 L2115.49 1239.08 L2110.6 1239.08 L2122.41 1208.45 L2105.81 1208.45 L2105.81 1204.52 Z" fill="#000000" fill-rule="evenodd" fill-opacity="1"></path><path clip-path="url(#clip460)" d="M2136.74 1204.52 L2158.59 1204.52 L2158.59 1208.45 L2141.41 1208.45 L2141.41 1218.68 L2157.87 1218.68 L2157.87 1222.62 L2141.41 1222.62 L2141.41 1235.14 L2159 1235.14 L2159 1239.08 L2136.74 1239.08 L2136.74 1204.52 Z" fill="#000000" fill-rule="evenodd" fill-opacity="1"></path><path clip-path="url(#clip460)" d="M2183.84 1209.35 L2183.84 1222.25 L2196.74 1222.25 L2196.74 1226.18 L2183.84 1226.18 L2183.84 1239.08 L2179.95 1239.08 L2179.95 1226.18 L2167.06 1226.18 L2167.06 1222.25 L2179.95 1222.25 L2179.95 1209.35 L2183.84 1209.35 Z" fill="#000000" fill-rule="evenodd" fill-opacity="1"></path><path clip-path="url(#clip460)" d="M2216.83 1207.59 Q2213.22 1207.59 2211.39 1211.16 Q2209.58 1214.7 2209.58 1221.83 Q2209.58 1228.94 2211.39 1232.5 Q2213.22 1236.04 2216.83 1236.04 Q2220.46 1236.04 2222.27 1232.5 Q2224.1 1228.94 2224.1 1221.83 Q2224.1 1214.7 2222.27 1211.16 Q2220.46 1207.59 2216.83 1207.59 M2216.83 1203.89 Q2222.64 1203.89 2225.69 1208.5 Q2228.77 1213.08 2228.77 1221.83 Q2228.77 1230.56 2225.69 1235.16 Q2222.64 1239.75 2216.83 1239.75 Q2211.02 1239.75 2207.94 1235.16 Q2204.88 1230.56 2204.88 1221.83 Q2204.88 1213.08 2207.94 1208.5 Q2211.02 1203.89 2216.83 1203.89 Z" fill="#000000" fill-rule="evenodd" fill-opacity="1"></path><path clip-path="url(#clip460)" d="M2237.04 1204.52 L2255.39 1204.52 L2255.39 1208.45 L2241.32 1208.45 L2241.32 1216.92 Q2242.34 1216.58 2243.36 1216.41 Q2244.37 1216.23 2245.39 1216.23 Q2251.18 1216.23 2254.56 1219.4 Q2257.94 1222.57 2257.94 1227.99 Q2257.94 1233.57 2254.47 1236.67 Q2250.99 1239.75 2244.68 1239.75 Q2242.5 1239.75 2240.23 1239.38 Q2237.99 1239.01 2235.58 1238.27 L2235.58 1233.57 Q2237.66 1234.7 2239.88 1235.26 Q2242.11 1235.81 2244.58 1235.81 Q2248.59 1235.81 2250.93 1233.7 Q2253.26 1231.6 2253.26 1227.99 Q2253.26 1224.38 2250.93 1222.27 Q2248.59 1220.16 2244.58 1220.16 Q2242.71 1220.16 2240.83 1220.58 Q2238.98 1221 2237.04 1221.88 L2237.04 1204.52 Z" fill="#000000" fill-rule="evenodd" fill-opacity="1"></path><polyline clip-path="url(#clip460)" style="stroke:#3da44d; stroke-linecap:round; stroke-linejoin:round; stroke-width:4; stroke-opacity:1; fill:none" points="
  1774.23,1273.64 1916.46,1273.64 
  "></polyline>
<path clip-path="url(#clip460)" d="M1956.55 1274.71 Q1958.06 1275.22 1959.47 1276.89 Q1960.9 1278.55 1962.34 1281.47 L1967.08 1290.92 L1962.06 1290.92 L1957.64 1282.05 Q1955.93 1278.58 1954.31 1277.44 Q1952.71 1276.31 1949.93 1276.31 L1944.84 1276.31 L1944.84 1290.92 L1940.16 1290.92 L1940.16 1256.36 L1950.72 1256.36 Q1956.64 1256.36 1959.56 1258.83 Q1962.48 1261.31 1962.48 1266.31 Q1962.48 1269.57 1960.95 1271.73 Q1959.45 1273.88 1956.55 1274.71 M1944.84 1260.2 L1944.84 1272.47 L1950.72 1272.47 Q1954.1 1272.47 1955.81 1270.92 Q1957.55 1269.34 1957.55 1266.31 Q1957.55 1263.28 1955.81 1261.75 Q1954.1 1260.2 1950.72 1260.2 L1944.84 1260.2 Z" fill="#000000" fill-rule="evenodd" fill-opacity="1"></path><path clip-path="url(#clip460)" d="M1992.96 1276.89 L1992.96 1278.97 L1973.38 1278.97 Q1973.66 1283.37 1976.02 1285.68 Q1978.4 1287.98 1982.64 1287.98 Q1985.09 1287.98 1987.39 1287.37 Q1989.7 1286.77 1991.97 1285.57 L1991.97 1289.6 Q1989.68 1290.57 1987.27 1291.08 Q1984.86 1291.59 1982.39 1291.59 Q1976.18 1291.59 1972.55 1287.98 Q1968.94 1284.36 1968.94 1278.21 Q1968.94 1271.84 1972.36 1268.11 Q1975.81 1264.36 1981.64 1264.36 Q1986.88 1264.36 1989.91 1267.74 Q1992.96 1271.1 1992.96 1276.89 M1988.7 1275.64 Q1988.66 1272.14 1986.74 1270.06 Q1984.84 1267.98 1981.69 1267.98 Q1978.13 1267.98 1975.97 1269.99 Q1973.84 1272 1973.52 1275.66 L1988.7 1275.64 Z" fill="#000000" fill-rule="evenodd" fill-opacity="1"></path><path clip-path="url(#clip460)" d="M2001.04 1285.04 L2005.93 1285.04 L2005.93 1290.92 L2001.04 1290.92 L2001.04 1285.04 M2001.04 1266.4 L2005.93 1266.4 L2005.93 1272.28 L2001.04 1272.28 L2001.04 1266.4 Z" fill="#000000" fill-rule="evenodd" fill-opacity="1"></path><path clip-path="url(#clip460)" d="M2035.63 1286.98 L2051.94 1286.98 L2051.94 1290.92 L2030 1290.92 L2030 1286.98 Q2032.66 1284.23 2037.25 1279.6 Q2041.85 1274.94 2043.03 1273.6 Q2045.28 1271.08 2046.16 1269.34 Q2047.06 1267.58 2047.06 1265.89 Q2047.06 1263.14 2045.12 1261.4 Q2043.19 1259.67 2040.09 1259.67 Q2037.89 1259.67 2035.44 1260.43 Q2033.01 1261.19 2030.23 1262.74 L2030.23 1258.02 Q2033.06 1256.89 2035.51 1256.31 Q2037.96 1255.73 2040 1255.73 Q2045.37 1255.73 2048.57 1258.42 Q2051.76 1261.1 2051.76 1265.59 Q2051.76 1267.72 2050.95 1269.64 Q2050.16 1271.54 2048.06 1274.13 Q2047.48 1274.8 2044.38 1278.02 Q2041.27 1281.22 2035.63 1286.98 Z" fill="#000000" fill-rule="evenodd" fill-opacity="1"></path><path clip-path="url(#clip460)" d="M2061.76 1285.04 L2066.64 1285.04 L2066.64 1290.92 L2061.76 1290.92 L2061.76 1285.04 Z" fill="#000000" fill-rule="evenodd" fill-opacity="1"></path><path clip-path="url(#clip460)" d="M2089.68 1260.43 L2077.87 1278.88 L2089.68 1278.88 L2089.68 1260.43 M2088.45 1256.36 L2094.33 1256.36 L2094.33 1278.88 L2099.26 1278.88 L2099.26 1282.77 L2094.33 1282.77 L2094.33 1290.92 L2089.68 1290.92 L2089.68 1282.77 L2074.07 1282.77 L2074.07 1278.25 L2088.45 1256.36 Z" fill="#000000" fill-rule="evenodd" fill-opacity="1"></path><path clip-path="url(#clip460)" d="M2107.04 1256.36 L2125.39 1256.36 L2125.39 1260.29 L2111.32 1260.29 L2111.32 1268.76 Q2112.34 1268.42 2113.36 1268.25 Q2114.38 1268.07 2115.39 1268.07 Q2121.18 1268.07 2124.56 1271.24 Q2127.94 1274.41 2127.94 1279.83 Q2127.94 1285.41 2124.47 1288.51 Q2121 1291.59 2114.68 1291.59 Q2112.5 1291.59 2110.23 1291.22 Q2107.99 1290.85 2105.58 1290.11 L2105.58 1285.41 Q2107.66 1286.54 2109.88 1287.1 Q2112.11 1287.65 2114.58 1287.65 Q2118.59 1287.65 2120.93 1285.54 Q2123.26 1283.44 2123.26 1279.83 Q2123.26 1276.22 2120.93 1274.11 Q2118.59 1272 2114.58 1272 Q2112.71 1272 2110.83 1272.42 Q2108.98 1272.84 2107.04 1273.72 L2107.04 1256.36 Z" fill="#000000" fill-rule="evenodd" fill-opacity="1"></path><path clip-path="url(#clip460)" d="M2136.74 1256.36 L2158.59 1256.36 L2158.59 1260.29 L2141.41 1260.29 L2141.41 1270.52 L2157.87 1270.52 L2157.87 1274.46 L2141.41 1274.46 L2141.41 1286.98 L2159 1286.98 L2159 1290.92 L2136.74 1290.92 L2136.74 1256.36 Z" fill="#000000" fill-rule="evenodd" fill-opacity="1"></path><path clip-path="url(#clip460)" d="M2183.84 1261.19 L2183.84 1274.09 L2196.74 1274.09 L2196.74 1278.02 L2183.84 1278.02 L2183.84 1290.92 L2179.95 1290.92 L2179.95 1278.02 L2167.06 1278.02 L2167.06 1274.09 L2179.95 1274.09 L2179.95 1261.19 L2183.84 1261.19 Z" fill="#000000" fill-rule="evenodd" fill-opacity="1"></path><path clip-path="url(#clip460)" d="M2216.83 1259.43 Q2213.22 1259.43 2211.39 1263 Q2209.58 1266.54 2209.58 1273.67 Q2209.58 1280.78 2211.39 1284.34 Q2213.22 1287.88 2216.83 1287.88 Q2220.46 1287.88 2222.27 1284.34 Q2224.1 1280.78 2224.1 1273.67 Q2224.1 1266.54 2222.27 1263 Q2220.46 1259.43 2216.83 1259.43 M2216.83 1255.73 Q2222.64 1255.73 2225.69 1260.34 Q2228.77 1264.92 2228.77 1273.67 Q2228.77 1282.4 2225.69 1287 Q2222.64 1291.59 2216.83 1291.59 Q2211.02 1291.59 2207.94 1287 Q2204.88 1282.4 2204.88 1273.67 Q2204.88 1264.92 2207.94 1260.34 Q2211.02 1255.73 2216.83 1255.73 Z" fill="#000000" fill-rule="evenodd" fill-opacity="1"></path><path clip-path="url(#clip460)" d="M2237.04 1256.36 L2255.39 1256.36 L2255.39 1260.29 L2241.32 1260.29 L2241.32 1268.76 Q2242.34 1268.42 2243.36 1268.25 Q2244.37 1268.07 2245.39 1268.07 Q2251.18 1268.07 2254.56 1271.24 Q2257.94 1274.41 2257.94 1279.83 Q2257.94 1285.41 2254.47 1288.51 Q2250.99 1291.59 2244.68 1291.59 Q2242.5 1291.59 2240.23 1291.22 Q2237.99 1290.85 2235.58 1290.11 L2235.58 1285.41 Q2237.66 1286.54 2239.88 1287.1 Q2242.11 1287.65 2244.58 1287.65 Q2248.59 1287.65 2250.93 1285.54 Q2253.26 1283.44 2253.26 1279.83 Q2253.26 1276.22 2250.93 1274.11 Q2248.59 1272 2244.58 1272 Q2242.71 1272 2240.83 1272.42 Q2238.98 1272.84 2237.04 1273.72 L2237.04 1256.36 Z" fill="#000000" fill-rule="evenodd" fill-opacity="1"></path><polyline clip-path="url(#clip460)" style="stroke:#c271d2; stroke-linecap:round; stroke-linejoin:round; stroke-width:4; stroke-opacity:1; fill:none" points="
  1774.23,1325.48 1916.46,1325.48 
  "></polyline>
<path clip-path="url(#clip460)" d="M1956.55 1326.55 Q1958.06 1327.06 1959.47 1328.73 Q1960.9 1330.39 1962.34 1333.31 L1967.08 1342.76 L1962.06 1342.76 L1957.64 1333.89 Q1955.93 1330.42 1954.31 1329.28 Q1952.71 1328.15 1949.93 1328.15 L1944.84 1328.15 L1944.84 1342.76 L1940.16 1342.76 L1940.16 1308.2 L1950.72 1308.2 Q1956.64 1308.2 1959.56 1310.67 Q1962.48 1313.15 1962.48 1318.15 Q1962.48 1321.41 1960.95 1323.57 Q1959.45 1325.72 1956.55 1326.55 M1944.84 1312.04 L1944.84 1324.31 L1950.72 1324.31 Q1954.1 1324.31 1955.81 1322.76 Q1957.55 1321.18 1957.55 1318.15 Q1957.55 1315.12 1955.81 1313.59 Q1954.1 1312.04 1950.72 1312.04 L1944.84 1312.04 Z" fill="#000000" fill-rule="evenodd" fill-opacity="1"></path><path clip-path="url(#clip460)" d="M1992.96 1328.73 L1992.96 1330.81 L1973.38 1330.81 Q1973.66 1335.21 1976.02 1337.52 Q1978.4 1339.82 1982.64 1339.82 Q1985.09 1339.82 1987.39 1339.21 Q1989.7 1338.61 1991.97 1337.41 L1991.97 1341.44 Q1989.68 1342.41 1987.27 1342.92 Q1984.86 1343.43 1982.39 1343.43 Q1976.18 1343.43 1972.55 1339.82 Q1968.94 1336.2 1968.94 1330.05 Q1968.94 1323.68 1972.36 1319.95 Q1975.81 1316.2 1981.64 1316.2 Q1986.88 1316.2 1989.91 1319.58 Q1992.96 1322.94 1992.96 1328.73 M1988.7 1327.48 Q1988.66 1323.98 1986.74 1321.9 Q1984.84 1319.82 1981.69 1319.82 Q1978.13 1319.82 1975.97 1321.83 Q1973.84 1323.84 1973.52 1327.5 L1988.7 1327.48 Z" fill="#000000" fill-rule="evenodd" fill-opacity="1"></path><path clip-path="url(#clip460)" d="M2001.04 1336.88 L2005.93 1336.88 L2005.93 1342.76 L2001.04 1342.76 L2001.04 1336.88 M2001.04 1318.24 L2005.93 1318.24 L2005.93 1324.12 L2001.04 1324.12 L2001.04 1318.24 Z" fill="#000000" fill-rule="evenodd" fill-opacity="1"></path><path clip-path="url(#clip460)" d="M2031.64 1308.2 L2050 1308.2 L2050 1312.13 L2035.93 1312.13 L2035.93 1320.6 Q2036.95 1320.26 2037.96 1320.09 Q2038.98 1319.91 2040 1319.91 Q2045.79 1319.91 2049.17 1323.08 Q2052.55 1326.25 2052.55 1331.67 Q2052.55 1337.25 2049.07 1340.35 Q2045.6 1343.43 2039.28 1343.43 Q2037.11 1343.43 2034.84 1343.06 Q2032.59 1342.69 2030.19 1341.95 L2030.19 1337.25 Q2032.27 1338.38 2034.49 1338.94 Q2036.71 1339.49 2039.19 1339.49 Q2043.19 1339.49 2045.53 1337.38 Q2047.87 1335.28 2047.87 1331.67 Q2047.87 1328.06 2045.53 1325.95 Q2043.19 1323.84 2039.19 1323.84 Q2037.32 1323.84 2035.44 1324.26 Q2033.59 1324.68 2031.64 1325.56 L2031.64 1308.2 Z" fill="#000000" fill-rule="evenodd" fill-opacity="1"></path><path clip-path="url(#clip460)" d="M2061.76 1336.88 L2066.64 1336.88 L2066.64 1342.76 L2061.76 1342.76 L2061.76 1336.88 Z" fill="#000000" fill-rule="evenodd" fill-opacity="1"></path><path clip-path="url(#clip460)" d="M2089.68 1312.27 L2077.87 1330.72 L2089.68 1330.72 L2089.68 1312.27 M2088.45 1308.2 L2094.33 1308.2 L2094.33 1330.72 L2099.26 1330.72 L2099.26 1334.61 L2094.33 1334.61 L2094.33 1342.76 L2089.68 1342.76 L2089.68 1334.61 L2074.07 1334.61 L2074.07 1330.09 L2088.45 1308.2 Z" fill="#000000" fill-rule="evenodd" fill-opacity="1"></path><path clip-path="url(#clip460)" d="M2119.84 1312.27 L2108.03 1330.72 L2119.84 1330.72 L2119.84 1312.27 M2118.61 1308.2 L2124.49 1308.2 L2124.49 1330.72 L2129.42 1330.72 L2129.42 1334.61 L2124.49 1334.61 L2124.49 1342.76 L2119.84 1342.76 L2119.84 1334.61 L2104.24 1334.61 L2104.24 1330.09 L2118.61 1308.2 Z" fill="#000000" fill-rule="evenodd" fill-opacity="1"></path><path clip-path="url(#clip460)" d="M2136.74 1308.2 L2158.59 1308.2 L2158.59 1312.13 L2141.41 1312.13 L2141.41 1322.36 L2157.87 1322.36 L2157.87 1326.3 L2141.41 1326.3 L2141.41 1338.82 L2159 1338.82 L2159 1342.76 L2136.74 1342.76 L2136.74 1308.2 Z" fill="#000000" fill-rule="evenodd" fill-opacity="1"></path><path clip-path="url(#clip460)" d="M2183.84 1313.03 L2183.84 1325.93 L2196.74 1325.93 L2196.74 1329.86 L2183.84 1329.86 L2183.84 1342.76 L2179.95 1342.76 L2179.95 1329.86 L2167.06 1329.86 L2167.06 1325.93 L2179.95 1325.93 L2179.95 1313.03 L2183.84 1313.03 Z" fill="#000000" fill-rule="evenodd" fill-opacity="1"></path><path clip-path="url(#clip460)" d="M2216.83 1311.27 Q2213.22 1311.27 2211.39 1314.84 Q2209.58 1318.38 2209.58 1325.51 Q2209.58 1332.62 2211.39 1336.18 Q2213.22 1339.72 2216.83 1339.72 Q2220.46 1339.72 2222.27 1336.18 Q2224.1 1332.62 2224.1 1325.51 Q2224.1 1318.38 2222.27 1314.84 Q2220.46 1311.27 2216.83 1311.27 M2216.83 1307.57 Q2222.64 1307.57 2225.69 1312.18 Q2228.77 1316.76 2228.77 1325.51 Q2228.77 1334.24 2225.69 1338.84 Q2222.64 1343.43 2216.83 1343.43 Q2211.02 1343.43 2207.94 1338.84 Q2204.88 1334.24 2204.88 1325.51 Q2204.88 1316.76 2207.94 1312.18 Q2211.02 1307.57 2216.83 1307.57 Z" fill="#000000" fill-rule="evenodd" fill-opacity="1"></path><path clip-path="url(#clip460)" d="M2237.04 1308.2 L2255.39 1308.2 L2255.39 1312.13 L2241.32 1312.13 L2241.32 1320.6 Q2242.34 1320.26 2243.36 1320.09 Q2244.37 1319.91 2245.39 1319.91 Q2251.18 1319.91 2254.56 1323.08 Q2257.94 1326.25 2257.94 1331.67 Q2257.94 1337.25 2254.47 1340.35 Q2250.99 1343.43 2244.68 1343.43 Q2242.5 1343.43 2240.23 1343.06 Q2237.99 1342.69 2235.58 1341.95 L2235.58 1337.25 Q2237.66 1338.38 2239.88 1338.94 Q2242.11 1339.49 2244.58 1339.49 Q2248.59 1339.49 2250.93 1337.38 Q2253.26 1335.28 2253.26 1331.67 Q2253.26 1328.06 2250.93 1325.95 Q2248.59 1323.84 2244.58 1323.84 Q2242.71 1323.84 2240.83 1324.26 Q2238.98 1324.68 2237.04 1325.56 L2237.04 1308.2 Z" fill="#000000" fill-rule="evenodd" fill-opacity="1"></path></svg>