<svg xmlns="http://www.w3.org/2000/svg" xmlns:xlink="http://www.w3.org/1999/xlink" width="600" height="400" viewBox="0 0 2400 1600">
<defs>
  <clipPath id="clip660">
    <rect x="0" y="0" width="2400" height="1600"></rect>
  </clipPath>
</defs>
<path clip-path="url(#clip660)" d="
M0 1600 L2400 1600 L2400 0 L0 0  Z
  " fill="#ffffff" fill-rule="evenodd" fill-opacity="1"></path>
<defs>
  <clipPath id="clip661">
    <rect x="480" y="0" width="1681" height="1600"></rect>
  </clipPath>
</defs>
<defs>
  <clipPath id="clip662">
    <rect x="192" y="47" width="2161" height="1440"></rect>
  </clipPath>
</defs>
<path clip-path="url(#clip660)" d="
M219.542 1423.18 L2352.76 1423.18 L2352.76 47.2441 L219.542 47.2441  Z
  " fill="#ffffff" fill-rule="evenodd" fill-opacity="1"></path>
<defs>
  <clipPath id="clip663">
    <rect x="219" y="47" width="2134" height="1377"></rect>
  </clipPath>
</defs>
<polyline clip-path="url(#clip663)" style="stroke:#000000; stroke-linecap:round; stroke-linejoin:round; stroke-width:2; stroke-opacity:0.1; fill:none" points="
  279.916,1423.18 279.916,47.2441 
  "></polyline>
<polyline clip-path="url(#clip663)" style="stroke:#000000; stroke-linecap:round; stroke-linejoin:round; stroke-width:2; stroke-opacity:0.1; fill:none" points="
  783.033,1423.18 783.033,47.2441 
  "></polyline>
<polyline clip-path="url(#clip663)" style="stroke:#000000; stroke-linecap:round; stroke-linejoin:round; stroke-width:2; stroke-opacity:0.1; fill:none" points="
  1286.15,1423.18 1286.15,47.2441 
  "></polyline>
<polyline clip-path="url(#clip663)" style="stroke:#000000; stroke-linecap:round; stroke-linejoin:round; stroke-width:2; stroke-opacity:0.1; fill:none" points="
  1789.27,1423.18 1789.27,47.2441 
  "></polyline>
<polyline clip-path="url(#clip663)" style="stroke:#000000; stroke-linecap:round; stroke-linejoin:round; stroke-width:2; stroke-opacity:0.1; fill:none" points="
  2292.38,1423.18 2292.38,47.2441 
  "></polyline>
<polyline clip-path="url(#clip660)" style="stroke:#000000; stroke-linecap:round; stroke-linejoin:round; stroke-width:4; stroke-opacity:1; fill:none" points="
  219.542,1423.18 2352.76,1423.18 
  "></polyline>
<polyline clip-path="url(#clip660)" style="stroke:#000000; stroke-linecap:round; stroke-linejoin:round; stroke-width:4; stroke-opacity:1; fill:none" points="
  279.916,1423.18 279.916,1404.28 
  "></polyline>
<polyline clip-path="url(#clip660)" style="stroke:#000000; stroke-linecap:round; stroke-linejoin:round; stroke-width:4; stroke-opacity:1; fill:none" points="
  783.033,1423.18 783.033,1404.28 
  "></polyline>
<polyline clip-path="url(#clip660)" style="stroke:#000000; stroke-linecap:round; stroke-linejoin:round; stroke-width:4; stroke-opacity:1; fill:none" points="
  1286.15,1423.18 1286.15,1404.28 
  "></polyline>
<polyline clip-path="url(#clip660)" style="stroke:#000000; stroke-linecap:round; stroke-linejoin:round; stroke-width:4; stroke-opacity:1; fill:none" points="
  1789.27,1423.18 1789.27,1404.28 
  "></polyline>
<polyline clip-path="url(#clip660)" style="stroke:#000000; stroke-linecap:round; stroke-linejoin:round; stroke-width:4; stroke-opacity:1; fill:none" points="
  2292.38,1423.18 2292.38,1404.28 
  "></polyline>
<path clip-path="url(#clip660)" d="M279.916 1454.1 Q276.305 1454.1 274.476 1457.66 Q272.671 1461.2 272.671 1468.33 Q272.671 1475.44 274.476 1479.01 Q276.305 1482.55 279.916 1482.55 Q283.55 1482.55 285.356 1479.01 Q287.185 1475.44 287.185 1468.33 Q287.185 1461.2 285.356 1457.66 Q283.55 1454.1 279.916 1454.1 M279.916 1450.39 Q285.726 1450.39 288.782 1455 Q291.861 1459.58 291.861 1468.33 Q291.861 1477.06 288.782 1481.67 Q285.726 1486.25 279.916 1486.25 Q274.106 1486.25 271.027 1481.67 Q267.972 1477.06 267.972 1468.33 Q267.972 1459.58 271.027 1455 Q274.106 1450.39 279.916 1450.39 Z" fill="#000000" fill-rule="evenodd" fill-opacity="1"></path><path clip-path="url(#clip660)" d="M773.31 1451.02 L791.667 1451.02 L791.667 1454.96 L777.593 1454.96 L777.593 1463.43 Q778.611 1463.08 779.63 1462.92 Q780.648 1462.73 781.667 1462.73 Q787.454 1462.73 790.833 1465.9 Q794.213 1469.08 794.213 1474.49 Q794.213 1480.07 790.741 1483.17 Q787.269 1486.25 780.949 1486.25 Q778.773 1486.25 776.505 1485.88 Q774.26 1485.51 771.852 1484.77 L771.852 1480.07 Q773.935 1481.2 776.158 1481.76 Q778.38 1482.32 780.857 1482.32 Q784.861 1482.32 787.199 1480.21 Q789.537 1478.1 789.537 1474.49 Q789.537 1470.88 787.199 1468.77 Q784.861 1466.67 780.857 1466.67 Q778.982 1466.67 777.107 1467.08 Q775.255 1467.5 773.31 1468.38 L773.31 1451.02 Z" fill="#000000" fill-rule="evenodd" fill-opacity="1"></path><path clip-path="url(#clip660)" d="M1260.84 1481.64 L1268.48 1481.64 L1268.48 1455.28 L1260.17 1456.95 L1260.17 1452.69 L1268.43 1451.02 L1273.11 1451.02 L1273.11 1481.64 L1280.74 1481.64 L1280.74 1485.58 L1260.84 1485.58 L1260.84 1481.64 Z" fill="#000000" fill-rule="evenodd" fill-opacity="1"></path><path clip-path="url(#clip660)" d="M1300.19 1454.1 Q1296.58 1454.1 1294.75 1457.66 Q1292.94 1461.2 1292.94 1468.33 Q1292.94 1475.44 1294.75 1479.01 Q1296.58 1482.55 1300.19 1482.55 Q1303.82 1482.55 1305.63 1479.01 Q1307.46 1475.44 1307.46 1468.33 Q1307.46 1461.2 1305.63 1457.66 Q1303.82 1454.1 1300.19 1454.1 M1300.19 1450.39 Q1306 1450.39 1309.05 1455 Q1312.13 1459.58 1312.13 1468.33 Q1312.13 1477.06 1309.05 1481.67 Q1306 1486.25 1300.19 1486.25 Q1294.38 1486.25 1291.3 1481.67 Q1288.24 1477.06 1288.24 1468.33 Q1288.24 1459.58 1291.3 1455 Q1294.38 1450.39 1300.19 1450.39 Z" fill="#000000" fill-rule="evenodd" fill-opacity="1"></path><path clip-path="url(#clip660)" d="M1764.45 1481.64 L1772.09 1481.64 L1772.09 1455.28 L1763.78 1456.95 L1763.78 1452.69 L1772.04 1451.02 L1776.72 1451.02 L1776.72 1481.64 L1784.36 1481.64 L1784.36 1485.58 L1764.45 1485.58 L1764.45 1481.64 Z" fill="#000000" fill-rule="evenodd" fill-opacity="1"></path><path clip-path="url(#clip660)" d="M1793.85 1451.02 L1812.21 1451.02 L1812.21 1454.96 L1798.13 1454.96 L1798.13 1463.43 Q1799.15 1463.08 1800.17 1462.92 Q1801.19 1462.73 1802.21 1462.73 Q1807.99 1462.73 1811.37 1465.9 Q1814.75 1469.08 1814.75 1474.49 Q1814.75 1480.07 1811.28 1483.17 Q1807.81 1486.25 1801.49 1486.25 Q1799.31 1486.25 1797.04 1485.88 Q1794.8 1485.51 1792.39 1484.77 L1792.39 1480.07 Q1794.47 1481.2 1796.7 1481.76 Q1798.92 1482.32 1801.4 1482.32 Q1805.4 1482.32 1807.74 1480.21 Q1810.08 1478.1 1810.08 1474.49 Q1810.08 1470.88 1807.74 1468.77 Q1805.4 1466.67 1801.4 1466.67 Q1799.52 1466.67 1797.65 1467.08 Q1795.79 1467.5 1793.85 1468.38 L1793.85 1451.02 Z" fill="#000000" fill-rule="evenodd" fill-opacity="1"></path><path clip-path="url(#clip660)" d="M2271.16 1481.64 L2287.47 1481.64 L2287.47 1485.58 L2265.53 1485.58 L2265.53 1481.64 Q2268.19 1478.89 2272.78 1474.26 Q2277.38 1469.61 2278.56 1468.27 Q2280.81 1465.74 2281.69 1464.01 Q2282.59 1462.25 2282.59 1460.56 Q2282.59 1457.8 2280.65 1456.07 Q2278.72 1454.33 2275.62 1454.33 Q2273.42 1454.33 2270.97 1455.09 Q2268.54 1455.86 2265.76 1457.41 L2265.76 1452.69 Q2268.59 1451.55 2271.04 1450.97 Q2273.49 1450.39 2275.53 1450.39 Q2280.9 1450.39 2284.09 1453.08 Q2287.29 1455.77 2287.29 1460.26 Q2287.29 1462.39 2286.48 1464.31 Q2285.69 1466.2 2283.59 1468.8 Q2283.01 1469.47 2279.91 1472.69 Q2276.8 1475.88 2271.16 1481.64 Z" fill="#000000" fill-rule="evenodd" fill-opacity="1"></path><path clip-path="url(#clip660)" d="M2307.29 1454.1 Q2303.68 1454.1 2301.85 1457.66 Q2300.04 1461.2 2300.04 1468.33 Q2300.04 1475.44 2301.85 1479.01 Q2303.68 1482.55 2307.29 1482.55 Q2310.92 1482.55 2312.73 1479.01 Q2314.56 1475.44 2314.56 1468.33 Q2314.56 1461.2 2312.73 1457.66 Q2310.92 1454.1 2307.29 1454.1 M2307.29 1450.39 Q2313.1 1450.39 2316.15 1455 Q2319.23 1459.58 2319.23 1468.33 Q2319.23 1477.06 2316.15 1481.67 Q2313.1 1486.25 2307.29 1486.25 Q2301.48 1486.25 2298.4 1481.67 Q2295.34 1477.06 2295.34 1468.33 Q2295.34 1459.58 2298.4 1455 Q2301.48 1450.39 2307.29 1450.39 Z" fill="#000000" fill-rule="evenodd" fill-opacity="1"></path><path clip-path="url(#clip660)" d="M976.894 1554.55 Q976.894 1555.16 976.636 1555.48 Q976.411 1555.77 976.185 1555.84 Q975.992 1555.87 975.702 1555.87 Q974.865 1555.87 971.966 1555.77 Q969.068 1555.67 968.23 1555.67 Q966.878 1555.67 964.108 1555.77 Q961.338 1555.87 959.986 1555.87 Q959.084 1555.87 959.084 1555.13 Q959.084 1554.64 959.181 1554.39 Q959.277 1554.1 959.535 1554 Q959.825 1553.87 959.986 1553.87 Q960.179 1553.84 960.662 1553.84 Q961.306 1553.84 961.982 1553.77 Q962.659 1553.68 963.496 1553.48 Q964.334 1553.29 964.849 1552.81 Q965.396 1552.33 965.396 1551.65 Q965.396 1551.36 965.171 1548.98 Q964.945 1546.59 964.656 1543.82 Q964.366 1541.02 964.334 1540.63 L947.78 1540.63 Q946.266 1543.24 945.203 1545.05 Q944.14 1546.85 943.754 1547.46 Q943.367 1548.07 943.142 1548.46 Q942.917 1548.85 942.788 1549.07 Q941.854 1550.78 941.854 1551.52 Q941.854 1553.58 944.946 1553.84 Q946.008 1553.84 946.008 1554.61 Q946.008 1555.19 945.751 1555.51 Q945.493 1555.8 945.268 1555.84 Q945.074 1555.87 944.752 1555.87 Q943.69 1555.87 941.467 1555.77 Q939.245 1555.67 938.15 1555.67 Q937.216 1555.67 935.284 1555.77 Q933.351 1555.87 932.482 1555.87 Q932.095 1555.87 931.87 1555.64 Q931.645 1555.42 931.645 1555.13 Q931.645 1554.68 931.709 1554.42 Q931.806 1554.16 932.063 1554.03 Q932.321 1553.9 932.45 1553.9 Q932.579 1553.87 933.029 1553.84 Q935.477 1553.68 937.377 1552.52 Q939.31 1551.33 941.145 1548.27 L964.076 1509.75 Q964.301 1509.36 964.462 1509.17 Q964.623 1508.98 964.945 1508.82 Q965.3 1508.65 965.815 1508.65 Q966.62 1508.65 966.781 1508.91 Q966.942 1509.14 967.039 1510.23 L971.065 1551.46 Q971.161 1552.33 971.226 1552.68 Q971.322 1553 971.741 1553.36 Q972.192 1553.68 972.997 1553.77 Q973.834 1553.84 975.38 1553.84 Q975.96 1553.84 976.185 1553.87 Q976.411 1553.87 976.636 1554.03 Q976.894 1554.19 976.894 1554.55 M964.14 1538.57 L962.047 1516.83 L949.036 1538.57 L964.14 1538.57 Z" fill="#000000" fill-rule="evenodd" fill-opacity="1"></path><path clip-path="url(#clip660)" d="M1015.33 1546.43 Q1015.33 1546.69 1015.04 1547.69 Q1014.75 1548.69 1014.04 1550.23 Q1013.37 1551.78 1012.43 1553.19 Q1011.5 1554.58 1009.95 1555.61 Q1008.44 1556.61 1006.7 1556.61 Q1004.38 1556.61 1002.84 1555.06 Q1001.29 1553.52 1001.29 1551.2 Q1001.29 1549.91 1001.97 1548.14 Q1006.25 1536.71 1006.25 1532.78 Q1006.25 1528.17 1002.68 1528.17 Q1000.9 1528.17 999.23 1528.85 Q997.588 1529.49 996.461 1530.39 Q995.333 1531.29 994.303 1532.55 Q993.304 1533.77 992.789 1534.61 Q992.306 1535.42 991.92 1536.22 L991.082 1539.51 Q990.889 1540.41 989.955 1543.92 L988.506 1549.88 Q987.475 1554.32 987.25 1554.74 Q986.928 1555.64 986.219 1556.13 Q985.511 1556.61 984.802 1556.61 Q983.997 1556.61 983.449 1556.13 Q982.902 1555.64 982.902 1554.8 Q982.902 1554.68 982.998 1554.19 Q983.095 1553.71 983.256 1553.03 Q983.417 1552.36 983.482 1551.97 L987.314 1536.74 Q988.023 1533.97 988.184 1533.1 Q988.377 1532.2 988.377 1531.2 Q988.377 1528.17 986.316 1528.17 Q984.641 1528.17 983.546 1530.17 Q982.451 1532.16 981.517 1536.03 Q981.227 1537.09 981.034 1537.32 Q980.873 1537.54 980.39 1537.54 Q979.585 1537.51 979.585 1536.87 Q979.585 1536.71 979.842 1535.64 Q980.1 1534.58 980.583 1533.07 Q981.098 1531.52 981.581 1530.49 Q982 1529.72 982.226 1529.36 Q982.483 1528.98 983.095 1528.24 Q983.739 1527.46 984.577 1527.11 Q985.446 1526.72 986.509 1526.72 Q988.892 1526.72 990.631 1528.27 Q992.37 1529.78 992.596 1532.45 Q996.879 1526.72 1002.87 1526.72 Q1006.41 1526.72 1008.44 1528.59 Q1010.47 1530.46 1010.47 1533.77 Q1010.47 1534.55 1010.31 1535.55 Q1010.18 1536.51 1009.86 1537.74 Q1009.57 1538.96 1009.31 1539.89 Q1009.05 1540.83 1008.54 1542.34 Q1008.02 1543.82 1007.8 1544.47 Q1007.57 1545.11 1007.02 1546.62 Q1006.51 1548.11 1006.44 1548.27 Q1005.25 1551.26 1005.25 1552.97 Q1005.25 1554.1 1005.61 1554.61 Q1005.99 1555.13 1006.83 1555.13 Q1009.09 1555.13 1010.76 1552.9 Q1012.47 1550.65 1013.56 1546.98 Q1013.82 1546.17 1013.95 1545.98 Q1014.11 1545.79 1014.56 1545.79 Q1015.33 1545.79 1015.33 1546.43 Z" fill="#000000" fill-rule="evenodd" fill-opacity="1"></path><path clip-path="url(#clip660)" d="M1048.24 1529.81 Q1048.24 1529.85 1048.04 1531 L1040.7 1560.28 Q1040.31 1561.83 1039.22 1563.37 Q1038.16 1564.95 1036.45 1566.3 Q1034.78 1567.69 1032.2 1568.52 Q1029.65 1569.39 1026.72 1569.39 Q1022.05 1569.39 1019.99 1568.4 Q1017.96 1567.43 1017.96 1565.37 Q1017.96 1563.56 1019.09 1562.53 Q1020.22 1561.54 1021.51 1561.54 Q1022.73 1561.54 1023.37 1562.24 Q1024.02 1562.95 1024.02 1563.85 Q1024.02 1564.85 1023.34 1565.85 Q1022.67 1566.88 1021.31 1567.27 Q1023.47 1567.94 1026.6 1567.94 Q1033.2 1567.94 1036.03 1560.96 Q1036.1 1560.86 1036.1 1560.83 L1038.29 1552.1 L1038.19 1552.04 Q1037.64 1552.68 1036.77 1553.42 Q1035.93 1554.13 1034.13 1555 Q1032.33 1555.87 1030.56 1555.87 Q1026.85 1555.87 1024.31 1553.03 Q1021.8 1550.17 1021.8 1545.43 Q1021.8 1541.99 1023.18 1538.54 Q1024.6 1535.06 1026.79 1532.52 Q1029.01 1529.94 1031.84 1528.33 Q1034.71 1526.72 1037.48 1526.72 Q1039.41 1526.72 1041.06 1527.88 Q1042.7 1529.01 1043.6 1530.88 Q1043.76 1529.33 1044.63 1528.69 Q1045.53 1528.04 1046.31 1528.04 Q1047.17 1528.04 1047.69 1528.53 Q1048.24 1528.98 1048.24 1529.81 M1042.83 1533.84 Q1042.83 1533.65 1042.7 1533.13 Q1042.57 1532.58 1042.18 1531.71 Q1041.83 1530.84 1041.28 1530.07 Q1040.73 1529.3 1039.74 1528.75 Q1038.77 1528.17 1037.55 1528.17 Q1035.55 1528.17 1033.55 1529.85 Q1031.55 1531.49 1030.17 1534.03 Q1028.88 1536.48 1027.66 1541.21 Q1026.47 1545.95 1026.47 1548.36 Q1026.47 1550.75 1027.5 1552.58 Q1028.53 1554.42 1030.75 1554.42 Q1033.33 1554.42 1036.1 1552.04 Q1038.96 1549.56 1039.45 1547.43 L1042.63 1534.84 Q1042.83 1534.06 1042.83 1533.84 Z" fill="#000000" fill-rule="evenodd" fill-opacity="1"></path><path clip-path="url(#clip660)" d="M1065.55 1510.81 L1056.05 1548.94 Q1055.66 1550.46 1055.66 1552.1 Q1055.66 1555.13 1057.66 1555.13 Q1058.6 1555.13 1059.37 1554.52 Q1060.14 1553.87 1060.72 1552.61 Q1061.33 1551.33 1061.72 1550.1 Q1062.14 1548.88 1062.65 1546.98 Q1062.81 1546.24 1062.98 1546.01 Q1063.14 1545.79 1063.59 1545.79 Q1064.39 1545.79 1064.39 1546.43 Q1063.59 1550.39 1062.4 1552.9 Q1060.66 1556.61 1057.44 1556.61 Q1055.02 1556.61 1053.22 1554.93 Q1051.45 1553.23 1051.45 1550.52 Q1051.45 1549.49 1051.77 1548.27 L1060.08 1515.29 L1060.3 1514 Q1060.3 1513.65 1060.17 1513.45 Q1060.04 1513.26 1059.27 1513.07 Q1058.53 1512.87 1057.05 1512.87 Q1056.44 1512.87 1056.15 1512.84 Q1055.89 1512.81 1055.63 1512.65 Q1055.41 1512.49 1055.41 1512.13 Q1055.41 1511.55 1055.63 1511.23 Q1055.89 1510.91 1056.08 1510.84 Q1056.28 1510.78 1056.66 1510.75 Q1057.21 1510.72 1059.05 1510.55 Q1060.88 1510.36 1062.46 1510.23 Q1064.04 1510.1 1064.71 1510.1 Q1065.1 1510.1 1065.29 1510.3 Q1065.52 1510.46 1065.55 1510.65 L1065.55 1510.81 Z" fill="#000000" fill-rule="evenodd" fill-opacity="1"></path><path clip-path="url(#clip660)" d="M1096.78 1548.23 Q1097.04 1548.52 1097.04 1548.81 Q1097.04 1549.1 1096.4 1549.94 Q1095.79 1550.78 1094.47 1551.91 Q1093.15 1553.03 1091.44 1554.1 Q1089.73 1555.16 1087.22 1555.87 Q1084.71 1556.61 1082.07 1556.61 Q1077.33 1556.61 1074.5 1553.23 Q1071.7 1549.85 1071.7 1544.66 Q1071.7 1541.34 1072.79 1538.41 Q1073.89 1535.45 1075.66 1533.36 Q1077.46 1531.26 1079.72 1529.75 Q1082 1528.2 1084.39 1527.46 Q1086.77 1526.72 1088.99 1526.72 Q1092.24 1526.72 1094.14 1528.36 Q1096.04 1530.01 1096.04 1532.33 Q1096.04 1532.87 1095.88 1533.55 Q1095.75 1534.23 1095.3 1535.29 Q1094.88 1536.35 1093.79 1537.41 Q1092.69 1538.44 1091.08 1539.12 Q1087.51 1540.63 1081 1540.63 L1077.49 1540.63 Q1076.46 1544.79 1076.46 1547.49 Q1076.46 1548.56 1076.66 1549.65 Q1076.85 1550.71 1077.36 1552.07 Q1077.91 1553.42 1079.14 1554.29 Q1080.39 1555.13 1082.2 1555.13 Q1082.77 1555.13 1083.39 1555.09 Q1084.03 1555.06 1085.64 1554.71 Q1087.28 1554.35 1088.73 1553.74 Q1090.18 1553.13 1092.02 1551.81 Q1093.89 1550.46 1095.37 1548.62 Q1095.88 1547.95 1096.24 1547.95 Q1096.53 1547.95 1096.78 1548.23 M1093.85 1532.33 Q1093.85 1530.55 1092.53 1529.36 Q1091.24 1528.17 1088.99 1528.17 Q1088.28 1528.17 1087.41 1528.33 Q1086.54 1528.49 1085.09 1529.17 Q1083.68 1529.85 1082.42 1530.97 Q1081.16 1532.07 1079.91 1534.23 Q1078.65 1536.35 1077.91 1539.19 L1080.62 1539.19 Q1081.55 1539.19 1082.23 1539.19 Q1082.9 1539.15 1084.39 1539.02 Q1085.9 1538.9 1086.99 1538.67 Q1088.09 1538.41 1089.47 1537.9 Q1090.86 1537.38 1091.73 1536.71 Q1092.63 1536 1093.24 1534.87 Q1093.85 1533.74 1093.85 1532.33 Z" fill="#000000" fill-rule="evenodd" fill-opacity="1"></path><path clip-path="url(#clip660)" d="M1147.8 1537.86 Q1147.8 1541.38 1146.26 1544.85 Q1144.71 1548.3 1142.23 1550.88 Q1139.78 1553.42 1136.56 1555.03 Q1133.34 1556.61 1130.12 1556.61 Q1125.52 1556.61 1122.52 1553.48 Q1119.56 1550.33 1119.56 1545.43 Q1119.56 1540.86 1122.1 1536.51 Q1124.68 1532.13 1128.8 1529.43 Q1132.92 1526.72 1137.24 1526.72 Q1141.78 1526.72 1144.78 1529.78 Q1147.8 1532.84 1147.8 1537.86 M1142.97 1535.29 Q1142.97 1532.16 1141.46 1530.17 Q1139.94 1528.17 1137.18 1528.17 Q1136.37 1528.17 1135.44 1528.43 Q1134.5 1528.65 1133.28 1529.27 Q1132.09 1529.88 1130.73 1531.17 Q1129.41 1532.42 1128.25 1534.23 Q1126.74 1536.61 1125.58 1540.99 Q1124.45 1545.34 1124.45 1547.95 Q1124.45 1551.55 1126.13 1553.36 Q1127.8 1555.13 1130.19 1555.13 Q1132.51 1555.13 1134.95 1553.52 Q1137.43 1551.87 1139.14 1549.07 Q1140.85 1546.17 1141.91 1541.92 Q1142.97 1537.64 1142.97 1535.29 Z" fill="#000000" fill-rule="evenodd" fill-opacity="1"></path><path clip-path="url(#clip660)" d="M1184.12 1513.9 Q1184.12 1515.67 1182.99 1516.77 Q1181.89 1517.86 1180.51 1517.86 Q1179.51 1517.86 1178.77 1517.25 Q1178.06 1516.64 1178.06 1515.58 Q1178.06 1514.48 1178.9 1513.32 Q1179.74 1512.16 1181.64 1512 Q1180.38 1510.81 1178.38 1510.81 Q1177.38 1510.81 1176.55 1511.46 Q1175.74 1512.07 1175.29 1513.07 Q1174.81 1514.1 1173.71 1519.93 Q1173.36 1521.83 1173.04 1523.66 Q1172.72 1525.5 1172.33 1527.43 L1177.8 1527.43 Q1178.51 1527.43 1178.8 1527.46 Q1179.09 1527.49 1179.32 1527.66 Q1179.57 1527.82 1179.57 1528.17 Q1179.57 1529.07 1179.16 1529.3 Q1178.77 1529.49 1177.61 1529.49 L1171.94 1529.49 L1167.98 1550.39 Q1167.88 1551 1167.47 1552.94 Q1167.08 1554.84 1166.15 1557.96 Q1165.21 1561.12 1164.28 1562.99 Q1163.76 1564.05 1163.09 1565.05 Q1162.44 1566.08 1161.51 1567.11 Q1160.57 1568.14 1159.35 1568.75 Q1158.13 1569.39 1156.84 1569.39 Q1154.65 1569.39 1152.94 1568.17 Q1151.23 1566.95 1151.23 1564.85 Q1151.23 1563.08 1152.33 1561.99 Q1153.46 1560.89 1154.84 1560.89 Q1155.84 1560.89 1156.55 1561.5 Q1157.29 1562.12 1157.29 1563.18 Q1157.29 1563.63 1157.13 1564.14 Q1156.97 1564.66 1156.61 1565.24 Q1156.26 1565.85 1155.48 1566.27 Q1154.71 1566.69 1153.65 1566.75 Q1154.91 1567.94 1156.84 1567.94 Q1157.45 1567.94 1158 1567.69 Q1158.54 1567.46 1159 1566.88 Q1159.48 1566.3 1159.83 1565.72 Q1160.19 1565.18 1160.54 1564.11 Q1160.9 1563.08 1161.12 1562.31 Q1161.35 1561.54 1161.64 1560.15 Q1161.96 1558.77 1162.12 1557.93 Q1162.28 1557.12 1162.57 1555.55 L1167.5 1529.49 L1163.15 1529.49 Q1162.38 1529.49 1162.05 1529.46 Q1161.77 1529.43 1161.54 1529.27 Q1161.31 1529.07 1161.31 1528.69 Q1161.31 1528.07 1161.57 1527.82 Q1161.86 1527.53 1162.18 1527.49 Q1162.51 1527.43 1163.28 1527.43 L1167.85 1527.43 Q1169.4 1519.28 1170.01 1517.09 Q1170.72 1514.77 1171.81 1513.16 Q1172.91 1511.52 1174.13 1510.75 Q1175.36 1509.97 1176.35 1509.68 Q1177.38 1509.36 1178.38 1509.36 Q1180.64 1509.36 1182.38 1510.59 Q1184.12 1511.78 1184.12 1513.9 Z" fill="#000000" fill-rule="evenodd" fill-opacity="1"></path><path clip-path="url(#clip660)" d="M1245.91 1554.55 Q1245.91 1555.16 1245.65 1555.48 Q1245.43 1555.77 1245.2 1555.84 Q1245.01 1555.87 1244.72 1555.87 Q1243.88 1555.87 1240.98 1555.77 Q1238.08 1555.67 1237.25 1555.67 Q1235.89 1555.67 1233.12 1555.77 Q1230.35 1555.87 1229 1555.87 Q1228.1 1555.87 1228.1 1555.13 Q1228.1 1554.64 1228.2 1554.39 Q1228.29 1554.1 1228.55 1554 Q1228.84 1553.87 1229 1553.87 Q1229.19 1553.84 1229.68 1553.84 Q1230.32 1553.84 1231 1553.77 Q1231.67 1553.68 1232.51 1553.48 Q1233.35 1553.29 1233.86 1552.81 Q1234.41 1552.33 1234.41 1551.65 Q1234.41 1551.36 1234.19 1548.98 Q1233.96 1546.59 1233.67 1543.82 Q1233.38 1541.02 1233.35 1540.63 L1216.79 1540.63 Q1215.28 1543.24 1214.22 1545.05 Q1213.16 1546.85 1212.77 1547.46 Q1212.38 1548.07 1212.16 1548.46 Q1211.93 1548.85 1211.8 1549.07 Q1210.87 1550.78 1210.87 1551.52 Q1210.87 1553.58 1213.96 1553.84 Q1215.02 1553.84 1215.02 1554.61 Q1215.02 1555.19 1214.77 1555.51 Q1214.51 1555.8 1214.28 1555.84 Q1214.09 1555.87 1213.77 1555.87 Q1212.7 1555.87 1210.48 1555.77 Q1208.26 1555.67 1207.16 1555.67 Q1206.23 1555.67 1204.3 1555.77 Q1202.37 1555.87 1201.5 1555.87 Q1201.11 1555.87 1200.88 1555.64 Q1200.66 1555.42 1200.66 1555.13 Q1200.66 1554.68 1200.72 1554.42 Q1200.82 1554.16 1201.08 1554.03 Q1201.34 1553.9 1201.46 1553.9 Q1201.59 1553.87 1202.04 1553.84 Q1204.49 1553.68 1206.39 1552.52 Q1208.32 1551.33 1210.16 1548.27 L1233.09 1509.75 Q1233.32 1509.36 1233.48 1509.17 Q1233.64 1508.98 1233.96 1508.82 Q1234.31 1508.65 1234.83 1508.65 Q1235.63 1508.65 1235.8 1508.91 Q1235.96 1509.14 1236.05 1510.23 L1240.08 1551.46 Q1240.18 1552.33 1240.24 1552.68 Q1240.34 1553 1240.76 1553.36 Q1241.21 1553.68 1242.01 1553.77 Q1242.85 1553.84 1244.39 1553.84 Q1244.97 1553.84 1245.2 1553.87 Q1245.43 1553.87 1245.65 1554.03 Q1245.91 1554.19 1245.91 1554.55 M1233.16 1538.57 L1231.06 1516.83 L1218.05 1538.57 L1233.16 1538.57 Z" fill="#000000" fill-rule="evenodd" fill-opacity="1"></path><path clip-path="url(#clip660)" d="M1267.36 1528.17 Q1267.36 1529.07 1266.94 1529.3 Q1266.52 1529.49 1265.36 1529.49 L1259.18 1529.49 L1254.28 1548.94 Q1253.89 1550.65 1253.89 1552.1 Q1253.89 1553.71 1254.38 1554.42 Q1254.89 1555.13 1255.96 1555.13 Q1258.05 1555.13 1260.3 1553.23 Q1262.59 1551.33 1264.52 1546.69 Q1264.78 1546.08 1264.91 1545.95 Q1265.07 1545.79 1265.49 1545.79 Q1266.29 1545.79 1266.29 1546.43 Q1266.29 1546.66 1265.84 1547.69 Q1265.42 1548.72 1264.49 1550.23 Q1263.59 1551.75 1262.4 1553.16 Q1261.24 1554.58 1259.47 1555.61 Q1257.7 1556.61 1255.8 1556.61 Q1253.12 1556.61 1251.42 1554.9 Q1249.74 1553.19 1249.74 1550.52 Q1249.74 1549.65 1250.42 1546.88 Q1251.09 1544.08 1254.76 1529.49 L1248.94 1529.49 Q1248.13 1529.49 1247.81 1529.46 Q1247.52 1529.43 1247.29 1529.27 Q1247.1 1529.07 1247.1 1528.69 Q1247.1 1528.07 1247.36 1527.82 Q1247.61 1527.53 1247.94 1527.49 Q1248.29 1527.43 1249.1 1527.43 L1255.28 1527.43 L1257.86 1516.96 Q1258.11 1515.93 1258.76 1515.35 Q1259.43 1514.74 1259.82 1514.68 Q1260.21 1514.58 1260.5 1514.58 Q1261.37 1514.58 1261.88 1515.06 Q1262.4 1515.51 1262.4 1516.35 Q1262.4 1516.8 1259.69 1527.43 L1265.49 1527.43 Q1266.23 1527.43 1266.52 1527.46 Q1266.84 1527.49 1267.1 1527.66 Q1267.36 1527.82 1267.36 1528.17 Z" fill="#000000" fill-rule="evenodd" fill-opacity="1"></path><path clip-path="url(#clip660)" d="M1290.14 1528.17 Q1290.14 1529.07 1289.72 1529.3 Q1289.3 1529.49 1288.14 1529.49 L1281.96 1529.49 L1277.06 1548.94 Q1276.68 1550.65 1276.68 1552.1 Q1276.68 1553.71 1277.16 1554.42 Q1277.67 1555.13 1278.74 1555.13 Q1280.83 1555.13 1283.08 1553.23 Q1285.37 1551.33 1287.3 1546.69 Q1287.56 1546.08 1287.69 1545.95 Q1287.85 1545.79 1288.27 1545.79 Q1289.08 1545.79 1289.08 1546.43 Q1289.08 1546.66 1288.62 1547.69 Q1288.21 1548.72 1287.27 1550.23 Q1286.37 1551.75 1285.18 1553.16 Q1284.02 1554.58 1282.25 1555.61 Q1280.48 1556.61 1278.58 1556.61 Q1275.9 1556.61 1274.2 1554.9 Q1272.52 1553.19 1272.52 1550.52 Q1272.52 1549.65 1273.2 1546.88 Q1273.87 1544.08 1277.55 1529.49 L1271.72 1529.49 Q1270.91 1529.49 1270.59 1529.46 Q1270.3 1529.43 1270.07 1529.27 Q1269.88 1529.07 1269.88 1528.69 Q1269.88 1528.07 1270.14 1527.82 Q1270.4 1527.53 1270.72 1527.49 Q1271.07 1527.43 1271.88 1527.43 L1278.06 1527.43 L1280.64 1516.96 Q1280.89 1515.93 1281.54 1515.35 Q1282.22 1514.74 1282.6 1514.68 Q1282.99 1514.58 1283.28 1514.58 Q1284.15 1514.58 1284.66 1515.06 Q1285.18 1515.51 1285.18 1516.35 Q1285.18 1516.8 1282.47 1527.43 L1288.27 1527.43 Q1289.01 1527.43 1289.3 1527.46 Q1289.62 1527.49 1289.88 1527.66 Q1290.14 1527.82 1290.14 1528.17 Z" fill="#000000" fill-rule="evenodd" fill-opacity="1"></path><path clip-path="url(#clip660)" d="M1323.07 1546.43 Q1322.2 1550.59 1321.07 1552.97 Q1319.27 1556.61 1316.21 1556.61 Q1313.89 1556.61 1312.24 1555.19 Q1310.6 1553.77 1310.22 1551.65 Q1306 1556.61 1301.62 1556.61 Q1297.75 1556.61 1295.3 1553.68 Q1292.86 1550.71 1292.86 1546.04 Q1292.86 1541.34 1295.18 1536.83 Q1297.53 1532.33 1301.23 1529.52 Q1304.93 1526.72 1308.73 1526.72 Q1312.76 1526.72 1314.82 1530.94 Q1314.98 1529.78 1315.72 1528.91 Q1316.46 1528.04 1317.59 1528.04 Q1318.46 1528.04 1318.98 1528.53 Q1319.49 1528.98 1319.49 1529.81 Q1319.49 1530.23 1319.04 1532.07 L1316.66 1541.28 L1315.21 1547.24 Q1314.66 1549.43 1314.5 1550.23 Q1314.37 1551.04 1314.37 1552.1 Q1314.37 1555.13 1316.33 1555.13 Q1317.3 1555.13 1318.07 1554.52 Q1318.85 1553.9 1319.46 1552.61 Q1320.07 1551.33 1320.46 1550.14 Q1320.84 1548.91 1321.36 1546.98 Q1321.52 1546.21 1321.65 1546.01 Q1321.81 1545.79 1322.26 1545.79 Q1323.07 1545.79 1323.07 1546.43 M1314.02 1533.97 Q1314.02 1533.68 1313.79 1532.87 Q1313.56 1532.07 1313.05 1530.94 Q1312.53 1529.81 1311.41 1529.01 Q1310.31 1528.17 1308.83 1528.17 Q1306.83 1528.17 1304.74 1529.88 Q1302.68 1531.58 1301.17 1534.48 Q1300.01 1536.8 1298.75 1541.66 Q1297.53 1546.53 1297.53 1548.94 Q1297.53 1550.42 1297.85 1551.75 Q1298.2 1553.03 1299.2 1554.1 Q1300.2 1555.13 1301.75 1555.13 Q1305.51 1555.13 1309.22 1550.46 Q1309.93 1549.65 1310.09 1549.33 Q1310.28 1548.98 1310.54 1548.01 L1313.82 1535.09 Q1314.02 1534.13 1314.02 1533.97 Z" fill="#000000" fill-rule="evenodd" fill-opacity="1"></path><path clip-path="url(#clip660)" d="M1352.81 1548.23 Q1353.07 1548.52 1353.07 1548.81 Q1353.07 1549.1 1352.43 1549.94 Q1351.81 1550.78 1350.49 1551.91 Q1349.17 1553.03 1347.47 1554.1 Q1345.76 1555.16 1343.25 1555.87 Q1340.74 1556.61 1338.09 1556.61 Q1333.17 1556.61 1330.27 1553.36 Q1327.4 1550.1 1327.4 1545.43 Q1327.4 1540.89 1329.95 1536.54 Q1332.49 1532.16 1336.61 1529.46 Q1340.74 1526.72 1345.08 1526.72 Q1348.53 1526.72 1350.69 1528.33 Q1352.85 1529.94 1352.85 1532.39 Q1352.85 1534.29 1351.75 1535.45 Q1350.66 1536.61 1349.17 1536.61 Q1348.14 1536.61 1347.43 1536.03 Q1346.73 1535.42 1346.73 1534.29 Q1346.73 1532.84 1347.92 1531.71 Q1348.37 1531.26 1348.88 1531.07 Q1349.43 1530.84 1349.75 1530.84 Q1350.08 1530.81 1350.82 1530.81 Q1350.14 1529.56 1348.53 1528.88 Q1346.95 1528.17 1345.15 1528.17 Q1342.47 1528.17 1339.93 1530.04 Q1337.39 1531.87 1335.84 1534.77 Q1334.29 1537.61 1333.3 1541.63 Q1332.3 1545.63 1332.3 1547.95 Q1332.3 1551.13 1333.78 1553.13 Q1335.26 1555.13 1338.22 1555.13 Q1338.8 1555.13 1339.42 1555.09 Q1340.06 1555.06 1341.67 1554.71 Q1343.31 1554.35 1344.76 1553.74 Q1346.21 1553.13 1348.05 1551.81 Q1349.91 1550.46 1351.4 1548.62 Q1351.91 1547.95 1352.27 1547.95 Q1352.56 1547.95 1352.81 1548.23 Z" fill="#000000" fill-rule="evenodd" fill-opacity="1"></path><path clip-path="url(#clip660)" d="M1384.49 1530.88 Q1384.49 1532.71 1383.36 1533.81 Q1382.27 1534.9 1380.88 1534.9 Q1379.66 1534.9 1379.02 1534.19 Q1378.37 1533.48 1378.37 1532.58 Q1378.37 1532.2 1378.53 1531.71 Q1378.69 1531.2 1379.05 1530.59 Q1379.44 1529.97 1380.24 1529.52 Q1381.05 1529.07 1382.14 1529.01 Q1381.91 1528.78 1381.85 1528.75 Q1381.37 1528.36 1380.47 1528.24 Q1380.34 1528.17 1379.89 1528.17 Q1377.66 1528.17 1375.41 1529.81 Q1373.19 1531.42 1370.45 1534.48 Q1367 1538.06 1364.78 1539.38 Q1374.54 1540.67 1374.54 1546.3 Q1374.54 1547.24 1374.28 1548.36 Q1373.77 1550.49 1373.77 1552.04 Q1373.77 1555.13 1375.86 1555.13 Q1377.89 1555.13 1379.18 1553.07 Q1380.5 1551 1381.59 1546.98 Q1381.75 1546.24 1381.91 1546.01 Q1382.08 1545.79 1382.53 1545.79 Q1383.33 1545.79 1383.33 1546.43 Q1382.59 1550.2 1380.95 1553.1 Q1378.86 1556.61 1375.73 1556.61 Q1373.12 1556.61 1371.38 1554.8 Q1369.68 1552.97 1369.68 1550.07 Q1369.68 1549.36 1369.93 1547.75 Q1370.13 1547.11 1370.13 1546.37 Q1370.13 1544.85 1369.29 1543.73 Q1368.45 1542.57 1367.1 1541.99 Q1365.75 1541.41 1364.62 1541.15 Q1363.53 1540.86 1362.46 1540.76 Q1359.24 1554.39 1358.79 1555.22 Q1358.5 1555.8 1357.86 1556.19 Q1357.21 1556.61 1356.54 1556.61 Q1355.89 1556.61 1355.25 1556.16 Q1354.64 1555.74 1354.64 1554.74 Q1354.64 1554.23 1354.89 1553.29 L1364.46 1515.29 L1364.65 1514 Q1364.65 1513.61 1364.49 1513.42 Q1364.36 1513.2 1363.59 1513.03 Q1362.85 1512.87 1361.37 1512.87 Q1360.76 1512.87 1360.47 1512.84 Q1360.21 1512.81 1359.98 1512.65 Q1359.76 1512.45 1359.76 1512.07 Q1359.76 1511.52 1359.98 1511.23 Q1360.24 1510.91 1360.43 1510.84 Q1360.63 1510.78 1361.01 1510.75 Q1361.56 1510.72 1363.4 1510.55 Q1365.23 1510.36 1366.81 1510.23 Q1368.39 1510.1 1369.06 1510.1 Q1369.45 1510.1 1369.64 1510.3 Q1369.87 1510.46 1369.9 1510.65 L1369.93 1510.81 L1363.07 1538.64 Q1365.91 1537.51 1370.39 1532.52 Q1375.57 1526.72 1380.01 1526.72 Q1382.11 1526.72 1383.3 1528.01 Q1384.49 1529.27 1384.49 1530.88 Z" fill="#000000" fill-rule="evenodd" fill-opacity="1"></path><path clip-path="url(#clip660)" d="M1406.1 1539.38 Q1406.1 1528.24 1410.26 1519.25 Q1412.03 1515.48 1414.51 1512.33 Q1416.99 1509.17 1418.63 1507.78 Q1420.27 1506.4 1420.73 1506.4 Q1421.37 1506.4 1421.4 1507.04 Q1421.4 1507.37 1420.53 1508.17 Q1409.9 1518.99 1409.94 1539.38 Q1409.94 1559.83 1420.27 1570.23 Q1421.4 1571.36 1421.4 1571.71 Q1421.4 1572.36 1420.73 1572.36 Q1420.27 1572.36 1418.7 1571.04 Q1417.12 1569.72 1414.67 1566.69 Q1412.22 1563.66 1410.45 1559.96 Q1406.1 1550.97 1406.1 1539.38 Z" fill="#000000" fill-rule="evenodd" fill-opacity="1"></path><path clip-path="url(#clip660)" d="M1464.48 1530.62 Q1464.41 1530.94 1464.28 1531.52 Q1464.15 1532.07 1463.57 1533.81 Q1462.99 1535.55 1462.22 1537.32 Q1461.48 1539.06 1460.03 1541.5 Q1458.61 1543.92 1456.88 1546.11 Q1456.39 1546.69 1456.3 1547.04 Q1456.23 1547.37 1456.23 1548.43 Q1456.23 1555.13 1458.26 1555.13 Q1458.36 1555.13 1458.52 1555.13 Q1458.71 1555.09 1459.19 1554.93 Q1459.71 1554.74 1460.16 1554.45 Q1460.61 1554.13 1461.13 1553.48 Q1461.64 1552.81 1461.96 1551.91 Q1462.25 1551.26 1462.83 1551.26 Q1463.61 1551.26 1463.61 1551.91 Q1463.61 1553.07 1462 1554.84 Q1460.39 1556.61 1458.07 1556.61 Q1455.84 1556.61 1454.27 1555.16 Q1452.72 1553.68 1452.08 1551.04 Q1445.12 1556.61 1438.16 1556.61 Q1433.27 1556.61 1430.37 1553.42 Q1427.47 1550.2 1427.47 1545.43 Q1427.47 1540.86 1429.98 1536.51 Q1432.53 1532.16 1436.65 1529.46 Q1440.8 1526.72 1445.22 1526.72 Q1446.76 1526.72 1448.24 1527.14 Q1449.73 1527.53 1451.21 1528.53 Q1452.69 1529.52 1453.78 1531.04 Q1454.88 1532.55 1455.55 1534.93 Q1456.23 1537.32 1456.23 1540.31 L1456.23 1544.4 Q1460.48 1539.02 1462.7 1531.33 Q1463.03 1530.17 1463.22 1530.04 Q1463.35 1529.94 1463.67 1529.94 Q1463.99 1529.94 1464.19 1530.14 Q1464.41 1530.3 1464.44 1530.46 L1464.48 1530.62 M1451.82 1549.33 Q1451.69 1548.2 1451.69 1541.95 Q1451.69 1540.76 1451.69 1540.12 Q1451.69 1539.44 1451.63 1538.15 Q1451.56 1536.87 1451.43 1536.06 Q1451.34 1535.26 1451.11 1534.1 Q1450.88 1532.94 1450.56 1532.2 Q1450.24 1531.46 1449.73 1530.62 Q1449.24 1529.78 1448.6 1529.3 Q1447.99 1528.81 1447.08 1528.49 Q1446.21 1528.17 1445.15 1528.17 Q1443.83 1528.17 1442.45 1528.65 Q1441.09 1529.1 1439.36 1530.55 Q1437.62 1531.97 1436.17 1534.23 Q1434.65 1536.61 1433.49 1540.99 Q1432.37 1545.34 1432.37 1547.95 Q1432.37 1551.23 1433.88 1553.19 Q1435.39 1555.13 1438.29 1555.13 Q1445.22 1555.13 1451.82 1549.33 Z" fill="#000000" fill-rule="evenodd" fill-opacity="1"></path><path clip-path="url(#clip660)" d="M1470.84 1571.71 Q1470.84 1571.39 1471.68 1570.59 Q1482.31 1559.76 1482.31 1539.38 Q1482.31 1518.93 1472.1 1508.59 Q1470.84 1507.4 1470.84 1507.04 Q1470.84 1506.4 1471.49 1506.4 Q1471.94 1506.4 1473.52 1507.72 Q1475.13 1509.04 1477.54 1512.07 Q1479.99 1515.1 1481.79 1518.8 Q1486.14 1527.78 1486.14 1539.38 Q1486.14 1550.52 1481.99 1559.51 Q1480.21 1563.28 1477.73 1566.43 Q1475.25 1569.59 1473.61 1570.97 Q1471.97 1572.36 1471.49 1572.36 Q1470.84 1572.36 1470.84 1571.71 Z" fill="#000000" fill-rule="evenodd" fill-opacity="1"></path><path clip-path="url(#clip660)" d="M1513.6 1572.36 L1513.6 1506.4 L1523.55 1506.4 L1523.55 1507.91 L1518.01 1507.91 L1518.01 1570.84 L1523.55 1570.84 L1523.55 1572.36 L1513.6 1572.36 Z" fill="#000000" fill-rule="evenodd" fill-opacity="1"></path><path clip-path="url(#clip660)" d="M1557.61 1510.81 L1548.11 1548.94 Q1547.72 1550.65 1547.72 1552.1 Q1547.72 1555.13 1549.69 1555.13 Q1550.65 1555.13 1551.42 1554.52 Q1552.2 1553.9 1552.81 1552.61 Q1553.42 1551.33 1553.81 1550.14 Q1554.19 1548.91 1554.71 1546.98 Q1554.87 1546.21 1555 1546.01 Q1555.16 1545.79 1555.61 1545.79 Q1556.42 1545.79 1556.42 1546.43 Q1555.55 1550.59 1554.42 1552.97 Q1552.62 1556.61 1549.56 1556.61 Q1547.24 1556.61 1545.6 1555.19 Q1543.95 1553.77 1543.57 1551.65 Q1539.35 1556.61 1534.97 1556.61 Q1531.1 1556.61 1528.65 1553.68 Q1526.21 1550.71 1526.21 1546.04 Q1526.21 1541.34 1528.53 1536.83 Q1530.88 1532.33 1534.58 1529.52 Q1538.28 1526.72 1542.08 1526.72 Q1546.11 1526.72 1548.17 1530.94 L1552.13 1515.29 L1552.33 1514 Q1552.33 1513.61 1552.17 1513.42 Q1552.04 1513.2 1551.26 1513.03 Q1550.52 1512.87 1549.04 1512.87 Q1548.43 1512.87 1548.14 1512.84 Q1547.88 1512.81 1547.66 1512.65 Q1547.43 1512.45 1547.43 1512.07 Q1547.43 1510.94 1548.36 1510.81 Q1554.55 1510.1 1556.74 1510.1 Q1557.12 1510.1 1557.35 1510.3 Q1557.58 1510.46 1557.58 1510.65 L1557.61 1510.81 M1547.37 1533.97 Q1547.37 1533.68 1547.14 1532.87 Q1546.92 1532.07 1546.4 1530.94 Q1545.88 1529.81 1544.76 1529.01 Q1543.66 1528.17 1542.18 1528.17 Q1540.18 1528.17 1538.09 1529.88 Q1536.03 1531.58 1534.52 1534.48 Q1533.36 1536.8 1532.1 1541.66 Q1530.88 1546.53 1530.88 1548.94 Q1530.88 1550.42 1531.2 1551.75 Q1531.55 1553.03 1532.55 1554.1 Q1533.55 1555.13 1535.1 1555.13 Q1538.86 1555.13 1542.57 1550.46 Q1543.28 1549.65 1543.44 1549.33 Q1543.63 1548.98 1543.89 1548.01 L1547.17 1535.09 Q1547.37 1534.13 1547.37 1533.97 Z" fill="#000000" fill-rule="evenodd" fill-opacity="1"></path><path clip-path="url(#clip660)" d="M1585.5 1548.23 Q1585.76 1548.52 1585.76 1548.81 Q1585.76 1549.1 1585.11 1549.94 Q1584.5 1550.78 1583.18 1551.91 Q1581.86 1553.03 1580.15 1554.1 Q1578.45 1555.16 1575.93 1555.87 Q1573.42 1556.61 1570.78 1556.61 Q1566.05 1556.61 1563.21 1553.23 Q1560.41 1549.85 1560.41 1544.66 Q1560.41 1541.34 1561.51 1538.41 Q1562.6 1535.45 1564.37 1533.36 Q1566.18 1531.26 1568.43 1529.75 Q1570.72 1528.2 1573.1 1527.46 Q1575.48 1526.72 1577.71 1526.72 Q1580.96 1526.72 1582.86 1528.36 Q1584.76 1530.01 1584.76 1532.33 Q1584.76 1532.87 1584.6 1533.55 Q1584.47 1534.23 1584.02 1535.29 Q1583.6 1536.35 1582.5 1537.41 Q1581.41 1538.44 1579.8 1539.12 Q1576.22 1540.63 1569.72 1540.63 L1566.21 1540.63 Q1565.18 1544.79 1565.18 1547.49 Q1565.18 1548.56 1565.37 1549.65 Q1565.56 1550.71 1566.08 1552.07 Q1566.63 1553.42 1567.85 1554.29 Q1569.11 1555.13 1570.91 1555.13 Q1571.49 1555.13 1572.1 1555.09 Q1572.75 1555.06 1574.36 1554.71 Q1576 1554.35 1577.45 1553.74 Q1578.9 1553.13 1580.73 1551.81 Q1582.6 1550.46 1584.08 1548.62 Q1584.6 1547.95 1584.95 1547.95 Q1585.24 1547.95 1585.5 1548.23 M1582.57 1532.33 Q1582.57 1530.55 1581.25 1529.36 Q1579.96 1528.17 1577.71 1528.17 Q1577 1528.17 1576.13 1528.33 Q1575.26 1528.49 1573.81 1529.17 Q1572.39 1529.85 1571.14 1530.97 Q1569.88 1532.07 1568.62 1534.23 Q1567.37 1536.35 1566.63 1539.19 L1569.33 1539.19 Q1570.27 1539.19 1570.94 1539.19 Q1571.62 1539.15 1573.1 1539.02 Q1574.61 1538.9 1575.71 1538.67 Q1576.8 1538.41 1578.19 1537.9 Q1579.57 1537.38 1580.44 1536.71 Q1581.35 1536 1581.96 1534.87 Q1582.57 1533.74 1582.57 1532.33 Z" fill="#000000" fill-rule="evenodd" fill-opacity="1"></path><path clip-path="url(#clip660)" d="M1618.74 1529.81 Q1618.74 1529.85 1618.55 1531 L1611.2 1560.28 Q1610.82 1561.83 1609.72 1563.37 Q1608.66 1564.95 1606.95 1566.3 Q1605.28 1567.69 1602.7 1568.52 Q1600.16 1569.39 1597.23 1569.39 Q1592.56 1569.39 1590.5 1568.4 Q1588.47 1567.43 1588.47 1565.37 Q1588.47 1563.56 1589.59 1562.53 Q1590.72 1561.54 1592.01 1561.54 Q1593.23 1561.54 1593.88 1562.24 Q1594.52 1562.95 1594.52 1563.85 Q1594.52 1564.85 1593.84 1565.85 Q1593.17 1566.88 1591.82 1567.27 Q1593.97 1567.94 1597.1 1567.94 Q1603.7 1567.94 1606.53 1560.96 Q1606.6 1560.86 1606.6 1560.83 L1608.79 1552.1 L1608.69 1552.04 Q1608.14 1552.68 1607.27 1553.42 Q1606.44 1554.13 1604.63 1555 Q1602.83 1555.87 1601.06 1555.87 Q1597.36 1555.87 1594.81 1553.03 Q1592.3 1550.17 1592.3 1545.43 Q1592.3 1541.99 1593.68 1538.54 Q1595.1 1535.06 1597.29 1532.52 Q1599.51 1529.94 1602.35 1528.33 Q1605.21 1526.72 1607.98 1526.72 Q1609.92 1526.72 1611.56 1527.88 Q1613.2 1529.01 1614.1 1530.88 Q1614.26 1529.33 1615.13 1528.69 Q1616.03 1528.04 1616.81 1528.04 Q1617.68 1528.04 1618.19 1528.53 Q1618.74 1528.98 1618.74 1529.81 M1613.33 1533.84 Q1613.33 1533.65 1613.2 1533.13 Q1613.07 1532.58 1612.69 1531.71 Q1612.33 1530.84 1611.78 1530.07 Q1611.24 1529.3 1610.24 1528.75 Q1609.27 1528.17 1608.05 1528.17 Q1606.05 1528.17 1604.05 1529.85 Q1602.06 1531.49 1600.67 1534.03 Q1599.38 1536.48 1598.16 1541.21 Q1596.97 1545.95 1596.97 1548.36 Q1596.97 1550.75 1598 1552.58 Q1599.03 1554.42 1601.25 1554.42 Q1603.83 1554.42 1606.6 1552.04 Q1609.46 1549.56 1609.95 1547.43 L1613.14 1534.84 Q1613.33 1534.06 1613.33 1533.84 Z" fill="#000000" fill-rule="evenodd" fill-opacity="1"></path><path clip-path="url(#clip660)" d="M1622.5 1570.84 L1628.04 1570.84 L1628.04 1507.91 L1622.5 1507.91 L1622.5 1506.4 L1632.45 1506.4 L1632.45 1572.36 L1622.5 1572.36 L1622.5 1570.84 Z" fill="#000000" fill-rule="evenodd" fill-opacity="1"></path><polyline clip-path="url(#clip663)" style="stroke:#000000; stroke-linecap:round; stroke-linejoin:round; stroke-width:2; stroke-opacity:0.1; fill:none" points="
  219.542,1183.64 2352.76,1183.64 
  "></polyline>
<polyline clip-path="url(#clip663)" style="stroke:#000000; stroke-linecap:round; stroke-linejoin:round; stroke-width:2; stroke-opacity:0.1; fill:none" points="
  219.542,896.856 2352.76,896.856 
  "></polyline>
<polyline clip-path="url(#clip663)" style="stroke:#000000; stroke-linecap:round; stroke-linejoin:round; stroke-width:2; stroke-opacity:0.1; fill:none" points="
  219.542,610.076 2352.76,610.076 
  "></polyline>
<polyline clip-path="url(#clip663)" style="stroke:#000000; stroke-linecap:round; stroke-linejoin:round; stroke-width:2; stroke-opacity:0.1; fill:none" points="
  219.542,323.296 2352.76,323.296 
  "></polyline>
<polyline clip-path="url(#clip660)" style="stroke:#000000; stroke-linecap:round; stroke-linejoin:round; stroke-width:4; stroke-opacity:1; fill:none" points="
  219.542,1423.18 219.542,47.2441 
  "></polyline>
<polyline clip-path="url(#clip660)" style="stroke:#000000; stroke-linecap:round; stroke-linejoin:round; stroke-width:4; stroke-opacity:1; fill:none" points="
  219.542,1183.64 238.44,1183.64 
  "></polyline>
<polyline clip-path="url(#clip660)" style="stroke:#000000; stroke-linecap:round; stroke-linejoin:round; stroke-width:4; stroke-opacity:1; fill:none" points="
  219.542,896.856 238.44,896.856 
  "></polyline>
<polyline clip-path="url(#clip660)" style="stroke:#000000; stroke-linecap:round; stroke-linejoin:round; stroke-width:4; stroke-opacity:1; fill:none" points="
  219.542,610.076 238.44,610.076 
  "></polyline>
<polyline clip-path="url(#clip660)" style="stroke:#000000; stroke-linecap:round; stroke-linejoin:round; stroke-width:4; stroke-opacity:1; fill:none" points="
  219.542,323.296 238.44,323.296 
  "></polyline>
<path clip-path="url(#clip660)" d="M126.367 1169.43 Q122.755 1169.43 120.927 1173 Q119.121 1176.54 119.121 1183.67 Q119.121 1190.78 120.927 1194.34 Q122.755 1197.88 126.367 1197.88 Q130.001 1197.88 131.806 1194.34 Q133.635 1190.78 133.635 1183.67 Q133.635 1176.54 131.806 1173 Q130.001 1169.43 126.367 1169.43 M126.367 1165.73 Q132.177 1165.73 135.232 1170.34 Q138.311 1174.92 138.311 1183.67 Q138.311 1192.4 135.232 1197 Q132.177 1201.59 126.367 1201.59 Q120.556 1201.59 117.478 1197 Q114.422 1192.4 114.422 1183.67 Q114.422 1174.92 117.478 1170.34 Q120.556 1165.73 126.367 1165.73 Z" fill="#000000" fill-rule="evenodd" fill-opacity="1"></path><path clip-path="url(#clip660)" d="M146.529 1195.04 L151.413 1195.04 L151.413 1200.92 L146.529 1200.92 L146.529 1195.04 Z" fill="#000000" fill-rule="evenodd" fill-opacity="1"></path><path clip-path="url(#clip660)" d="M171.598 1169.43 Q167.987 1169.43 166.158 1173 Q164.352 1176.54 164.352 1183.67 Q164.352 1190.78 166.158 1194.34 Q167.987 1197.88 171.598 1197.88 Q175.232 1197.88 177.038 1194.34 Q178.866 1190.78 178.866 1183.67 Q178.866 1176.54 177.038 1173 Q175.232 1169.43 171.598 1169.43 M171.598 1165.73 Q177.408 1165.73 180.464 1170.34 Q183.542 1174.92 183.542 1183.67 Q183.542 1192.4 180.464 1197 Q177.408 1201.59 171.598 1201.59 Q165.788 1201.59 162.709 1197 Q159.653 1192.4 159.653 1183.67 Q159.653 1174.92 162.709 1170.34 Q165.788 1165.73 171.598 1165.73 Z" fill="#000000" fill-rule="evenodd" fill-opacity="1"></path><path clip-path="url(#clip660)" d="M127.015 882.654 Q123.404 882.654 121.575 886.219 Q119.769 889.761 119.769 896.891 Q119.769 903.997 121.575 907.562 Q123.404 911.103 127.015 911.103 Q130.649 911.103 132.455 907.562 Q134.283 903.997 134.283 896.891 Q134.283 889.761 132.455 886.219 Q130.649 882.654 127.015 882.654 M127.015 878.951 Q132.825 878.951 135.88 883.557 Q138.959 888.141 138.959 896.891 Q138.959 905.617 135.88 910.224 Q132.825 914.807 127.015 914.807 Q121.205 914.807 118.126 910.224 Q115.07 905.617 115.07 896.891 Q115.07 888.141 118.126 883.557 Q121.205 878.951 127.015 878.951 Z" fill="#000000" fill-rule="evenodd" fill-opacity="1"></path><path clip-path="url(#clip660)" d="M147.177 908.256 L152.061 908.256 L152.061 914.136 L147.177 914.136 L147.177 908.256 Z" fill="#000000" fill-rule="evenodd" fill-opacity="1"></path><path clip-path="url(#clip660)" d="M176.413 895.502 Q179.769 896.219 181.644 898.488 Q183.542 900.756 183.542 904.09 Q183.542 909.205 180.024 912.006 Q176.505 914.807 170.024 914.807 Q167.848 914.807 165.533 914.367 Q163.241 913.951 160.788 913.094 L160.788 908.58 Q162.732 909.715 165.047 910.293 Q167.362 910.872 169.885 910.872 Q174.283 910.872 176.575 909.136 Q178.889 907.4 178.889 904.09 Q178.889 901.034 176.737 899.321 Q174.607 897.585 170.788 897.585 L166.76 897.585 L166.76 893.742 L170.973 893.742 Q174.422 893.742 176.251 892.377 Q178.079 890.988 178.079 888.395 Q178.079 885.733 176.181 884.321 Q174.306 882.886 170.788 882.886 Q168.866 882.886 166.667 883.303 Q164.468 883.719 161.829 884.599 L161.829 880.432 Q164.491 879.692 166.806 879.321 Q169.144 878.951 171.204 878.951 Q176.528 878.951 179.63 881.381 Q182.732 883.789 182.732 887.909 Q182.732 890.779 181.089 892.77 Q179.445 894.738 176.413 895.502 Z" fill="#000000" fill-rule="evenodd" fill-opacity="1"></path><path clip-path="url(#clip660)" d="M126.205 595.875 Q122.593 595.875 120.765 599.44 Q118.959 602.981 118.959 610.111 Q118.959 617.217 120.765 620.782 Q122.593 624.324 126.205 624.324 Q129.839 624.324 131.644 620.782 Q133.473 617.217 133.473 610.111 Q133.473 602.981 131.644 599.44 Q129.839 595.875 126.205 595.875 M126.205 592.171 Q132.015 592.171 135.07 596.778 Q138.149 601.361 138.149 610.111 Q138.149 618.838 135.07 623.444 Q132.015 628.027 126.205 628.027 Q120.394 628.027 117.316 623.444 Q114.26 618.838 114.26 610.111 Q114.26 601.361 117.316 596.778 Q120.394 592.171 126.205 592.171 Z" fill="#000000" fill-rule="evenodd" fill-opacity="1"></path><path clip-path="url(#clip660)" d="M146.366 621.476 L151.251 621.476 L151.251 627.356 L146.366 627.356 L146.366 621.476 Z" fill="#000000" fill-rule="evenodd" fill-opacity="1"></path><path clip-path="url(#clip660)" d="M172.014 608.213 Q168.866 608.213 167.015 610.365 Q165.186 612.518 165.186 616.268 Q165.186 619.995 167.015 622.171 Q168.866 624.324 172.014 624.324 Q175.163 624.324 176.991 622.171 Q178.843 619.995 178.843 616.268 Q178.843 612.518 176.991 610.365 Q175.163 608.213 172.014 608.213 M181.297 593.56 L181.297 597.819 Q179.538 596.986 177.732 596.546 Q175.95 596.106 174.19 596.106 Q169.561 596.106 167.107 599.231 Q164.677 602.356 164.329 608.676 Q165.695 606.662 167.755 605.597 Q169.815 604.509 172.292 604.509 Q177.501 604.509 180.51 607.68 Q183.542 610.828 183.542 616.268 Q183.542 621.592 180.394 624.81 Q177.246 628.027 172.014 628.027 Q166.019 628.027 162.848 623.444 Q159.677 618.838 159.677 610.111 Q159.677 601.916 163.565 597.055 Q167.454 592.171 174.005 592.171 Q175.764 592.171 177.547 592.518 Q179.352 592.866 181.297 593.56 Z" fill="#000000" fill-rule="evenodd" fill-opacity="1"></path><path clip-path="url(#clip660)" d="M126.552 309.095 Q122.941 309.095 121.112 312.66 Q119.306 316.202 119.306 323.331 Q119.306 330.438 121.112 334.002 Q122.941 337.544 126.552 337.544 Q130.186 337.544 131.992 334.002 Q133.82 330.438 133.82 323.331 Q133.82 316.202 131.992 312.66 Q130.186 309.095 126.552 309.095 M126.552 305.391 Q132.362 305.391 135.417 309.998 Q138.496 314.581 138.496 323.331 Q138.496 332.058 135.417 336.664 Q132.362 341.248 126.552 341.248 Q120.742 341.248 117.663 336.664 Q114.607 332.058 114.607 323.331 Q114.607 314.581 117.663 309.998 Q120.742 305.391 126.552 305.391 Z" fill="#000000" fill-rule="evenodd" fill-opacity="1"></path><path clip-path="url(#clip660)" d="M146.714 334.697 L151.598 334.697 L151.598 340.576 L146.714 340.576 L146.714 334.697 Z" fill="#000000" fill-rule="evenodd" fill-opacity="1"></path><path clip-path="url(#clip660)" d="M161.922 339.859 L161.922 335.6 Q163.681 336.433 165.487 336.873 Q167.292 337.313 169.028 337.313 Q173.658 337.313 176.089 334.211 Q178.542 331.086 178.889 324.743 Q177.547 326.734 175.487 327.799 Q173.427 328.863 170.927 328.863 Q165.741 328.863 162.709 325.738 Q159.7 322.59 159.7 317.151 Q159.7 311.827 162.848 308.609 Q165.996 305.391 171.227 305.391 Q177.223 305.391 180.371 309.998 Q183.542 314.581 183.542 323.331 Q183.542 331.502 179.653 336.387 Q175.788 341.248 169.237 341.248 Q167.477 341.248 165.672 340.9 Q163.866 340.553 161.922 339.859 M171.227 325.206 Q174.376 325.206 176.204 323.053 Q178.056 320.901 178.056 317.151 Q178.056 313.424 176.204 311.271 Q174.376 309.095 171.227 309.095 Q168.079 309.095 166.227 311.271 Q164.399 313.424 164.399 317.151 Q164.399 320.901 166.227 323.053 Q168.079 325.206 171.227 325.206 Z" fill="#000000" fill-rule="evenodd" fill-opacity="1"></path><path clip-path="url(#clip660)" d="M18.3292 1047.04 L35.1407 1051.19 Q36.2035 1051.48 36.3323 1051.68 Q36.4611 1051.84 36.4611 1052.35 Q36.4611 1053.35 35.7848 1053.35 Q35.7204 1053.35 34.883 1053.25 Q34.0135 1053.16 32.4354 1053.16 Q26.6061 1053.16 23.1601 1055.99 Q19.7141 1058.79 19.7141 1063.79 Q19.7141 1068.1 21.9041 1072.45 Q24.0941 1076.76 27.6689 1079.86 Q30.3742 1082.18 33.788 1083.88 Q37.2019 1085.56 40.3258 1086.36 Q43.4498 1087.13 45.8008 1087.49 Q48.1518 1087.84 49.8588 1087.84 Q52.3386 1087.84 54.432 1087.33 Q56.5254 1086.78 58.0068 1085.81 Q59.4561 1084.85 60.5833 1083.62 Q61.6783 1082.37 62.3224 1080.92 Q62.9665 1079.44 63.2886 1077.96 Q63.5785 1076.47 63.5785 1074.93 Q63.5785 1068.71 58.7476 1062.79 Q54.7863 1058.09 48.3129 1056.12 Q47.6688 1055.96 47.6688 1055.28 Q47.6688 1054.48 48.3129 1054.48 Q48.4417 1054.48 49.0858 1054.64 Q49.6977 1054.8 50.9538 1055.28 Q52.1776 1055.77 53.5624 1056.51 Q54.9473 1057.25 56.6864 1058.63 Q58.4255 1060.02 59.9392 1061.72 Q62.4512 1064.62 64.0293 1068.29 Q65.6074 1071.97 65.6074 1075.99 Q65.6074 1081.02 63.3852 1085.07 Q61.163 1089.13 57.0085 1091.51 Q52.8539 1093.87 47.5399 1093.87 Q41.9361 1093.87 36.4289 1091.29 Q30.9217 1088.71 26.8316 1084.62 Q22.7414 1080.53 20.1972 1075.12 Q17.6529 1069.71 17.6529 1064.3 Q17.6529 1062.24 18.2004 1060.4 Q18.7479 1058.57 19.4242 1057.47 Q20.1005 1056.35 21.0989 1055.35 Q22.0651 1054.35 22.516 1054.03 Q22.9669 1053.67 23.5144 1053.35 L18.458 1048.75 Q17.6529 1047.94 17.6529 1047.75 Q17.6529 1047.36 17.8783 1047.2 Q18.1038 1047.04 18.3292 1047.04 Z" fill="#000000" fill-rule="evenodd" fill-opacity="1"></path><path clip-path="url(#clip660)" d="M46.1551 1013.64 Q49.6655 1013.64 53.1438 1015.19 Q56.5898 1016.73 59.1662 1019.21 Q61.7105 1021.66 63.3208 1024.88 Q64.8989 1028.1 64.8989 1031.32 Q64.8989 1035.93 61.7749 1038.92 Q58.6187 1041.89 53.7235 1041.89 Q49.1502 1041.89 44.8024 1039.34 Q40.4224 1036.77 37.7171 1032.64 Q35.0119 1028.52 35.0119 1024.21 Q35.0119 1019.66 38.0714 1016.67 Q41.131 1013.64 46.1551 1013.64 M43.5786 1018.47 Q40.4546 1018.47 38.4579 1019.99 Q36.4611 1021.5 36.4611 1024.27 Q36.4611 1025.08 36.7188 1026.01 Q36.9442 1026.94 37.5561 1028.17 Q38.168 1029.36 39.4563 1030.71 Q40.7123 1032.03 42.5158 1033.19 Q44.8991 1034.7 49.279 1035.86 Q53.6268 1036.99 56.2355 1036.99 Q59.8426 1036.99 61.6461 1035.32 Q63.4174 1033.64 63.4174 1031.26 Q63.4174 1028.94 61.8071 1026.49 Q60.1646 1024.01 57.3627 1022.31 Q54.4642 1020.6 50.213 1019.54 Q45.9296 1018.47 43.5786 1018.47 Z" fill="#000000" fill-rule="evenodd" fill-opacity="1"></path><path clip-path="url(#clip660)" d="M56.5254 985.123 Q56.8152 984.865 57.1051 984.865 Q57.3949 984.865 58.2323 985.51 Q59.0696 986.121 60.1968 987.442 Q61.324 988.762 62.3868 990.469 Q63.4496 992.176 64.1582 994.688 Q64.8989 997.2 64.8989 999.841 Q64.8989 1004.58 61.5173 1007.41 Q58.1357 1010.21 52.9505 1010.21 Q49.6333 1010.21 46.7026 1009.12 Q43.7396 1008.02 41.6463 1006.25 Q39.5529 1004.45 38.0392 1002.19 Q36.4933 999.906 35.7526 997.522 Q35.0119 995.139 35.0119 992.917 Q35.0119 989.664 36.6544 987.764 Q38.2969 985.864 40.6157 985.864 Q41.1632 985.864 41.8395 986.025 Q42.5158 986.154 43.5786 986.605 Q44.6414 987.023 45.7042 988.118 Q46.7348 989.213 47.4111 990.823 Q48.9248 994.398 48.9248 1000.9 L48.9248 1004.41 Q53.0793 1005.44 55.7846 1005.44 Q56.8474 1005.44 57.9424 1005.25 Q59.0052 1005.06 60.3579 1004.54 Q61.7105 1004 62.5801 1002.77 Q63.4174 1001.52 63.4174 999.712 Q63.4174 999.133 63.3852 998.521 Q63.353 997.877 62.9987 996.266 Q62.6445 994.624 62.0326 993.174 Q61.4207 991.725 60.1002 989.889 Q58.7476 988.022 56.9118 986.54 Q56.2355 986.025 56.2355 985.671 Q56.2355 985.381 56.5254 985.123 M40.6157 988.054 Q38.8444 988.054 37.6527 989.374 Q36.4611 990.662 36.4611 992.917 Q36.4611 993.625 36.6221 994.495 Q36.7832 995.364 37.4595 996.814 Q38.1358 998.231 39.263 999.487 Q40.358 1000.74 42.5158 1002 Q44.6414 1003.25 47.4755 1004 L47.4755 1001.29 Q47.4755 1000.36 47.4755 999.68 Q47.4433 999.004 47.3145 997.522 Q47.1857 996.009 46.9602 994.914 Q46.7026 993.819 46.1873 992.434 Q45.672 991.049 44.9957 990.179 Q44.2871 989.278 43.1599 988.666 Q42.0327 988.054 40.6157 988.054 Z" fill="#000000" fill-rule="evenodd" fill-opacity="1"></path><path clip-path="url(#clip660)" d="M22.1939 946.898 Q23.9652 946.898 25.0602 948.025 Q26.1552 949.12 26.1552 950.505 Q26.1552 951.503 25.5433 952.244 Q24.9314 952.953 23.8686 952.953 Q22.7736 952.953 21.6142 952.115 Q20.4548 951.278 20.2938 949.378 Q19.1022 950.634 19.1022 952.631 Q19.1022 953.629 19.7463 954.466 Q20.3582 955.272 21.3566 955.722 Q22.3872 956.206 28.2164 957.301 Q30.1166 957.655 31.9523 957.977 Q33.788 958.299 35.7204 958.685 L35.7204 953.21 Q35.7204 952.502 35.7526 952.212 Q35.7848 951.922 35.9458 951.697 Q36.1069 951.439 36.4611 951.439 Q37.3629 951.439 37.5883 951.858 Q37.7816 952.244 37.7816 953.404 L37.7816 959.072 L58.6832 963.033 Q59.2951 963.13 61.2274 963.548 Q63.1276 963.935 66.2515 964.869 Q69.4077 965.803 71.2757 966.737 Q72.3384 967.252 73.3368 967.928 Q74.3674 968.573 75.398 969.507 Q76.4286 970.441 77.0405 971.664 Q77.6846 972.888 77.6846 974.176 Q77.6846 976.366 76.4608 978.073 Q75.237 979.78 73.1436 979.78 Q71.3723 979.78 70.2773 978.685 Q69.1823 977.558 69.1823 976.173 Q69.1823 975.175 69.7942 974.466 Q70.4061 973.726 71.4689 973.726 Q71.9198 973.726 72.4351 973.887 Q72.9504 974.048 73.5301 974.402 Q74.142 974.756 74.5607 975.529 Q74.9793 976.302 75.0437 977.365 Q76.2354 976.109 76.2354 974.176 Q76.2354 973.564 75.9777 973.017 Q75.7523 972.469 75.1726 972.019 Q74.5929 971.536 74.0132 971.181 Q73.4657 970.827 72.4029 970.473 Q71.3723 970.118 70.5993 969.893 Q69.8264 969.668 68.4415 969.378 Q67.0567 969.056 66.2193 968.895 Q65.4142 968.734 63.8361 968.444 L37.7816 963.516 L37.7816 967.864 Q37.7816 968.637 37.7494 968.959 Q37.7171 969.249 37.5561 969.474 Q37.3629 969.7 36.9764 969.7 Q36.3645 969.7 36.1069 969.442 Q35.817 969.152 35.7848 968.83 Q35.7204 968.508 35.7204 967.735 L35.7204 963.162 Q27.5723 961.616 25.3823 961.004 Q23.0635 960.296 21.4532 959.201 Q19.8107 958.106 19.0377 956.882 Q18.2648 955.658 17.975 954.66 Q17.6529 953.629 17.6529 952.631 Q17.6529 950.376 18.8767 948.637 Q20.0683 946.898 22.1939 946.898 Z" fill="#000000" fill-rule="evenodd" fill-opacity="1"></path><path clip-path="url(#clip660)" d="M22.1939 909.887 Q23.9652 909.887 25.0602 911.014 Q26.1552 912.109 26.1552 913.494 Q26.1552 914.492 25.5433 915.233 Q24.9314 915.942 23.8686 915.942 Q22.7736 915.942 21.6142 915.104 Q20.4548 914.267 20.2938 912.367 Q19.1022 913.623 19.1022 915.62 Q19.1022 916.618 19.7463 917.455 Q20.3582 918.26 21.3566 918.711 Q22.3872 919.194 28.2164 920.289 Q30.1166 920.644 31.9523 920.966 Q33.788 921.288 35.7204 921.674 L35.7204 916.199 Q35.7204 915.491 35.7526 915.201 Q35.7848 914.911 35.9458 914.686 Q36.1069 914.428 36.4611 914.428 Q37.3629 914.428 37.5883 914.847 Q37.7816 915.233 37.7816 916.392 L37.7816 922.061 L58.6832 926.022 Q59.2951 926.119 61.2274 926.537 Q63.1276 926.924 66.2515 927.858 Q69.4077 928.792 71.2757 929.726 Q72.3384 930.241 73.3368 930.917 Q74.3674 931.561 75.398 932.495 Q76.4286 933.429 77.0405 934.653 Q77.6846 935.877 77.6846 937.165 Q77.6846 939.355 76.4608 941.062 Q75.237 942.769 73.1436 942.769 Q71.3723 942.769 70.2773 941.674 Q69.1823 940.547 69.1823 939.162 Q69.1823 938.164 69.7942 937.455 Q70.4061 936.714 71.4689 936.714 Q71.9198 936.714 72.4351 936.875 Q72.9504 937.036 73.5301 937.391 Q74.142 937.745 74.5607 938.518 Q74.9793 939.291 75.0437 940.354 Q76.2354 939.098 76.2354 937.165 Q76.2354 936.553 75.9777 936.006 Q75.7523 935.458 75.1726 935.007 Q74.5929 934.524 74.0132 934.17 Q73.4657 933.816 72.4029 933.462 Q71.3723 933.107 70.5993 932.882 Q69.8264 932.656 68.4415 932.367 Q67.0567 932.044 66.2193 931.883 Q65.4142 931.722 63.8361 931.433 L37.7816 926.505 L37.7816 930.853 Q37.7816 931.626 37.7494 931.948 Q37.7171 932.238 37.5561 932.463 Q37.3629 932.689 36.9764 932.689 Q36.3645 932.689 36.1069 932.431 Q35.817 932.141 35.7848 931.819 Q35.7204 931.497 35.7204 930.724 L35.7204 926.151 Q27.5723 924.605 25.3823 923.993 Q23.0635 923.284 21.4532 922.189 Q19.8107 921.094 19.0377 919.871 Q18.2648 918.647 17.975 917.648 Q17.6529 916.618 17.6529 915.62 Q17.6529 913.365 18.8767 911.626 Q20.0683 909.887 22.1939 909.887 Z" fill="#000000" fill-rule="evenodd" fill-opacity="1"></path><path clip-path="url(#clip660)" d="M22.9347 891.179 Q24.3517 891.179 25.4145 892.339 Q26.4451 893.466 26.4451 894.69 Q26.4451 895.817 25.7688 896.525 Q25.0602 897.202 24.0619 897.202 Q22.7414 897.202 21.6464 896.074 Q20.5514 894.947 20.5514 893.627 Q20.5514 892.532 21.2277 891.856 Q21.9041 891.179 22.9347 891.179 M54.7218 890.599 Q54.9795 890.599 56.0101 890.889 Q57.0085 891.179 58.5543 891.888 Q60.068 892.564 61.4851 893.498 Q62.9021 894.432 63.9005 895.978 Q64.8989 897.492 64.8989 899.231 Q64.8989 901.582 63.353 903.128 Q61.8071 904.641 59.4883 904.641 Q58.2323 904.641 54.2065 903.128 Q42.4836 898.748 42.0005 898.587 Q40.1648 897.846 38.5545 897.846 Q37.8138 897.846 37.3629 898.007 Q36.8798 898.168 36.7188 898.49 Q36.5255 898.812 36.4933 899.005 Q36.4611 899.166 36.4611 899.488 Q36.4611 901.388 38.3935 903.16 Q40.3258 904.931 44.6414 906.155 Q45.4466 906.413 45.6398 906.574 Q45.833 906.735 45.833 907.218 Q45.8008 908.023 45.1567 908.023 Q44.9635 908.023 44.2227 907.797 Q43.4498 907.572 42.2904 907.153 Q41.0988 906.735 39.8749 905.994 Q38.6189 905.253 37.5239 904.351 Q36.4289 903.417 35.7204 902.097 Q35.0119 900.777 35.0119 899.295 Q35.0119 896.88 36.5899 895.398 Q38.1358 893.884 40.4224 893.884 Q41.6785 893.884 43.9007 894.754 Q46.7992 895.817 47.7332 896.203 L54.6574 898.78 Q57.1695 899.714 57.9424 900.004 Q58.6832 900.261 59.5849 900.487 Q60.4545 900.68 61.2596 900.68 Q62.3868 900.68 62.9021 900.326 Q63.4174 899.939 63.4174 899.102 Q63.4174 896.783 61.1308 895.076 Q58.812 893.369 55.2693 892.371 Q55.1727 892.339 55.0117 892.306 Q54.2065 892.049 54.1099 891.791 Q54.0777 891.662 54.0777 891.405 Q54.0777 890.599 54.7218 890.599 Z" fill="#000000" fill-rule="evenodd" fill-opacity="1"></path><path clip-path="url(#clip660)" d="M56.5254 858.244 Q56.8152 857.986 57.1051 857.986 Q57.3949 857.986 58.2323 858.631 Q59.0696 859.242 60.1968 860.563 Q61.324 861.883 62.3868 863.59 Q63.4496 865.297 64.1582 867.809 Q64.8989 870.321 64.8989 872.962 Q64.8989 877.89 61.6461 880.788 Q58.3933 883.655 53.7235 883.655 Q49.1824 883.655 44.8346 881.11 Q40.4546 878.566 37.7494 874.444 Q35.0119 870.321 35.0119 865.973 Q35.0119 862.527 36.6221 860.37 Q38.2324 858.212 40.6801 858.212 Q42.5802 858.212 43.7396 859.307 Q44.8991 860.402 44.8991 861.883 Q44.8991 862.914 44.3193 863.622 Q43.7074 864.331 42.5802 864.331 Q41.131 864.331 40.0038 863.139 Q39.5529 862.688 39.3596 862.173 Q39.1342 861.626 39.1342 861.304 Q39.102 860.982 39.102 860.241 Q37.846 860.917 37.1696 862.527 Q36.4611 864.106 36.4611 865.909 Q36.4611 868.582 38.3291 871.126 Q40.1648 873.671 43.0633 875.217 Q45.8974 876.762 49.9232 877.761 Q53.9167 878.759 56.2355 878.759 Q59.4239 878.759 61.4207 877.278 Q63.4174 875.796 63.4174 872.833 Q63.4174 872.254 63.3852 871.642 Q63.353 870.998 62.9987 869.387 Q62.6445 867.745 62.0326 866.296 Q61.4207 864.846 60.1002 863.011 Q58.7476 861.143 56.9118 859.661 Q56.2355 859.146 56.2355 858.792 Q56.2355 858.502 56.5254 858.244 Z" fill="#000000" fill-rule="evenodd" fill-opacity="1"></path><path clip-path="url(#clip660)" d="M56.5254 830.568 Q56.8152 830.31 57.1051 830.31 Q57.3949 830.31 58.2323 830.955 Q59.0696 831.566 60.1968 832.887 Q61.324 834.207 62.3868 835.914 Q63.4496 837.621 64.1582 840.133 Q64.8989 842.645 64.8989 845.286 Q64.8989 850.02 61.5173 852.855 Q58.1357 855.656 52.9505 855.656 Q49.6333 855.656 46.7026 854.561 Q43.7396 853.466 41.6463 851.695 Q39.5529 849.892 38.0392 847.637 Q36.4933 845.351 35.7526 842.967 Q35.0119 840.584 35.0119 838.362 Q35.0119 835.109 36.6544 833.209 Q38.2969 831.309 40.6157 831.309 Q41.1632 831.309 41.8395 831.47 Q42.5158 831.599 43.5786 832.05 Q44.6414 832.468 45.7042 833.563 Q46.7348 834.658 47.4111 836.269 Q48.9248 839.843 48.9248 846.349 L48.9248 849.859 Q53.0793 850.89 55.7846 850.89 Q56.8474 850.89 57.9424 850.697 Q59.0052 850.504 60.3579 849.988 Q61.7105 849.441 62.5801 848.217 Q63.4174 846.961 63.4174 845.157 Q63.4174 844.578 63.3852 843.966 Q63.353 843.322 62.9987 841.711 Q62.6445 840.069 62.0326 838.62 Q61.4207 837.17 60.1002 835.335 Q58.7476 833.467 56.9118 831.985 Q56.2355 831.47 56.2355 831.116 Q56.2355 830.826 56.5254 830.568 M40.6157 833.499 Q38.8444 833.499 37.6527 834.819 Q36.4611 836.107 36.4611 838.362 Q36.4611 839.07 36.6221 839.94 Q36.7832 840.81 37.4595 842.259 Q38.1358 843.676 39.263 844.932 Q40.358 846.188 42.5158 847.444 Q44.6414 848.7 47.4755 849.441 L47.4755 846.735 Q47.4755 845.801 47.4755 845.125 Q47.4433 844.449 47.3145 842.967 Q47.1857 841.454 46.9602 840.359 Q46.7026 839.264 46.1873 837.879 Q45.672 836.494 44.9957 835.624 Q44.2871 834.723 43.1599 834.111 Q42.0327 833.499 40.6157 833.499 Z" fill="#000000" fill-rule="evenodd" fill-opacity="1"></path><path clip-path="url(#clip660)" d="M54.7218 790.797 Q54.9795 790.797 55.9779 791.087 Q56.9763 791.376 58.5221 792.085 Q60.068 792.761 61.4851 793.695 Q62.8699 794.629 63.9005 796.175 Q64.8989 797.689 64.8989 799.428 Q64.8989 801.747 63.353 803.293 Q61.8071 804.839 59.4883 804.839 Q58.2001 804.839 56.4288 804.162 Q44.9957 799.879 41.0666 799.879 Q36.4611 799.879 36.4611 803.454 Q36.4611 805.225 37.1374 806.9 Q37.7816 808.542 38.6833 809.669 Q39.5851 810.797 40.8411 811.827 Q42.0649 812.826 42.9023 813.341 Q43.7074 813.824 44.5126 814.21 L47.7976 815.048 Q48.6993 815.241 52.2098 816.175 L58.1679 817.624 Q62.6123 818.655 63.031 818.88 Q63.9327 819.202 64.4158 819.911 Q64.8989 820.619 64.8989 821.328 Q64.8989 822.133 64.4158 822.681 Q63.9327 823.228 63.0954 823.228 Q62.9665 823.228 62.4835 823.131 Q62.0004 823.035 61.324 822.874 Q60.6477 822.713 60.2612 822.648 L45.0279 818.816 Q42.2582 818.107 41.3886 817.946 Q40.4868 817.753 39.4885 817.753 Q36.4611 817.753 36.4611 819.814 Q36.4611 821.489 38.4579 822.584 Q40.4546 823.679 44.3193 824.613 Q45.3821 824.903 45.6076 825.096 Q45.833 825.257 45.833 825.74 Q45.8008 826.545 45.1567 826.545 Q44.9957 826.545 43.9329 826.288 Q42.8701 826.03 41.3564 825.547 Q39.8105 825.032 38.7799 824.549 Q38.007 824.13 37.6527 823.904 Q37.2663 823.647 36.5255 823.035 Q35.7526 822.391 35.3983 821.553 Q35.0119 820.684 35.0119 819.621 Q35.0119 817.238 36.5577 815.499 Q38.0714 813.76 40.7445 813.534 Q35.0119 809.251 35.0119 803.26 Q35.0119 799.718 36.8798 797.689 Q38.7477 795.66 42.0649 795.66 Q42.8379 795.66 43.8363 795.821 Q44.8024 795.95 46.0263 796.272 Q47.2501 796.562 48.1841 796.819 Q49.118 797.077 50.6317 797.592 Q52.1132 798.108 52.7573 798.333 Q53.4014 798.558 54.9151 799.106 Q56.3965 799.621 56.5576 799.686 Q59.5527 800.877 61.2596 800.877 Q62.3868 800.877 62.9021 800.523 Q63.4174 800.136 63.4174 799.299 Q63.4174 797.045 61.1952 795.37 Q58.9408 793.663 55.2693 792.568 Q54.4642 792.31 54.271 792.182 Q54.0777 792.021 54.0777 791.57 Q54.0777 790.797 54.7218 790.797 Z" fill="#000000" fill-rule="evenodd" fill-opacity="1"></path><path clip-path="url(#clip660)" d="M36.4611 766.852 Q37.3629 766.852 37.5883 767.271 Q37.7816 767.69 37.7816 768.849 L37.7816 775.033 L57.2339 779.928 Q58.9408 780.314 60.3901 780.314 Q62.0004 780.314 62.7089 779.831 Q63.4174 779.316 63.4174 778.253 Q63.4174 776.16 61.5173 773.906 Q59.6171 771.619 54.9795 769.687 Q54.3676 769.429 54.2388 769.3 Q54.0777 769.139 54.0777 768.72 Q54.0777 767.915 54.7218 767.915 Q54.9473 767.915 55.9779 768.366 Q57.0085 768.785 58.5221 769.719 Q60.0358 770.621 61.4529 771.812 Q62.8699 772.972 63.9005 774.743 Q64.8989 776.514 64.8989 778.414 Q64.8989 781.087 63.192 782.794 Q61.4851 784.469 58.812 784.469 Q57.9424 784.469 55.1727 783.793 Q52.3708 783.116 37.7816 779.445 L37.7816 785.274 Q37.7816 786.079 37.7494 786.401 Q37.7171 786.691 37.5561 786.917 Q37.3629 787.11 36.9764 787.11 Q36.3645 787.11 36.1069 786.852 Q35.817 786.595 35.7848 786.273 Q35.7204 785.918 35.7204 785.113 L35.7204 778.93 L25.2535 776.353 Q24.2229 776.096 23.6432 775.451 Q23.0313 774.775 22.9669 774.389 Q22.8702 774.002 22.8702 773.712 Q22.8702 772.843 23.3533 772.327 Q23.8042 771.812 24.6416 771.812 Q25.0924 771.812 35.7204 774.517 L35.7204 768.72 Q35.7204 767.98 35.7526 767.69 Q35.7848 767.368 35.9458 767.11 Q36.1069 766.852 36.4611 766.852 Z" fill="#000000" fill-rule="evenodd" fill-opacity="1"></path><path clip-path="url(#clip660)" d="M46.1551 717.861 Q49.6655 717.861 53.1438 719.407 Q56.5898 720.953 59.1662 723.433 Q61.7105 725.88 63.3208 729.101 Q64.8989 732.321 64.8989 735.542 Q64.8989 740.147 61.7749 743.143 Q58.6187 746.106 53.7235 746.106 Q49.1502 746.106 44.8024 743.561 Q40.4224 740.985 37.7171 736.862 Q35.0119 732.74 35.0119 728.425 Q35.0119 723.883 38.0714 720.888 Q41.131 717.861 46.1551 717.861 M43.5786 722.692 Q40.4546 722.692 38.4579 724.206 Q36.4611 725.719 36.4611 728.489 Q36.4611 729.294 36.7188 730.228 Q36.9442 731.162 37.5561 732.386 Q38.168 733.577 39.4563 734.93 Q40.7123 736.251 42.5158 737.41 Q44.8991 738.924 49.279 740.083 Q53.6268 741.21 56.2355 741.21 Q59.8426 741.21 61.6461 739.536 Q63.4174 737.861 63.4174 735.478 Q63.4174 733.159 61.8071 730.711 Q60.1646 728.231 57.3627 726.524 Q54.4642 724.817 50.213 723.755 Q45.9296 722.692 43.5786 722.692 Z" fill="#000000" fill-rule="evenodd" fill-opacity="1"></path><path clip-path="url(#clip660)" d="M22.1939 681.548 Q23.9652 681.548 25.0602 682.675 Q26.1552 683.77 26.1552 685.155 Q26.1552 686.154 25.5433 686.894 Q24.9314 687.603 23.8686 687.603 Q22.7736 687.603 21.6142 686.765 Q20.4548 685.928 20.2938 684.028 Q19.1022 685.284 19.1022 687.281 Q19.1022 688.279 19.7463 689.117 Q20.3582 689.922 21.3566 690.373 Q22.3872 690.856 28.2164 691.951 Q30.1166 692.305 31.9523 692.627 Q33.788 692.949 35.7204 693.335 L35.7204 687.86 Q35.7204 687.152 35.7526 686.862 Q35.7848 686.572 35.9458 686.347 Q36.1069 686.089 36.4611 686.089 Q37.3629 686.089 37.5883 686.508 Q37.7816 686.894 37.7816 688.054 L37.7816 693.722 L58.6832 697.683 Q59.2951 697.78 61.2274 698.199 Q63.1276 698.585 66.2515 699.519 Q69.4077 700.453 71.2757 701.387 Q72.3384 701.902 73.3368 702.579 Q74.3674 703.223 75.398 704.157 Q76.4286 705.091 77.0405 706.314 Q77.6846 707.538 77.6846 708.827 Q77.6846 711.017 76.4608 712.723 Q75.237 714.43 73.1436 714.43 Q71.3723 714.43 70.2773 713.335 Q69.1823 712.208 69.1823 710.823 Q69.1823 709.825 69.7942 709.116 Q70.4061 708.376 71.4689 708.376 Q71.9198 708.376 72.4351 708.537 Q72.9504 708.698 73.5301 709.052 Q74.142 709.406 74.5607 710.179 Q74.9793 710.952 75.0437 712.015 Q76.2354 710.759 76.2354 708.827 Q76.2354 708.215 75.9777 707.667 Q75.7523 707.12 75.1726 706.669 Q74.5929 706.186 74.0132 705.831 Q73.4657 705.477 72.4029 705.123 Q71.3723 704.769 70.5993 704.543 Q69.8264 704.318 68.4415 704.028 Q67.0567 703.706 66.2193 703.545 Q65.4142 703.384 63.8361 703.094 L37.7816 698.166 L37.7816 702.514 Q37.7816 703.287 37.7494 703.609 Q37.7171 703.899 37.5561 704.124 Q37.3629 704.35 36.9764 704.35 Q36.3645 704.35 36.1069 704.092 Q35.817 703.802 35.7848 703.48 Q35.7204 703.158 35.7204 702.385 L35.7204 697.812 Q27.5723 696.266 25.3823 695.654 Q23.0635 694.946 21.4532 693.851 Q19.8107 692.756 19.0377 691.532 Q18.2648 690.308 17.975 689.31 Q17.6529 688.279 17.6529 687.281 Q17.6529 685.026 18.8767 683.287 Q20.0683 681.548 22.1939 681.548 Z" fill="#000000" fill-rule="evenodd" fill-opacity="1"></path><path clip-path="url(#clip660)" d="M47.862 625.166 Q48.0552 625.166 48.796 625.424 L63.031 630.641 Q63.8683 630.931 64.0293 631.221 Q64.1582 631.511 64.1582 632.702 L64.1582 663.233 Q64.1582 663.974 64.126 664.264 Q64.0937 664.554 63.9327 664.779 Q63.7717 665.005 63.4174 665.005 Q62.7733 665.005 62.4835 664.779 Q62.1936 664.522 62.1614 664.232 Q62.1292 663.942 62.1292 663.233 Q62.1292 661.623 62.0326 660.657 Q61.936 659.691 61.8071 659.079 Q61.6461 658.435 61.1952 658.113 Q60.7443 657.758 60.3579 657.597 Q59.9392 657.436 59.0052 657.211 L23.5788 648.387 Q22.516 648.129 22.3549 648.129 Q21.743 648.129 21.582 648.515 Q21.3888 648.87 21.2922 649.9 L21.1633 652.412 Q21.1633 653.185 21.1311 653.507 Q21.0989 653.797 20.9379 654.023 Q20.7769 654.248 20.4226 654.248 Q19.8107 654.248 19.5208 654.023 Q19.1988 653.765 19.1666 653.572 Q19.1022 653.346 19.1022 652.992 L19.2954 644.232 L19.1022 634.474 Q19.1022 633.411 19.9073 633.411 Q20.8091 633.411 21.0023 633.862 Q21.1633 634.313 21.1633 635.923 Q21.1633 639.015 21.4854 640.432 Q21.8074 641.817 22.3549 642.203 Q22.8702 642.557 24.2551 642.912 L59.8748 651.833 Q61.0664 652.155 61.3885 652.155 Q61.7427 652.155 61.8715 651.994 Q61.9682 651.8 62.0326 651.285 Q62.1292 650.705 62.1292 649.836 L62.1292 643.652 Q62.1292 641.784 61.8393 640.142 Q61.5495 638.499 61.1308 637.243 Q60.7121 635.955 59.9392 634.796 Q59.1662 633.636 58.4899 632.831 Q57.7814 631.994 56.6864 631.189 Q55.5592 630.351 54.7863 629.868 Q53.9811 629.353 52.6929 628.773 Q51.3724 628.193 50.6317 627.904 Q49.8588 627.582 48.5383 627.098 Q47.862 626.809 47.6688 626.712 Q47.4755 626.615 47.3145 626.454 Q47.1535 626.261 47.1535 625.971 Q47.1535 625.585 47.3789 625.392 Q47.6043 625.166 47.862 625.166 Z" fill="#000000" fill-rule="evenodd" fill-opacity="1"></path><path clip-path="url(#clip660)" d="M22.9347 605.015 Q24.3517 605.015 25.4145 606.174 Q26.4451 607.301 26.4451 608.525 Q26.4451 609.652 25.7688 610.361 Q25.0602 611.037 24.0619 611.037 Q22.7414 611.037 21.6464 609.91 Q20.5514 608.783 20.5514 607.462 Q20.5514 606.367 21.2277 605.691 Q21.9041 605.015 22.9347 605.015 M54.7218 604.435 Q54.9795 604.435 56.0101 604.725 Q57.0085 605.015 58.5543 605.723 Q60.068 606.399 61.4851 607.333 Q62.9021 608.267 63.9005 609.813 Q64.8989 611.327 64.8989 613.066 Q64.8989 615.417 63.353 616.963 Q61.8071 618.477 59.4883 618.477 Q58.2323 618.477 54.2065 616.963 Q42.4836 612.583 42.0005 612.422 Q40.1648 611.681 38.5545 611.681 Q37.8138 611.681 37.3629 611.842 Q36.8798 612.003 36.7188 612.325 Q36.5255 612.647 36.4933 612.841 Q36.4611 613.002 36.4611 613.324 Q36.4611 615.224 38.3935 616.995 Q40.3258 618.766 44.6414 619.99 Q45.4466 620.248 45.6398 620.409 Q45.833 620.57 45.833 621.053 Q45.8008 621.858 45.1567 621.858 Q44.9635 621.858 44.2227 621.633 Q43.4498 621.407 42.2904 620.989 Q41.0988 620.57 39.8749 619.829 Q38.6189 619.089 37.5239 618.187 Q36.4289 617.253 35.7204 615.932 Q35.0119 614.612 35.0119 613.13 Q35.0119 610.715 36.5899 609.234 Q38.1358 607.72 40.4224 607.72 Q41.6785 607.72 43.9007 608.589 Q46.7992 609.652 47.7332 610.039 L54.6574 612.615 Q57.1695 613.549 57.9424 613.839 Q58.6832 614.097 59.5849 614.322 Q60.4545 614.515 61.2596 614.515 Q62.3868 614.515 62.9021 614.161 Q63.4174 613.775 63.4174 612.937 Q63.4174 610.618 61.1308 608.911 Q58.812 607.205 55.2693 606.206 Q55.1727 606.174 55.0117 606.142 Q54.2065 605.884 54.1099 605.626 Q54.0777 605.498 54.0777 605.24 Q54.0777 604.435 54.7218 604.435 Z" fill="#000000" fill-rule="evenodd" fill-opacity="1"></path><path clip-path="url(#clip660)" d="M22.1939 564.608 Q23.9652 564.608 25.0602 565.735 Q26.1552 566.83 26.1552 568.215 Q26.1552 569.213 25.5433 569.954 Q24.9314 570.662 23.8686 570.662 Q22.7736 570.662 21.6142 569.825 Q20.4548 568.988 20.2938 567.088 Q19.1022 568.344 19.1022 570.34 Q19.1022 571.339 19.7463 572.176 Q20.3582 572.981 21.3566 573.432 Q22.3872 573.915 28.2164 575.01 Q30.1166 575.364 31.9523 575.687 Q33.788 576.009 35.7204 576.395 L35.7204 570.92 Q35.7204 570.212 35.7526 569.922 Q35.7848 569.632 35.9458 569.406 Q36.1069 569.149 36.4611 569.149 Q37.3629 569.149 37.5883 569.567 Q37.7816 569.954 37.7816 571.113 L37.7816 576.782 L58.6832 580.743 Q59.2951 580.839 61.2274 581.258 Q63.1276 581.645 66.2515 582.579 Q69.4077 583.513 71.2757 584.447 Q72.3384 584.962 73.3368 585.638 Q74.3674 586.282 75.398 587.216 Q76.4286 588.15 77.0405 589.374 Q77.6846 590.598 77.6846 591.886 Q77.6846 594.076 76.4608 595.783 Q75.237 597.49 73.1436 597.49 Q71.3723 597.49 70.2773 596.395 Q69.1823 595.268 69.1823 593.883 Q69.1823 592.884 69.7942 592.176 Q70.4061 591.435 71.4689 591.435 Q71.9198 591.435 72.4351 591.596 Q72.9504 591.757 73.5301 592.112 Q74.142 592.466 74.5607 593.239 Q74.9793 594.012 75.0437 595.074 Q76.2354 593.818 76.2354 591.886 Q76.2354 591.274 75.9777 590.727 Q75.7523 590.179 75.1726 589.728 Q74.5929 589.245 74.0132 588.891 Q73.4657 588.537 72.4029 588.182 Q71.3723 587.828 70.5993 587.603 Q69.8264 587.377 68.4415 587.087 Q67.0567 586.765 66.2193 586.604 Q65.4142 586.443 63.8361 586.153 L37.7816 581.226 L37.7816 585.574 Q37.7816 586.347 37.7494 586.669 Q37.7171 586.959 37.5561 587.184 Q37.3629 587.409 36.9764 587.409 Q36.3645 587.409 36.1069 587.152 Q35.817 586.862 35.7848 586.54 Q35.7204 586.218 35.7204 585.445 L35.7204 580.872 Q27.5723 579.326 25.3823 578.714 Q23.0635 578.005 21.4532 576.91 Q19.8107 575.815 19.0377 574.592 Q18.2648 573.368 17.975 572.369 Q17.6529 571.339 17.6529 570.34 Q17.6529 568.086 18.8767 566.347 Q20.0683 564.608 22.1939 564.608 Z" fill="#000000" fill-rule="evenodd" fill-opacity="1"></path><path clip-path="url(#clip660)" d="M36.4611 539.541 Q37.3629 539.541 37.5883 539.96 Q37.7816 540.379 37.7816 541.538 L37.7816 547.722 L57.2339 552.617 Q58.9408 553.003 60.3901 553.003 Q62.0004 553.003 62.7089 552.52 Q63.4174 552.005 63.4174 550.942 Q63.4174 548.849 61.5173 546.594 Q59.6171 544.308 54.9795 542.375 Q54.3676 542.118 54.2388 541.989 Q54.0777 541.828 54.0777 541.409 Q54.0777 540.604 54.7218 540.604 Q54.9473 540.604 55.9779 541.055 Q57.0085 541.474 58.5221 542.408 Q60.0358 543.309 61.4529 544.501 Q62.8699 545.66 63.9005 547.432 Q64.8989 549.203 64.8989 551.103 Q64.8989 553.776 63.192 555.483 Q61.4851 557.158 58.812 557.158 Q57.9424 557.158 55.1727 556.481 Q52.3708 555.805 37.7816 552.134 L37.7816 557.963 Q37.7816 558.768 37.7494 559.09 Q37.7171 559.38 37.5561 559.605 Q37.3629 559.799 36.9764 559.799 Q36.3645 559.799 36.1069 559.541 Q35.817 559.283 35.7848 558.961 Q35.7204 558.607 35.7204 557.802 L35.7204 551.618 L25.2535 549.042 Q24.2229 548.784 23.6432 548.14 Q23.0313 547.464 22.9669 547.077 Q22.8702 546.691 22.8702 546.401 Q22.8702 545.532 23.3533 545.016 Q23.8042 544.501 24.6416 544.501 Q25.0924 544.501 35.7204 547.206 L35.7204 541.409 Q35.7204 540.668 35.7526 540.379 Q35.7848 540.057 35.9458 539.799 Q36.1069 539.541 36.4611 539.541 Z" fill="#000000" fill-rule="evenodd" fill-opacity="1"></path><path clip-path="url(#clip660)" d="M47.6688 518.794 Q36.5255 518.794 27.5401 514.64 Q23.772 512.868 20.6158 510.389 Q17.4597 507.909 16.0748 506.266 Q14.69 504.624 14.69 504.173 Q14.69 503.529 15.3341 503.497 Q15.6561 503.497 16.4613 504.366 Q27.2824 514.994 47.6688 514.962 Q68.1195 514.962 78.522 504.624 Q79.6492 503.497 80.0034 503.497 Q80.6476 503.497 80.6476 504.173 Q80.6476 504.624 79.3271 506.202 Q78.0067 507.78 74.9793 510.228 Q71.952 512.675 68.2483 514.447 Q59.2629 518.794 47.6688 518.794 Z" fill="#000000" fill-rule="evenodd" fill-opacity="1"></path><path clip-path="url(#clip660)" d="M18.3292 446.64 L35.1407 450.794 Q36.2035 451.084 36.3323 451.277 Q36.4611 451.438 36.4611 451.954 Q36.4611 452.952 35.7848 452.952 Q35.7204 452.952 34.883 452.855 Q34.0135 452.759 32.4354 452.759 Q26.6061 452.759 23.1601 455.593 Q19.7141 458.395 19.7141 463.387 Q19.7141 467.702 21.9041 472.05 Q24.0941 476.366 27.6689 479.457 Q30.3742 481.776 33.788 483.483 Q37.2019 485.158 40.3258 485.963 Q43.4498 486.736 45.8008 487.09 Q48.1518 487.444 49.8588 487.444 Q52.3386 487.444 54.432 486.929 Q56.5254 486.382 58.0068 485.415 Q59.4561 484.449 60.5833 483.225 Q61.6783 481.969 62.3224 480.52 Q62.9665 479.039 63.2886 477.557 Q63.5785 476.076 63.5785 474.53 Q63.5785 468.314 58.7476 462.388 Q54.7863 457.686 48.3129 455.722 Q47.6688 455.561 47.6688 454.884 Q47.6688 454.079 48.3129 454.079 Q48.4417 454.079 49.0858 454.24 Q49.6977 454.401 50.9538 454.884 Q52.1776 455.367 53.5624 456.108 Q54.9473 456.849 56.6864 458.234 Q58.4255 459.619 59.9392 461.325 Q62.4512 464.224 64.0293 467.895 Q65.6074 471.567 65.6074 475.593 Q65.6074 480.617 63.3852 484.675 Q61.163 488.733 57.0085 491.116 Q52.8539 493.467 47.5399 493.467 Q41.9361 493.467 36.4289 490.89 Q30.9217 488.314 26.8316 484.224 Q22.7414 480.134 20.1972 474.723 Q17.6529 469.313 17.6529 463.902 Q17.6529 461.841 18.2004 460.005 Q18.7479 458.169 19.4242 457.074 Q20.1005 455.947 21.0989 454.949 Q22.0651 453.95 22.516 453.628 Q22.9669 453.274 23.5144 452.952 L18.458 448.346 Q17.6529 447.541 17.6529 447.348 Q17.6529 446.962 17.8783 446.801 Q18.1038 446.64 18.3292 446.64 Z" fill="#000000" fill-rule="evenodd" fill-opacity="1"></path><path clip-path="url(#clip660)" d="M72.9308 412.165 Q73.0661 412.165 73.5846 412.345 L83.5491 415.997 Q84.1353 416.2 84.248 416.403 Q84.3382 416.606 84.3382 417.44 L84.3382 438.812 Q84.3382 439.33 84.3156 439.533 Q84.2931 439.736 84.1803 439.894 Q84.0676 440.052 83.8196 440.052 Q83.3688 440.052 83.1659 439.894 Q82.963 439.714 82.9404 439.511 Q82.9179 439.308 82.9179 438.812 Q82.9179 437.685 82.8502 437.008 Q82.7826 436.332 82.6924 435.904 Q82.5797 435.453 82.2641 435.227 Q81.9485 434.979 81.678 434.867 Q81.3849 434.754 80.7311 434.596 L55.9326 428.419 Q55.1886 428.239 55.0759 428.239 Q54.6476 428.239 54.5349 428.509 Q54.3996 428.757 54.332 429.479 L54.2418 431.237 Q54.2418 431.778 54.2192 432.004 Q54.1967 432.207 54.084 432.364 Q53.9713 432.522 53.7233 432.522 Q53.2949 432.522 53.092 432.364 Q52.8666 432.184 52.844 432.049 Q52.799 431.891 52.799 431.643 L52.9342 425.511 L52.799 418.68 Q52.799 417.936 53.3626 417.936 Q53.9938 417.936 54.1291 418.252 Q54.2418 418.567 54.2418 419.695 Q54.2418 421.859 54.4672 422.851 Q54.6927 423.82 55.0759 424.091 Q55.4366 424.339 56.406 424.587 L81.3398 430.831 Q82.1739 431.057 82.3994 431.057 Q82.6473 431.057 82.7375 430.944 Q82.8052 430.809 82.8502 430.448 Q82.9179 430.042 82.9179 429.434 L82.9179 425.105 Q82.9179 423.798 82.715 422.648 Q82.5121 421.498 82.219 420.619 Q81.9259 419.717 81.3849 418.906 Q80.8438 418.094 80.3704 417.53 Q79.8744 416.944 79.1079 416.381 Q78.3189 415.794 77.7778 415.456 Q77.2142 415.096 76.3125 414.69 Q75.3881 414.284 74.8696 414.081 Q74.3286 413.856 73.4043 413.517 Q72.9308 413.315 72.7956 413.247 Q72.6603 413.179 72.5476 413.067 Q72.4349 412.931 72.4349 412.728 Q72.4349 412.458 72.5927 412.323 Q72.7505 412.165 72.9308 412.165 Z" fill="#000000" fill-rule="evenodd" fill-opacity="1"></path><path clip-path="url(#clip660)" d="M80.0034 401.885 Q79.6814 401.885 78.8762 401.048 Q68.0551 390.42 47.6688 390.42 Q27.218 390.42 16.88 400.629 Q15.6883 401.885 15.3341 401.885 Q14.69 401.885 14.69 401.241 Q14.69 400.79 16.0104 399.212 Q17.3308 397.602 20.3582 395.187 Q23.3855 392.739 27.0892 390.935 Q36.0746 386.588 47.6688 386.588 Q58.812 386.588 67.7974 390.742 Q71.5655 392.513 74.7217 394.993 Q77.8779 397.473 79.2627 399.116 Q80.6476 400.758 80.6476 401.241 Q80.6476 401.885 80.0034 401.885 Z" fill="#000000" fill-rule="evenodd" fill-opacity="1"></path><polyline clip-path="url(#clip663)" style="stroke:#009af9; stroke-linecap:round; stroke-linejoin:round; stroke-width:4; stroke-opacity:1; fill:none" points="
  279.916,593.794 783.033,590.663 1286.15,581.394 1789.27,751.491 2292.38,1384.24 
  "></polyline>
<polyline clip-path="url(#clip663)" style="stroke:#e26f46; stroke-linecap:round; stroke-linejoin:round; stroke-width:4; stroke-opacity:1; fill:none" points="
  279.916,628.072 783.033,594.199 1286.15,429.14 1789.27,789.714 2292.38,1009.94 
  "></polyline>
<polyline clip-path="url(#clip663)" style="stroke:#3da44d; stroke-linecap:round; stroke-linejoin:round; stroke-width:4; stroke-opacity:1; fill:none" points="
  279.916,630.691 783.033,540.289 1286.15,456.015 1789.27,724.158 2292.38,962.932 
  "></polyline>
<polyline clip-path="url(#clip663)" style="stroke:#c271d2; stroke-linecap:round; stroke-linejoin:round; stroke-width:4; stroke-opacity:1; fill:none" points="
  279.916,665.145 783.033,379.686 1286.15,86.1857 1789.27,628.96 2292.38,1043.08 
  "></polyline>
<polyline clip-path="url(#clip663)" style="stroke:#ac8d18; stroke-linecap:round; stroke-linejoin:round; stroke-width:4; stroke-opacity:1; fill:none" points="
  279.916,598.983 783.033,606.52 1286.15,546.09 1789.27,911.461 2292.38,1032.14 
  "></polyline>
<polyline clip-path="url(#clip663)" style="stroke:#00a9ad; stroke-linecap:round; stroke-linejoin:round; stroke-width:4; stroke-opacity:1; fill:none" points="
  279.916,595.961 783.033,471.704 1286.15,484.941 1789.27,689.316 2292.38,1026.83 
  "></polyline>
<polyline clip-path="url(#clip663)" style="stroke:#ed5d92; stroke-linecap:round; stroke-linejoin:round; stroke-width:4; stroke-opacity:1; fill:none" points="
  279.916,467.255 783.033,437.94 1286.15,374.226 1789.27,869.078 2292.38,962.107 
  "></polyline>
<path clip-path="url(#clip660)" d="
M1894.76 507.829 L2281.65 507.829 L2281.65 93.1086 L1894.76 93.1086  Z
  " fill="#ffffff" fill-rule="evenodd" fill-opacity="1"></path>
<polyline clip-path="url(#clip660)" style="stroke:#000000; stroke-linecap:round; stroke-linejoin:round; stroke-width:4; stroke-opacity:1; fill:none" points="
  1894.76,507.829 2281.65,507.829 2281.65,93.1086 1894.76,93.1086 1894.76,507.829 
  "></polyline>
<polyline clip-path="url(#clip660)" style="stroke:#009af9; stroke-linecap:round; stroke-linejoin:round; stroke-width:4; stroke-opacity:1; fill:none" points="
  1918.47,144.949 2060.68,144.949 
  "></polyline>
<path clip-path="url(#clip660)" d="M2099.98 131.743 L2088.18 150.192 L2099.98 150.192 L2099.98 131.743 M2098.76 127.669 L2104.64 127.669 L2104.64 150.192 L2109.57 150.192 L2109.57 154.081 L2104.64 154.081 L2104.64 162.229 L2099.98 162.229 L2099.98 154.081 L2084.38 154.081 L2084.38 149.567 L2098.76 127.669 Z" fill="#000000" fill-rule="evenodd" fill-opacity="1"></path><path clip-path="url(#clip660)" d="M2127.3 130.747 Q2123.69 130.747 2121.86 134.312 Q2120.05 137.854 2120.05 144.983 Q2120.05 152.09 2121.86 155.655 Q2123.69 159.196 2127.3 159.196 Q2130.93 159.196 2132.74 155.655 Q2134.57 152.09 2134.57 144.983 Q2134.57 137.854 2132.74 134.312 Q2130.93 130.747 2127.3 130.747 M2127.3 127.044 Q2133.11 127.044 2136.16 131.65 Q2139.24 136.233 2139.24 144.983 Q2139.24 153.71 2136.16 158.317 Q2133.11 162.9 2127.3 162.9 Q2121.49 162.9 2118.41 158.317 Q2115.35 153.71 2115.35 144.983 Q2115.35 136.233 2118.41 131.65 Q2121.49 127.044 2127.3 127.044 Z" fill="#000000" fill-rule="evenodd" fill-opacity="1"></path><path clip-path="url(#clip660)" d="M2162.11 127.669 L2169.08 127.669 L2177.9 151.187 L2186.77 127.669 L2193.73 127.669 L2193.73 162.229 L2189.17 162.229 L2189.17 131.882 L2180.26 155.585 L2175.56 155.585 L2166.65 131.882 L2166.65 162.229 L2162.11 162.229 L2162.11 127.669 Z" fill="#000000" fill-rule="evenodd" fill-opacity="1"></path><path clip-path="url(#clip660)" d="M2207.69 131.511 L2207.69 144.497 L2213.57 144.497 Q2216.84 144.497 2218.62 142.807 Q2220.4 141.118 2220.4 137.993 Q2220.4 134.891 2218.62 133.201 Q2216.84 131.511 2213.57 131.511 L2207.69 131.511 M2203.02 127.669 L2213.57 127.669 Q2219.38 127.669 2222.34 130.307 Q2225.33 132.923 2225.33 137.993 Q2225.33 143.108 2222.34 145.724 Q2219.38 148.34 2213.57 148.34 L2207.69 148.34 L2207.69 162.229 L2203.02 162.229 L2203.02 127.669 Z" fill="#000000" fill-rule="evenodd" fill-opacity="1"></path><path clip-path="url(#clip660)" d="M2231.6 127.669 L2236.28 127.669 L2236.28 141.835 L2253.27 141.835 L2253.27 127.669 L2257.95 127.669 L2257.95 162.229 L2253.27 162.229 L2253.27 145.77 L2236.28 145.77 L2236.28 162.229 L2231.6 162.229 L2231.6 127.669 Z" fill="#000000" fill-rule="evenodd" fill-opacity="1"></path><polyline clip-path="url(#clip660)" style="stroke:#e26f46; stroke-linecap:round; stroke-linejoin:round; stroke-width:4; stroke-opacity:1; fill:none" points="
  1918.47,196.789 2060.68,196.789 
  "></polyline>
<path clip-path="url(#clip660)" d="M2099.98 183.583 L2088.18 202.032 L2099.98 202.032 L2099.98 183.583 M2098.76 179.509 L2104.64 179.509 L2104.64 202.032 L2109.57 202.032 L2109.57 205.921 L2104.64 205.921 L2104.64 214.069 L2099.98 214.069 L2099.98 205.921 L2084.38 205.921 L2084.38 201.407 L2098.76 179.509 Z" fill="#000000" fill-rule="evenodd" fill-opacity="1"></path><path clip-path="url(#clip660)" d="M2117.35 179.509 L2135.7 179.509 L2135.7 183.444 L2121.63 183.444 L2121.63 191.916 Q2122.65 191.569 2123.66 191.407 Q2124.68 191.222 2125.7 191.222 Q2131.49 191.222 2134.87 194.393 Q2138.25 197.564 2138.25 202.981 Q2138.25 208.559 2134.78 211.661 Q2131.3 214.74 2124.98 214.74 Q2122.81 214.74 2120.54 214.37 Q2118.29 213.999 2115.89 213.258 L2115.89 208.559 Q2117.97 209.694 2120.19 210.249 Q2122.41 210.805 2124.89 210.805 Q2128.9 210.805 2131.23 208.698 Q2133.57 206.592 2133.57 202.981 Q2133.57 199.37 2131.23 197.263 Q2128.9 195.157 2124.89 195.157 Q2123.02 195.157 2121.14 195.573 Q2119.29 195.99 2117.35 196.87 L2117.35 179.509 Z" fill="#000000" fill-rule="evenodd" fill-opacity="1"></path><path clip-path="url(#clip660)" d="M2162.11 179.509 L2169.08 179.509 L2177.9 203.027 L2186.77 179.509 L2193.73 179.509 L2193.73 214.069 L2189.17 214.069 L2189.17 183.722 L2180.26 207.425 L2175.56 207.425 L2166.65 183.722 L2166.65 214.069 L2162.11 214.069 L2162.11 179.509 Z" fill="#000000" fill-rule="evenodd" fill-opacity="1"></path><path clip-path="url(#clip660)" d="M2207.69 183.351 L2207.69 196.337 L2213.57 196.337 Q2216.84 196.337 2218.62 194.647 Q2220.4 192.958 2220.4 189.833 Q2220.4 186.731 2218.62 185.041 Q2216.84 183.351 2213.57 183.351 L2207.69 183.351 M2203.02 179.509 L2213.57 179.509 Q2219.38 179.509 2222.34 182.147 Q2225.33 184.763 2225.33 189.833 Q2225.33 194.948 2222.34 197.564 Q2219.38 200.18 2213.57 200.18 L2207.69 200.18 L2207.69 214.069 L2203.02 214.069 L2203.02 179.509 Z" fill="#000000" fill-rule="evenodd" fill-opacity="1"></path><path clip-path="url(#clip660)" d="M2231.6 179.509 L2236.28 179.509 L2236.28 193.675 L2253.27 193.675 L2253.27 179.509 L2257.95 179.509 L2257.95 214.069 L2253.27 214.069 L2253.27 197.61 L2236.28 197.61 L2236.28 214.069 L2231.6 214.069 L2231.6 179.509 Z" fill="#000000" fill-rule="evenodd" fill-opacity="1"></path><polyline clip-path="url(#clip660)" style="stroke:#3da44d; stroke-linecap:round; stroke-linejoin:round; stroke-width:4; stroke-opacity:1; fill:none" points="
  1918.47,248.629 2060.68,248.629 
  "></polyline>
<path clip-path="url(#clip660)" d="M2085.84 231.349 L2104.2 231.349 L2104.2 235.284 L2090.12 235.284 L2090.12 243.756 Q2091.14 243.409 2092.16 243.247 Q2093.18 243.062 2094.2 243.062 Q2099.98 243.062 2103.36 246.233 Q2106.74 249.404 2106.74 254.821 Q2106.74 260.399 2103.27 263.501 Q2099.8 266.58 2093.48 266.58 Q2091.3 266.58 2089.04 266.21 Q2086.79 265.839 2084.38 265.098 L2084.38 260.399 Q2086.47 261.534 2088.69 262.089 Q2090.91 262.645 2093.39 262.645 Q2097.39 262.645 2099.73 260.538 Q2102.07 258.432 2102.07 254.821 Q2102.07 251.21 2099.73 249.103 Q2097.39 246.997 2093.39 246.997 Q2091.51 246.997 2089.64 247.413 Q2087.79 247.83 2085.84 248.71 L2085.84 231.349 Z" fill="#000000" fill-rule="evenodd" fill-opacity="1"></path><path clip-path="url(#clip660)" d="M2125.96 234.427 Q2122.35 234.427 2120.52 237.992 Q2118.71 241.534 2118.71 248.663 Q2118.71 255.77 2120.52 259.335 Q2122.35 262.876 2125.96 262.876 Q2129.59 262.876 2131.4 259.335 Q2133.22 255.77 2133.22 248.663 Q2133.22 241.534 2131.4 237.992 Q2129.59 234.427 2125.96 234.427 M2125.96 230.724 Q2131.77 230.724 2134.82 235.33 Q2137.9 239.913 2137.9 248.663 Q2137.9 257.39 2134.82 261.997 Q2131.77 266.58 2125.96 266.58 Q2120.15 266.58 2117.07 261.997 Q2114.01 257.39 2114.01 248.663 Q2114.01 239.913 2117.07 235.33 Q2120.15 230.724 2125.96 230.724 Z" fill="#000000" fill-rule="evenodd" fill-opacity="1"></path><path clip-path="url(#clip660)" d="M2160.77 231.349 L2167.74 231.349 L2176.56 254.867 L2185.42 231.349 L2192.39 231.349 L2192.39 265.909 L2187.83 265.909 L2187.83 235.562 L2178.92 259.265 L2174.22 259.265 L2165.31 235.562 L2165.31 265.909 L2160.77 265.909 L2160.77 231.349 Z" fill="#000000" fill-rule="evenodd" fill-opacity="1"></path><path clip-path="url(#clip660)" d="M2206.35 235.191 L2206.35 248.177 L2212.23 248.177 Q2215.49 248.177 2217.28 246.487 Q2219.06 244.798 2219.06 241.673 Q2219.06 238.571 2217.28 236.881 Q2215.49 235.191 2212.23 235.191 L2206.35 235.191 M2201.67 231.349 L2212.23 231.349 Q2218.04 231.349 2221 233.987 Q2223.99 236.603 2223.99 241.673 Q2223.99 246.788 2221 249.404 Q2218.04 252.02 2212.23 252.02 L2206.35 252.02 L2206.35 265.909 L2201.67 265.909 L2201.67 231.349 Z" fill="#000000" fill-rule="evenodd" fill-opacity="1"></path><path clip-path="url(#clip660)" d="M2230.26 231.349 L2234.94 231.349 L2234.94 245.515 L2251.93 245.515 L2251.93 231.349 L2256.6 231.349 L2256.6 265.909 L2251.93 265.909 L2251.93 249.45 L2234.94 249.45 L2234.94 265.909 L2230.26 265.909 L2230.26 231.349 Z" fill="#000000" fill-rule="evenodd" fill-opacity="1"></path><polyline clip-path="url(#clip660)" style="stroke:#c271d2; stroke-linecap:round; stroke-linejoin:round; stroke-width:4; stroke-opacity:1; fill:none" points="
  1918.47,300.469 2060.68,300.469 
  "></polyline>
<path clip-path="url(#clip660)" d="M2085.84 283.189 L2104.2 283.189 L2104.2 287.124 L2090.12 287.124 L2090.12 295.596 Q2091.14 295.249 2092.16 295.087 Q2093.18 294.902 2094.2 294.902 Q2099.98 294.902 2103.36 298.073 Q2106.74 301.244 2106.74 306.661 Q2106.74 312.239 2103.27 315.341 Q2099.8 318.42 2093.48 318.42 Q2091.3 318.42 2089.04 318.05 Q2086.79 317.679 2084.38 316.938 L2084.38 312.239 Q2086.47 313.374 2088.69 313.929 Q2090.91 314.485 2093.39 314.485 Q2097.39 314.485 2099.73 312.378 Q2102.07 310.272 2102.07 306.661 Q2102.07 303.05 2099.73 300.943 Q2097.39 298.837 2093.39 298.837 Q2091.51 298.837 2089.64 299.253 Q2087.79 299.67 2085.84 300.55 L2085.84 283.189 Z" fill="#000000" fill-rule="evenodd" fill-opacity="1"></path><path clip-path="url(#clip660)" d="M2116 283.189 L2134.36 283.189 L2134.36 287.124 L2120.29 287.124 L2120.29 295.596 Q2121.3 295.249 2122.32 295.087 Q2123.34 294.902 2124.36 294.902 Q2130.15 294.902 2133.53 298.073 Q2136.91 301.244 2136.91 306.661 Q2136.91 312.239 2133.43 315.341 Q2129.96 318.42 2123.64 318.42 Q2121.47 318.42 2119.2 318.05 Q2116.95 317.679 2114.54 316.938 L2114.54 312.239 Q2116.63 313.374 2118.85 313.929 Q2121.07 314.485 2123.55 314.485 Q2127.55 314.485 2129.89 312.378 Q2132.23 310.272 2132.23 306.661 Q2132.23 303.05 2129.89 300.943 Q2127.55 298.837 2123.55 298.837 Q2121.67 298.837 2119.8 299.253 Q2117.95 299.67 2116 300.55 L2116 283.189 Z" fill="#000000" fill-rule="evenodd" fill-opacity="1"></path><path clip-path="url(#clip660)" d="M2160.77 283.189 L2167.74 283.189 L2176.56 306.707 L2185.42 283.189 L2192.39 283.189 L2192.39 317.749 L2187.83 317.749 L2187.83 287.402 L2178.92 311.105 L2174.22 311.105 L2165.31 287.402 L2165.31 317.749 L2160.77 317.749 L2160.77 283.189 Z" fill="#000000" fill-rule="evenodd" fill-opacity="1"></path><path clip-path="url(#clip660)" d="M2206.35 287.031 L2206.35 300.017 L2212.23 300.017 Q2215.49 300.017 2217.28 298.327 Q2219.06 296.638 2219.06 293.513 Q2219.06 290.411 2217.28 288.721 Q2215.49 287.031 2212.23 287.031 L2206.35 287.031 M2201.67 283.189 L2212.23 283.189 Q2218.04 283.189 2221 285.827 Q2223.99 288.443 2223.99 293.513 Q2223.99 298.628 2221 301.244 Q2218.04 303.86 2212.23 303.86 L2206.35 303.86 L2206.35 317.749 L2201.67 317.749 L2201.67 283.189 Z" fill="#000000" fill-rule="evenodd" fill-opacity="1"></path><path clip-path="url(#clip660)" d="M2230.26 283.189 L2234.94 283.189 L2234.94 297.355 L2251.93 297.355 L2251.93 283.189 L2256.6 283.189 L2256.6 317.749 L2251.93 317.749 L2251.93 301.29 L2234.94 301.29 L2234.94 317.749 L2230.26 317.749 L2230.26 283.189 Z" fill="#000000" fill-rule="evenodd" fill-opacity="1"></path><polyline clip-path="url(#clip660)" style="stroke:#ac8d18; stroke-linecap:round; stroke-linejoin:round; stroke-width:4; stroke-opacity:1; fill:none" points="
  1918.47,352.309 2060.68,352.309 
  "></polyline>
<path clip-path="url(#clip660)" d="M2096.72 350.445 Q2093.57 350.445 2091.72 352.598 Q2089.89 354.751 2089.89 358.501 Q2089.89 362.228 2091.72 364.403 Q2093.57 366.556 2096.72 366.556 Q2099.87 366.556 2101.7 364.403 Q2103.55 362.228 2103.55 358.501 Q2103.55 354.751 2101.7 352.598 Q2099.87 350.445 2096.72 350.445 M2106 335.793 L2106 340.052 Q2104.24 339.218 2102.44 338.779 Q2100.66 338.339 2098.9 338.339 Q2094.27 338.339 2091.81 341.464 Q2089.38 344.589 2089.04 350.908 Q2090.4 348.894 2092.46 347.829 Q2094.52 346.742 2097 346.742 Q2102.21 346.742 2105.22 349.913 Q2108.25 353.061 2108.25 358.501 Q2108.25 363.825 2105.1 367.042 Q2101.95 370.26 2096.72 370.26 Q2090.73 370.26 2087.55 365.677 Q2084.38 361.07 2084.38 352.343 Q2084.38 344.149 2088.27 339.288 Q2092.16 334.404 2098.71 334.404 Q2100.47 334.404 2102.25 334.751 Q2104.06 335.098 2106 335.793 Z" fill="#000000" fill-rule="evenodd" fill-opacity="1"></path><path clip-path="url(#clip660)" d="M2126.3 338.107 Q2122.69 338.107 2120.86 341.672 Q2119.06 345.214 2119.06 352.343 Q2119.06 359.45 2120.86 363.015 Q2122.69 366.556 2126.3 366.556 Q2129.94 366.556 2131.74 363.015 Q2133.57 359.45 2133.57 352.343 Q2133.57 345.214 2131.74 341.672 Q2129.94 338.107 2126.3 338.107 M2126.3 334.404 Q2132.11 334.404 2135.17 339.01 Q2138.25 343.593 2138.25 352.343 Q2138.25 361.07 2135.17 365.677 Q2132.11 370.26 2126.3 370.26 Q2120.49 370.26 2117.41 365.677 Q2114.36 361.07 2114.36 352.343 Q2114.36 343.593 2117.41 339.01 Q2120.49 334.404 2126.3 334.404 Z" fill="#000000" fill-rule="evenodd" fill-opacity="1"></path><path clip-path="url(#clip660)" d="M2161.12 335.029 L2168.09 335.029 L2176.91 358.547 L2185.77 335.029 L2192.74 335.029 L2192.74 369.589 L2188.18 369.589 L2188.18 339.242 L2179.27 362.945 L2174.57 362.945 L2165.66 339.242 L2165.66 369.589 L2161.12 369.589 L2161.12 335.029 Z" fill="#000000" fill-rule="evenodd" fill-opacity="1"></path><path clip-path="url(#clip660)" d="M2206.7 338.871 L2206.7 351.857 L2212.58 351.857 Q2215.84 351.857 2217.62 350.167 Q2219.4 348.478 2219.4 345.353 Q2219.4 342.251 2217.62 340.561 Q2215.84 338.871 2212.58 338.871 L2206.7 338.871 M2202.02 335.029 L2212.58 335.029 Q2218.39 335.029 2221.35 337.667 Q2224.34 340.283 2224.34 345.353 Q2224.34 350.468 2221.35 353.084 Q2218.39 355.7 2212.58 355.7 L2206.7 355.7 L2206.7 369.589 L2202.02 369.589 L2202.02 335.029 Z" fill="#000000" fill-rule="evenodd" fill-opacity="1"></path><path clip-path="url(#clip660)" d="M2230.61 335.029 L2235.28 335.029 L2235.28 349.195 L2252.28 349.195 L2252.28 335.029 L2256.95 335.029 L2256.95 369.589 L2252.28 369.589 L2252.28 353.13 L2235.28 353.13 L2235.28 369.589 L2230.61 369.589 L2230.61 335.029 Z" fill="#000000" fill-rule="evenodd" fill-opacity="1"></path><polyline clip-path="url(#clip660)" style="stroke:#00a9ad; stroke-linecap:round; stroke-linejoin:round; stroke-width:4; stroke-opacity:1; fill:none" points="
  1918.47,404.149 2060.68,404.149 
  "></polyline>
<path clip-path="url(#clip660)" d="M2096.72 402.285 Q2093.57 402.285 2091.72 404.438 Q2089.89 406.591 2089.89 410.341 Q2089.89 414.068 2091.72 416.243 Q2093.57 418.396 2096.72 418.396 Q2099.87 418.396 2101.7 416.243 Q2103.55 414.068 2103.55 410.341 Q2103.55 406.591 2101.7 404.438 Q2099.87 402.285 2096.72 402.285 M2106 387.633 L2106 391.892 Q2104.24 391.058 2102.44 390.619 Q2100.66 390.179 2098.9 390.179 Q2094.27 390.179 2091.81 393.304 Q2089.38 396.429 2089.04 402.748 Q2090.4 400.734 2092.46 399.669 Q2094.52 398.582 2097 398.582 Q2102.21 398.582 2105.22 401.753 Q2108.25 404.901 2108.25 410.341 Q2108.25 415.665 2105.1 418.882 Q2101.95 422.1 2096.72 422.1 Q2090.73 422.1 2087.55 417.517 Q2084.38 412.91 2084.38 404.183 Q2084.38 395.989 2088.27 391.128 Q2092.16 386.244 2098.71 386.244 Q2100.47 386.244 2102.25 386.591 Q2104.06 386.938 2106 387.633 Z" fill="#000000" fill-rule="evenodd" fill-opacity="1"></path><path clip-path="url(#clip660)" d="M2116.35 386.869 L2134.71 386.869 L2134.71 390.804 L2120.63 390.804 L2120.63 399.276 Q2121.65 398.929 2122.67 398.767 Q2123.69 398.582 2124.71 398.582 Q2130.49 398.582 2133.87 401.753 Q2137.25 404.924 2137.25 410.341 Q2137.25 415.919 2133.78 419.021 Q2130.31 422.1 2123.99 422.1 Q2121.81 422.1 2119.54 421.73 Q2117.3 421.359 2114.89 420.618 L2114.89 415.919 Q2116.97 417.054 2119.2 417.609 Q2121.42 418.165 2123.9 418.165 Q2127.9 418.165 2130.24 416.058 Q2132.58 413.952 2132.58 410.341 Q2132.58 406.73 2130.24 404.623 Q2127.9 402.517 2123.9 402.517 Q2122.02 402.517 2120.15 402.933 Q2118.29 403.35 2116.35 404.23 L2116.35 386.869 Z" fill="#000000" fill-rule="evenodd" fill-opacity="1"></path><path clip-path="url(#clip660)" d="M2161.12 386.869 L2168.09 386.869 L2176.91 410.387 L2185.77 386.869 L2192.74 386.869 L2192.74 421.429 L2188.18 421.429 L2188.18 391.082 L2179.27 414.785 L2174.57 414.785 L2165.66 391.082 L2165.66 421.429 L2161.12 421.429 L2161.12 386.869 Z" fill="#000000" fill-rule="evenodd" fill-opacity="1"></path><path clip-path="url(#clip660)" d="M2206.7 390.711 L2206.7 403.697 L2212.58 403.697 Q2215.84 403.697 2217.62 402.007 Q2219.4 400.318 2219.4 397.193 Q2219.4 394.091 2217.62 392.401 Q2215.84 390.711 2212.58 390.711 L2206.7 390.711 M2202.02 386.869 L2212.58 386.869 Q2218.39 386.869 2221.35 389.507 Q2224.34 392.123 2224.34 397.193 Q2224.34 402.308 2221.35 404.924 Q2218.39 407.54 2212.58 407.54 L2206.7 407.54 L2206.7 421.429 L2202.02 421.429 L2202.02 386.869 Z" fill="#000000" fill-rule="evenodd" fill-opacity="1"></path><path clip-path="url(#clip660)" d="M2230.61 386.869 L2235.28 386.869 L2235.28 401.035 L2252.28 401.035 L2252.28 386.869 L2256.95 386.869 L2256.95 421.429 L2252.28 421.429 L2252.28 404.97 L2235.28 404.97 L2235.28 421.429 L2230.61 421.429 L2230.61 386.869 Z" fill="#000000" fill-rule="evenodd" fill-opacity="1"></path><polyline clip-path="url(#clip660)" style="stroke:#ed5d92; stroke-linecap:round; stroke-linejoin:round; stroke-width:4; stroke-opacity:1; fill:none" points="
  1918.47,455.989 2060.68,455.989 
  "></polyline>
<path clip-path="url(#clip660)" d="M2084.38 438.709 L2106.6 438.709 L2106.6 440.699 L2094.06 473.269 L2089.17 473.269 L2100.98 442.644 L2084.38 442.644 L2084.38 438.709 Z" fill="#000000" fill-rule="evenodd" fill-opacity="1"></path><path clip-path="url(#clip660)" d="M2125.72 441.787 Q2122.11 441.787 2120.29 445.352 Q2118.48 448.894 2118.48 456.023 Q2118.48 463.13 2120.29 466.695 Q2122.11 470.236 2125.72 470.236 Q2129.36 470.236 2131.16 466.695 Q2132.99 463.13 2132.99 456.023 Q2132.99 448.894 2131.16 445.352 Q2129.36 441.787 2125.72 441.787 M2125.72 438.084 Q2131.54 438.084 2134.59 442.69 Q2137.67 447.273 2137.67 456.023 Q2137.67 464.75 2134.59 469.357 Q2131.54 473.94 2125.72 473.94 Q2119.91 473.94 2116.84 469.357 Q2113.78 464.75 2113.78 456.023 Q2113.78 447.273 2116.84 442.69 Q2119.91 438.084 2125.72 438.084 Z" fill="#000000" fill-rule="evenodd" fill-opacity="1"></path><path clip-path="url(#clip660)" d="M2160.54 438.709 L2167.51 438.709 L2176.33 462.227 L2185.19 438.709 L2192.16 438.709 L2192.16 473.269 L2187.6 473.269 L2187.6 442.922 L2178.69 466.625 L2173.99 466.625 L2165.08 442.922 L2165.08 473.269 L2160.54 473.269 L2160.54 438.709 Z" fill="#000000" fill-rule="evenodd" fill-opacity="1"></path><path clip-path="url(#clip660)" d="M2206.12 442.551 L2206.12 455.537 L2212 455.537 Q2215.26 455.537 2217.04 453.847 Q2218.83 452.158 2218.83 449.033 Q2218.83 445.931 2217.04 444.241 Q2215.26 442.551 2212 442.551 L2206.12 442.551 M2201.44 438.709 L2212 438.709 Q2217.81 438.709 2220.77 441.347 Q2223.76 443.963 2223.76 449.033 Q2223.76 454.148 2220.77 456.764 Q2217.81 459.38 2212 459.38 L2206.12 459.38 L2206.12 473.269 L2201.44 473.269 L2201.44 438.709 Z" fill="#000000" fill-rule="evenodd" fill-opacity="1"></path><path clip-path="url(#clip660)" d="M2230.03 438.709 L2234.71 438.709 L2234.71 452.875 L2251.7 452.875 L2251.7 438.709 L2256.37 438.709 L2256.37 473.269 L2251.7 473.269 L2251.7 456.81 L2234.71 456.81 L2234.71 473.269 L2230.03 473.269 L2230.03 438.709 Z" fill="#000000" fill-rule="evenodd" fill-opacity="1"></path></svg>